<svg width="36" height="32" viewBox="0 0 36 32" fill="none" xmlns="http://www.w3.org/2000/svg">
<path d="M18.1674 20.9097C12.8891 17.4776 11.3979 10.4478 14.83 5.16947C16.1555 3.11022 18.049 1.64271 20.1556 0.790608C13.6465 -1.03194 6.45098 1.47702 2.56918 7.44174C-2.21206 14.803 -0.129142 24.6495 7.23207 29.4307C14.5933 34.2119 24.4398 32.129 29.221 24.7678C30.0968 23.4187 30.7596 21.9511 31.1856 20.4836C27.4695 23.253 22.2859 23.5843 18.1674 20.9097Z" fill="#2C3D94"/>
<path d="M20.1792 0.814391C21.694 1.24044 23.1852 1.90319 24.5581 2.80263C30.5464 6.7081 33.0554 13.951 31.1855 20.4837C32.227 19.7027 33.1501 18.7322 33.9075 17.5724C37.3396 12.2941 35.8247 5.26426 30.5701 1.83218C27.3511 -0.250737 23.4929 -0.511101 20.1792 0.814391Z" fill="#F6CD4C"/>
</svg>
