<svg width="40" height="40" viewBox="0 0 40 40" fill="none" xmlns="http://www.w3.org/2000/svg">
<path d="M33.8425 35.3034C33.8425 35.7596 33.7369 36.191 33.5473 36.5729C33.0853 37.5139 32.1243 38.1605 31.0134 38.1605C30.3599 38.1605 29.7573 37.9358 29.2782 37.5586C26.4624 39.1148 23.2334 39.9996 19.8036 39.9996C15.0215 39.9996 10.6298 38.2786 7.2038 35.4177C6.23248 34.6072 5.33849 33.7053 4.53692 32.7244C1.70311 29.2644 0 24.8291 0 19.9996C0 15.5587 1.44095 11.4501 3.87585 8.12824C4.21346 7.66729 4.88112 7.62253 5.28285 8.02824L5.29511 8.04062C5.6214 8.37014 5.66006 8.89109 5.38659 9.26633C3.18744 12.2701 1.88606 15.9844 1.88606 19.9996C1.88606 24.3044 3.38171 28.2634 5.87602 31.372C6.67005 32.3605 7.56404 33.2644 8.54291 34.0653C11.6219 36.5843 15.5421 38.0948 19.8036 38.0948C22.86 38.0948 25.7391 37.3186 28.2588 35.9501C28.2098 35.7424 28.1843 35.5263 28.1843 35.3034C28.1843 34.1815 28.8246 33.211 29.7564 32.7444C30.1345 32.5529 30.5617 32.4463 31.0134 32.4463C31.5283 32.4463 32.0111 32.5853 32.427 32.8291C32.7175 32.9986 32.9759 33.2177 33.188 33.4767C33.1984 33.4891 33.2088 33.5015 33.2182 33.5139C33.4012 33.7434 33.5492 34.0015 33.6549 34.2815C33.7765 34.5986 33.8425 34.9434 33.8425 35.3034Z" fill="#135EA8"/>
<path d="M39.6053 19.9999C39.6053 24.4409 38.1643 28.5494 35.7304 31.8723C35.3928 32.3332 34.7251 32.378 34.3234 31.9723L34.3102 31.9589C33.9839 31.6294 33.9452 31.1085 34.2187 30.7332C36.4178 27.7294 37.7192 24.0151 37.7192 19.9999C37.7192 15.6952 36.2236 11.7361 33.7293 8.62759C32.9362 7.63902 32.0412 6.73521 31.0624 5.93426C27.9843 3.41522 24.0642 1.90475 19.8017 1.90475C16.7425 1.90475 13.8596 2.6838 11.337 4.05522C11.3757 4.24284 11.3965 4.43808 11.3965 4.63713C11.3965 5.7676 10.7458 6.74569 9.80179 7.20759C9.4293 7.3914 9.00965 7.49426 8.56737 7.49426C8.07416 7.49426 7.61019 7.36664 7.20658 7.14188C6.94159 6.99521 6.70206 6.80664 6.49742 6.58378C6.46913 6.55426 6.44178 6.52283 6.41538 6.49045C6.22206 6.26283 6.06363 6.00283 5.94952 5.71998C5.81278 5.38569 5.73828 5.01998 5.73828 4.63713C5.73828 4.19046 5.84013 3.76665 6.02213 3.39046C6.4795 2.43713 7.44799 1.77999 8.56737 1.77999C9.24635 1.77999 9.86969 2.0219 10.3572 2.42475C13.1665 0.879045 16.3841 0 19.8017 0C24.5838 0 28.9755 1.71999 32.4015 4.58189C33.3728 5.39141 34.2659 6.29426 35.0684 7.27521C37.9012 10.7352 39.6053 15.1704 39.6053 19.9999Z" fill="#135EA8"/>
<path d="M29.9513 17.8219C30.1003 18.5248 30.1776 19.2543 30.1776 20.001C30.1776 22.2029 29.5024 24.2476 28.3481 25.9362C27.6295 26.9895 26.7242 27.9038 25.6812 28.6295C24.0092 29.7952 21.9846 30.4771 19.8043 30.4771C18.07 30.4771 16.4339 30.0448 14.9967 29.2829C14.4375 28.9857 14.3309 28.2219 14.777 27.7714L14.7779 27.7705C15.0722 27.4733 15.522 27.4114 15.8916 27.6057C17.0629 28.2229 18.3935 28.5724 19.8043 28.5724C21.4631 28.5724 23.0115 28.0895 24.3204 27.2552C25.3964 26.5705 26.3093 25.6486 26.9873 24.5619C27.8134 23.24 28.2915 21.6762 28.2915 20.001C28.2915 19.4705 28.2434 18.9505 28.151 18.4467C27.0364 18.4343 26.0764 17.7696 25.6284 16.8124C25.453 16.442 25.3559 16.0277 25.3559 15.5905C25.3559 14.9953 25.536 14.4429 25.8444 13.9858C26.032 13.7067 26.2678 13.462 26.5394 13.2677C26.5677 13.2458 26.596 13.2258 26.6243 13.2077C26.8553 13.0524 27.108 12.9324 27.3796 12.8515C27.6352 12.7743 27.9049 12.7334 28.185 12.7334C28.6178 12.7334 29.028 12.8315 29.3949 13.0086C30.3521 13.4658 31.0141 14.4496 31.0141 15.5905C31.0141 16.4934 30.5991 17.2981 29.9513 17.8219Z" fill="#135EA8"/>
<path d="M24.8314 12.2282L24.8304 12.2291C24.5362 12.5263 24.0864 12.5882 23.7167 12.3939C22.5455 11.7767 21.2148 11.4272 19.8041 11.4272C18.1453 11.4272 16.5968 11.9101 15.2879 12.7444C14.2128 13.4301 13.3 14.352 12.621 15.4377C11.7949 16.7596 11.3168 18.3234 11.3168 19.9986C11.3168 20.5081 11.3611 21.0081 11.4469 21.4939C11.462 21.4929 11.4781 21.4929 11.4931 21.4929C12.6191 21.4929 13.5914 22.1567 14.0469 23.1196C14.2232 23.4919 14.3222 23.9091 14.3222 24.35C14.3222 24.9786 14.1214 25.5596 13.78 26.031C13.5782 26.311 13.3273 26.5519 13.0397 26.7415C13.0171 26.7576 12.9945 26.7719 12.9699 26.7872C12.9454 26.8024 12.9209 26.8167 12.8954 26.831C12.8945 26.8319 12.8945 26.8319 12.8935 26.8319C12.6785 26.9567 12.4456 27.0538 12.1995 27.1167C11.9741 27.1757 11.7374 27.2072 11.4931 27.2072C11.0565 27.2072 10.6435 27.1072 10.2748 26.9291C9.32135 26.4691 8.66406 25.4872 8.66406 24.35C8.66406 23.4796 9.04882 22.7005 9.65707 22.1777C9.50902 21.4748 9.43074 20.7453 9.43074 19.9986C9.43074 17.7967 10.1069 15.752 11.2612 14.0644C11.9798 13.011 12.8851 12.0967 13.9281 11.371C15.5991 10.2053 17.6238 9.52246 19.8041 9.52246C21.5374 9.52246 23.1735 9.95484 24.6116 10.7177C25.1699 11.0148 25.2774 11.7777 24.8314 12.2282Z" fill="#135EA8"/>
</svg>
