<svg width="152" height="40" viewBox="0 0 152 40" fill="none" xmlns="http://www.w3.org/2000/svg">
<g clip-path="url(#clip0)">
<path d="M25.7069 26.1352C19.1093 21.8452 17.2454 13.0583 21.5353 6.46063C23.1921 3.88666 25.559 2.05235 28.1921 0.987256C20.056 -1.29085 11.062 1.84524 6.2099 9.30087C0.233563 18.5021 2.83711 30.8097 12.0383 36.7861C21.2395 42.7624 33.5472 40.1589 39.5235 30.9577C40.6182 29.2713 41.4466 27.437 41.9791 25.6026C37.3342 29.0642 30.8549 29.4784 25.7069 26.1352Z" fill="white"/>
<path d="M28.2217 1.01795C30.1152 1.5505 31.9791 2.3789 33.6951 3.50316C41.1803 8.38482 44.3164 17.4381 41.9791 25.6038C43.2809 24.6274 44.4347 23.4144 45.3815 21.9647C49.6714 15.3671 47.7779 6.58008 41.2098 2.29014C37.1862 -0.31341 32.3637 -0.638853 28.2217 1.01795Z" fill="#F6CD4C"/>
<path d="M54.198 12.8497C54.198 9.21068 56.9199 6.63672 60.6477 6.63672C64.4347 6.63672 67.127 9.21068 67.127 12.8497C67.127 16.4888 64.4347 19.0923 60.6477 19.0923C56.9199 19.0628 54.198 16.4888 54.198 12.8497ZM64.2572 12.8497C64.2572 10.542 62.7187 9.06275 60.6477 9.06275C58.6063 9.06275 57.0678 10.542 57.0678 12.8497C57.0678 15.1574 58.6063 16.6367 60.6477 16.6367C62.7187 16.6367 64.2572 15.1574 64.2572 12.8497Z" fill="white"/>
<path d="M81.8016 11.9642V18.9169H78.9613V12.3192C78.9613 10.1595 77.8963 9.12398 76.0619 9.12398C74.0501 9.12398 72.6596 10.3666 72.6596 12.7926V18.9465H69.8193V6.81629H72.5116V8.38433C73.4584 7.26007 74.9081 6.66836 76.6832 6.66836C79.6418 6.63877 81.8016 8.29558 81.8016 11.9642Z" fill="white"/>
<path d="M96.9199 13.7379H87.3932C87.7482 15.513 89.1979 16.6373 91.3281 16.6373C92.6891 16.6373 93.7542 16.1935 94.6122 15.3059L96.1506 17.0515C95.0559 18.3533 93.34 19.0337 91.269 19.0337C87.1861 19.0337 84.553 16.4302 84.553 12.7911C84.553 9.15209 87.2157 6.57812 90.8252 6.57812C94.3755 6.57812 96.979 9.06333 96.979 12.8503C96.9494 13.1462 96.9494 13.4716 96.9199 13.7379ZM87.3636 11.874H94.2571C94.0204 10.1284 92.6891 8.9154 90.8252 8.9154C88.9909 8.9154 87.6299 10.0988 87.3636 11.874Z" fill="white"/>
<path d="M98.3104 17.496L99.7897 14.1824C101.21 15.1292 103.192 15.7505 105.056 15.7505C106.92 15.7505 107.66 15.2179 107.66 14.4487C107.66 11.9339 98.6063 13.7682 98.6063 7.85105C98.6063 5.01082 100.914 2.70312 105.648 2.70312C107.719 2.70312 109.849 3.1765 111.417 4.09366L110.026 7.43685C108.488 6.60845 107.009 6.19425 105.618 6.19425C103.725 6.19425 103.044 6.84514 103.044 7.61437C103.044 10.0404 112.068 8.23567 112.068 14.0937C112.068 16.8747 109.76 19.2416 105.026 19.2416C102.393 19.2416 99.8193 18.5315 98.3104 17.496Z" fill="white"/>
<path d="M128.518 18.9172L128.458 10.4852L124.376 17.3491H122.364L118.281 10.7219V18.9172H114.109V3H117.807L123.399 12.2012L128.843 3H132.541L132.6 18.9172H128.518Z" fill="white"/>
<path d="M148.606 15.426V18.9172H135.825V3H148.31V6.49112H140.293V9.18343H147.364V12.5562H140.293V15.4556H148.606V15.426Z" fill="white"/>
<path d="M59.4051 33.1192C59.4051 34.628 58.3696 35.6044 57.0087 35.6044C56.3578 35.6044 55.8548 35.3973 55.4998 34.9831V35.5452H54.1685V28.918H55.559V31.2552C55.914 30.8706 56.417 30.6635 57.0087 30.6635C58.3696 30.6339 59.4051 31.6103 59.4051 33.1192ZM58.0146 33.1192C58.0146 32.2908 57.4821 31.7878 56.8016 31.7878C56.1211 31.7878 55.5886 32.2908 55.5886 33.1192C55.5886 33.9476 56.1211 34.4505 56.8016 34.4505C57.4821 34.4505 58.0146 33.9476 58.0146 33.1192Z" fill="white"/>
<path d="M64.9673 30.721L62.8075 35.8097C62.3341 36.9636 61.6832 37.3186 60.8253 37.3186C60.3223 37.3186 59.7898 37.1707 59.4939 36.8748L59.9969 35.8689C60.204 36.0464 60.4998 36.1648 60.7957 36.1648C61.1803 36.1648 61.3874 35.9873 61.5945 35.5731L61.6241 35.5139L59.5531 30.6914H61.0028L62.3637 33.9458L63.7247 30.6914H64.9673V30.721Z" fill="white"/>
<path d="M74.1685 29.2734L71.4762 35.516H70.0265L67.3342 29.2734H68.9023L70.7958 33.7409L72.7188 29.2734H74.1685Z" fill="white"/>
<path d="M80.411 29.2734V35.516H79.2275L76.121 31.7291V35.516H74.7009V29.2734H75.8844L78.9909 33.0604V29.2734H80.411Z" fill="white"/>
<path d="M87.3046 31.5515C87.3046 32.9421 86.2691 33.8001 84.5827 33.8001H83.3401V35.516H81.8904V29.2734H84.5827C86.2691 29.2734 87.3046 30.1314 87.3046 31.5515ZM85.8549 31.5515C85.8549 30.8711 85.4111 30.4569 84.5235 30.4569H83.3401V32.6166H84.5235C85.4111 32.6166 85.8549 32.232 85.8549 31.5515Z" fill="white"/>
<path d="M89.4643 30.4569H87.4525V29.2734H92.8963V30.4569H90.8845V35.516H89.4348V30.4569H89.4643Z" fill="white"/>
</g>
<defs>
<clipPath id="clip0">
<rect width="151.464" height="40" fill="white"/>
</clipPath>
</defs>
</svg>
