<svg width="250" height="250" viewBox="0 0 250 250" fill="none" xmlns="http://www.w3.org/2000/svg">
<path d="M0 250H250V0H0V250Z" fill="#6D7AC5"/>
<path d="M89.3384 61.4553V61.2794C85.8234 61.279 82.6447 59.8541 80.3424 57.5497C78.0411 55.2448 76.6185 52.0629 76.6185 48.5475C76.6185 45.0379 78.0411 41.8587 80.3424 39.5552C82.6442 37.2521 85.8234 35.8272 89.3384 35.8272C92.8539 35.8272 96.0331 37.2521 98.3349 39.5552C100.637 41.8587 102.059 45.0379 102.059 48.5475C102.059 52.0629 100.637 55.2448 98.3349 57.5497C96.0331 59.8541 92.8539 61.279 89.3384 61.2794V61.4553V61.6317C96.5631 61.6317 102.412 55.7721 102.412 48.5475C102.412 41.3341 96.5631 35.4745 89.3384 35.4745C82.1142 35.4745 76.2662 41.3341 76.2662 48.5475C76.2662 55.7721 82.1142 61.6317 89.3384 61.6317V61.4553ZM107.932 50.8399H108.108V46.2632C108.108 45.718 107.667 45.2764 107.122 45.2764H105.944C105.679 45.2764 105.446 45.0955 105.388 44.8423C104.976 43.0465 104.274 41.3604 103.327 39.8409C103.265 39.7418 103.235 39.632 103.235 39.523C103.235 39.3752 103.291 39.2323 103.401 39.1221L104.229 38.2938C104.422 38.1009 104.518 37.8464 104.518 37.5945C104.518 37.3427 104.421 37.0895 104.229 36.898L100.993 33.6621C100.803 33.4723 100.553 33.3727 100.302 33.3732C100.049 33.3727 99.7924 33.467 99.5977 33.6621L98.7703 34.4895C98.66 34.5993 98.5171 34.6542 98.3688 34.6547C98.2603 34.6547 98.1501 34.6243 98.0514 34.5627C96.5319 33.6152 94.8454 32.9124 93.0481 32.4994C92.7954 32.4418 92.6146 32.2091 92.6146 31.9443V30.7696C92.6146 30.2248 92.173 29.7832 91.6278 29.7828H87.0514C86.5062 29.7832 86.0646 30.2248 86.0641 30.7696V31.9439C86.0646 32.2091 85.8837 32.4418 85.6306 32.4994C83.8333 32.9119 82.1464 33.6147 80.6269 34.5623C80.5277 34.6239 80.4179 34.6538 80.3089 34.6538C80.1611 34.6538 80.0183 34.5989 79.908 34.4886L79.0815 33.6621C78.8908 33.4714 78.6394 33.3727 78.388 33.3732C78.1357 33.3727 77.8799 33.4678 77.6856 33.6621L74.4497 36.898C74.2564 37.0918 74.1608 37.3467 74.1608 37.599C74.1608 37.8508 74.259 38.1027 74.4502 38.2938L75.2776 39.1212C75.3874 39.2315 75.4423 39.3743 75.4428 39.5221C75.4428 39.6306 75.4124 39.7409 75.3508 39.8401C74.4042 41.3595 73.7018 43.046 73.2897 44.8428C73.2321 45.096 72.999 45.2764 72.7342 45.2764H71.5576C71.0124 45.2764 70.5708 45.718 70.5708 46.2632V50.8399C70.5708 51.3847 71.0124 51.8263 71.5576 51.8267H72.7346C72.9994 51.8267 73.2325 52.0071 73.2901 52.2603C73.7027 54.0571 74.4051 55.7431 75.3517 57.2617C75.4133 57.3608 75.4437 57.4711 75.4437 57.5796C75.4432 57.7274 75.3883 57.8703 75.2785 57.9806L74.4497 58.8093C74.255 59.004 74.1608 59.2607 74.1608 59.5135C74.1608 59.7648 74.2599 60.0149 74.4497 60.2047L77.6856 63.441C77.8808 63.6357 78.1375 63.7303 78.3902 63.7299C78.6416 63.7299 78.8917 63.6308 79.0815 63.441L79.9106 62.6114C80.0209 62.5015 80.1638 62.4466 80.3121 62.4462C80.4206 62.4462 80.5304 62.4765 80.6295 62.5381C82.1486 63.4839 83.8342 64.1853 85.6306 64.5975C85.8837 64.6551 86.0646 64.8877 86.0641 65.1529V66.3331C86.0646 66.8783 86.5062 67.3199 87.0514 67.3203H91.6278C92.173 67.3199 92.6146 66.8783 92.6146 66.3331V65.1525C92.6146 64.8877 92.7954 64.6546 93.0486 64.597C94.8445 64.1853 96.5301 63.4839 98.0491 62.5377C98.1478 62.4761 98.2581 62.4462 98.3666 62.4457C98.5144 62.4462 98.6573 62.5011 98.7676 62.6109L99.5977 63.441C99.7906 63.6339 100.045 63.7303 100.297 63.7299C100.549 63.7303 100.801 63.6325 100.993 63.441L104.229 60.2047C104.421 60.0131 104.518 59.7604 104.518 59.5086C104.518 59.2563 104.422 59.0022 104.229 58.8093L103.4 57.9801C103.29 57.8698 103.235 57.727 103.235 57.5792C103.235 57.4707 103.264 57.3604 103.326 57.2612C104.273 55.7427 104.975 54.0566 105.388 52.2603C105.445 52.0071 105.678 51.8267 105.943 51.8267H107.122C107.667 51.8263 108.108 51.3847 108.108 50.8399H107.932H107.756C107.755 51.19 107.472 51.4735 107.122 51.474H105.943C105.518 51.474 105.141 51.7624 105.044 52.1813C104.64 53.9396 103.953 55.5891 103.027 57.0751C102.93 57.23 102.882 57.405 102.882 57.5792C102.882 57.8154 102.972 58.0516 103.151 58.2297L103.98 59.0585C104.104 59.183 104.165 59.3447 104.166 59.5086C104.165 59.6706 104.104 59.8314 103.98 59.9555L100.744 63.1918C100.62 63.3155 100.459 63.3771 100.297 63.3776C100.133 63.3771 99.9714 63.316 99.8468 63.1918L99.0167 62.3618C98.839 62.1836 98.6028 62.093 98.3666 62.0934C98.1929 62.0934 98.0174 62.1416 97.8625 62.2385C96.3769 63.1637 94.7275 63.8505 92.9695 64.2537C92.5507 64.3501 92.2623 64.7278 92.2623 65.1525V66.3331C92.2614 66.6836 91.9783 66.9671 91.6278 66.9676H87.0514C86.7009 66.9671 86.4173 66.6836 86.4169 66.3331V65.1529C86.4169 64.7279 86.1284 64.3506 85.7096 64.2537C83.9512 63.8505 82.3018 63.1642 80.8157 62.2385C80.6608 62.1421 80.4858 62.0939 80.3121 62.0939C80.0754 62.0934 79.8396 62.1841 79.6615 62.3622L78.8323 63.1918C78.7086 63.3151 78.5492 63.3771 78.3902 63.3776C78.2237 63.3771 78.0603 63.3164 77.9352 63.1918L74.6993 59.9555C74.5756 59.8318 74.5136 59.6724 74.5136 59.5135C74.5136 59.3469 74.5743 59.1835 74.6993 59.0585L75.5276 58.2297C75.7058 58.052 75.7964 57.8158 75.7964 57.5796C75.7964 57.4055 75.7477 57.2304 75.6509 57.0755C74.7248 55.5895 74.0376 53.9396 73.6335 52.1813C73.5366 51.762 73.1593 51.474 72.7346 51.474H71.5576C71.2071 51.4735 70.924 51.19 70.9231 50.8399V46.2632C70.924 45.9131 71.2071 45.6296 71.5576 45.6287H72.7342C73.1588 45.6287 73.5361 45.3407 73.633 44.9214C74.0367 43.163 74.7239 41.5131 75.65 40.0263C75.7469 39.8713 75.7951 39.6963 75.7951 39.5221C75.7955 39.2859 75.7049 39.0497 75.5267 38.872L74.6993 38.0446C74.5752 37.9205 74.5136 37.7602 74.5136 37.599C74.5136 37.4342 74.5747 37.2722 74.6993 37.1476L77.9352 33.9112C78.0598 33.7867 78.2224 33.7259 78.388 33.7255C78.5483 33.7259 78.7082 33.7876 78.8323 33.9112L79.6588 34.7382C79.8365 34.9163 80.0727 35.0065 80.3089 35.0065C80.4831 35.0065 80.6581 34.9579 80.8135 34.8614C82.3 33.9345 83.9503 33.2468 85.7096 32.8432C86.1289 32.7463 86.4169 32.369 86.4169 31.9439V30.7696C86.4173 30.4195 86.7009 30.136 87.0514 30.1355H91.6278C91.9783 30.136 92.2614 30.4195 92.2623 30.7696V31.9443C92.2623 32.369 92.5503 32.7463 92.9695 32.8432C94.7284 33.2473 96.3783 33.9349 97.8647 34.8619C98.0197 34.9588 98.1952 35.007 98.3688 35.007C98.6055 35.0074 98.8413 34.9168 99.0194 34.7386L99.8468 33.9112C99.9719 33.7862 100.135 33.7259 100.302 33.7255C100.461 33.7255 100.62 33.788 100.744 33.9112L103.98 37.1476C104.104 37.2717 104.166 37.4325 104.166 37.5945C104.165 37.7584 104.104 37.92 103.98 38.0446L103.152 38.8729C102.973 39.0506 102.883 39.2868 102.883 39.523C102.883 39.6972 102.931 39.8722 103.028 40.0271C103.954 41.514 104.641 43.1635 105.045 44.9214C105.141 45.3407 105.519 45.6287 105.944 45.6287H107.122C107.472 45.6296 107.755 45.9131 107.756 46.2632V50.8399H107.932Z" fill="#D7DCF2"/>
<path d="M87.6496 104.58C83.1015 104.58 79.4194 100.836 79.4194 96.2191C79.4194 91.6099 83.1015 87.8652 87.6496 87.8652C92.1981 87.8652 95.8803 91.6099 95.8803 96.2191C95.8803 100.836 92.1981 104.58 87.6496 104.58ZM100.225 97.7924V94.6504C100.225 94.3432 99.9798 94.094 99.6772 94.094H98.8804C98.6473 94.094 98.4408 93.9334 98.3885 93.7022C98.1129 92.4825 97.6431 91.3378 97.0098 90.3061C96.8831 90.1001 96.907 89.8347 97.0763 89.6629L97.6365 89.0944C97.8505 88.8772 97.8505 88.525 97.6365 88.3073L95.4477 86.0859C95.2337 85.8687 94.8867 85.8687 94.6727 86.0859L94.113 86.654C93.9437 86.8258 93.6822 86.8496 93.4793 86.7214C92.4627 86.0778 91.3344 85.6006 90.1321 85.3204C89.9048 85.2673 89.7462 85.0578 89.7462 84.8212V84.0152C89.7462 83.708 89.5006 83.4588 89.198 83.4588H86.1026C85.7999 83.4588 85.5544 83.708 85.5544 84.0152V84.8212C85.5544 85.0578 85.3957 85.2673 85.1684 85.3204C83.9657 85.6006 82.837 86.0778 81.8204 86.721C81.6174 86.8496 81.356 86.8253 81.1871 86.6535L80.6279 86.0859C80.4138 85.8687 80.0669 85.8687 79.8524 86.0859L77.6641 88.3073C77.45 88.525 77.45 88.8772 77.6641 89.0944L78.2238 89.6625C78.3926 89.8338 78.4166 90.0992 78.2903 90.3052C77.6566 91.3374 77.1868 92.4825 76.9112 93.7027C76.8589 93.9334 76.6524 94.094 76.4193 94.094H75.6234C75.3207 94.094 75.0752 94.3432 75.0752 94.6504V97.7924C75.0752 98.0996 75.3207 98.3488 75.6234 98.3488H76.4197C76.6528 98.3488 76.8589 98.5093 76.9112 98.7401C77.1877 99.9603 77.6574 101.105 78.2907 102.137C78.4174 102.343 78.3935 102.608 78.2242 102.78L77.6641 103.348C77.45 103.566 77.45 103.918 77.6641 104.135L79.8524 106.357C80.0669 106.574 80.4138 106.574 80.6279 106.357L81.1889 105.787C81.3577 105.616 81.6192 105.591 81.8222 105.72C82.8383 106.362 83.9661 106.839 85.1684 107.118C85.3957 107.171 85.5544 107.381 85.5544 107.618V108.428C85.5544 108.735 85.7999 108.984 86.1026 108.984H89.198C89.5006 108.984 89.7462 108.735 89.7462 108.428V107.617C89.7462 107.381 89.9048 107.171 90.1321 107.118C91.334 106.838 92.4618 106.362 93.4779 105.72C93.6809 105.591 93.9424 105.616 94.1112 105.787L94.6727 106.357C94.8867 106.574 95.2337 106.574 95.4477 106.357L97.6365 104.135C97.8505 103.918 97.8505 103.566 97.6365 103.348L97.0754 102.779C96.9066 102.608 96.8827 102.342 97.009 102.136C97.6422 101.105 98.112 99.9603 98.388 98.7401C98.4403 98.5093 98.6468 98.3488 98.8799 98.3488H99.6772C99.9798 98.3488 100.225 98.0996 100.225 97.7924Z" fill="#D7DCF2"/>
<path d="M187.687 65.253C187.687 65.7712 187.267 66.1914 186.749 66.1914C186.231 66.1914 185.811 65.7712 185.811 65.253C185.811 64.7347 186.231 64.3145 186.749 64.3145C187.267 64.3145 187.687 64.7347 187.687 65.253Z" fill="#98A1D9"/>
<path d="M68.3183 111.05C68.3183 111.568 67.8981 111.988 67.3799 111.988C66.8616 111.988 66.4414 111.568 66.4414 111.05C66.4414 110.532 66.8616 110.111 67.3799 110.111C67.8981 110.111 68.3183 110.532 68.3183 111.05Z" fill="#98A1D9"/>
<path d="M75.0753 48.5493C75.0753 49.3785 74.403 50.0508 73.5738 50.0508C72.7445 50.0508 72.0723 49.3785 72.0723 48.5493C72.0723 47.72 72.7445 47.0478 73.5738 47.0478C74.403 47.0478 75.0753 47.72 75.0753 48.5493Z" fill="#98A1D9"/>
<path d="M177.928 117.244C177.928 118.281 177.004 119.121 175.863 119.121C174.723 119.121 173.799 118.281 173.799 117.244C173.799 116.208 174.723 115.367 175.863 115.367C177.004 115.367 177.928 116.208 177.928 117.244Z" fill="#98A1D9"/>
<path d="M156.371 197.199H95.8811C90.6096 197.199 86.3364 192.942 86.3364 187.691V53.5548C86.3364 48.3036 90.6096 44.0461 95.8811 44.0461H156.371C161.643 44.0461 165.916 48.3036 165.916 53.5548V187.691C165.916 192.942 161.643 197.199 156.371 197.199Z" fill="#384FAA"/>
<path d="M156.057 195.32H96.1957C91.5797 195.32 87.8379 191.588 87.8379 186.984V53.8822C87.8379 49.2779 91.5797 45.5456 96.1957 45.5456H156.057C160.673 45.5456 164.414 49.2779 164.414 53.8822V186.984C164.414 191.588 160.673 195.32 156.057 195.32Z" fill="white"/>
<path d="M161.036 53.4393V186.299C161.036 189.415 158.504 191.941 155.38 191.941H96.8721C93.7486 191.941 91.2163 189.415 91.2163 186.299V53.4393C91.2163 50.3233 93.7486 47.7973 96.8721 47.7973H106.629C107.17 47.7973 107.665 48.102 107.908 48.585L108.944 50.6481C109.416 51.6002 110.39 52.1968 111.45 52.1968H140.802C141.862 52.1968 142.836 51.6002 143.309 50.6481L144.345 48.585C144.587 48.102 145.082 47.7973 145.624 47.7973H155.38C158.504 47.7973 161.036 50.3233 161.036 53.4393Z" fill="#D7DCF2"/>
<path d="M138.634 49.6758H114.744C114.189 49.6758 113.739 49.2555 113.739 48.7371C113.739 48.2187 114.189 47.7989 114.744 47.7989H138.634C139.189 47.7989 139.64 48.2187 139.64 48.7371C139.64 49.2555 139.189 49.6758 138.634 49.6758Z" fill="#D7DCF2"/>
<path d="M149.292 187.364H148.027C147.904 187.364 147.804 187.464 147.804 187.588C147.804 187.712 147.904 187.812 148.027 187.812H149.292C149.415 187.812 149.515 187.712 149.515 187.588C149.515 187.464 149.415 187.364 149.292 187.364ZM146.762 187.364H145.497C145.374 187.364 145.275 187.464 145.275 187.588C145.275 187.712 145.374 187.812 145.497 187.812H146.762C146.885 187.812 146.985 187.712 146.985 187.588C146.985 187.464 146.885 187.364 146.762 187.364ZM144.233 187.364H142.968C142.845 187.364 142.745 187.464 142.745 187.588C142.745 187.712 142.845 187.812 142.968 187.812H144.233C144.356 187.812 144.456 187.712 144.456 187.588C144.456 187.464 144.356 187.364 144.233 187.364ZM141.703 187.364H140.438C140.315 187.364 140.215 187.464 140.215 187.588C140.215 187.712 140.315 187.812 140.438 187.812H141.703C141.826 187.812 141.926 187.712 141.926 187.588C141.926 187.464 141.826 187.364 141.703 187.364ZM139.173 187.364H137.908C137.785 187.364 137.685 187.464 137.685 187.588C137.685 187.712 137.785 187.812 137.908 187.812H139.173C139.296 187.812 139.396 187.712 139.396 187.588C139.396 187.464 139.296 187.364 139.173 187.364ZM136.643 187.364H135.378C135.255 187.364 135.155 187.464 135.155 187.588C135.155 187.712 135.255 187.812 135.378 187.812H136.643C136.766 187.812 136.866 187.712 136.866 187.588C136.866 187.464 136.766 187.364 136.643 187.364ZM134.114 187.364H132.849C132.726 187.364 132.626 187.464 132.626 187.588C132.626 187.712 132.726 187.812 132.849 187.812H134.114C134.237 187.812 134.336 187.712 134.336 187.588C134.336 187.464 134.237 187.364 134.114 187.364ZM131.584 187.364H130.319C130.196 187.364 130.096 187.464 130.096 187.588C130.096 187.712 130.196 187.812 130.319 187.812H131.584C131.707 187.812 131.807 187.712 131.807 187.588C131.807 187.464 131.707 187.364 131.584 187.364ZM129.054 187.364H127.789C127.666 187.364 127.566 187.464 127.566 187.588C127.566 187.712 127.666 187.812 127.789 187.812H129.054C129.177 187.812 129.277 187.712 129.277 187.588C129.277 187.464 129.177 187.364 129.054 187.364ZM126.524 187.364H125.259C125.136 187.364 125.036 187.464 125.036 187.588C125.036 187.712 125.136 187.812 125.259 187.812H126.524C126.647 187.812 126.747 187.712 126.747 187.588C126.747 187.464 126.647 187.364 126.524 187.364ZM123.994 187.364H122.73C122.606 187.364 122.507 187.464 122.507 187.588C122.507 187.712 122.606 187.812 122.73 187.812H123.994C124.117 187.812 124.217 187.712 124.217 187.588C124.217 187.464 124.117 187.364 123.994 187.364ZM121.465 187.364H120.2C120.077 187.364 119.977 187.464 119.977 187.588C119.977 187.712 120.077 187.812 120.2 187.812H121.465C121.588 187.812 121.688 187.712 121.688 187.588C121.688 187.464 121.588 187.364 121.465 187.364ZM118.935 187.364H117.67C117.547 187.364 117.447 187.464 117.447 187.588C117.447 187.712 117.547 187.812 117.67 187.812H118.935C119.058 187.812 119.158 187.712 119.158 187.588C119.158 187.464 119.058 187.364 118.935 187.364ZM116.405 187.364H115.14C115.017 187.364 114.917 187.464 114.917 187.588C114.917 187.712 115.017 187.812 115.14 187.812H116.405C116.528 187.812 116.628 187.712 116.628 187.588C116.628 187.464 116.528 187.364 116.405 187.364ZM113.875 187.364H112.61C112.487 187.364 112.388 187.464 112.388 187.588C112.388 187.712 112.487 187.812 112.61 187.812H113.875C113.998 187.812 114.098 187.712 114.098 187.588C114.098 187.464 113.998 187.364 113.875 187.364ZM111.346 187.364H110.081C109.958 187.364 109.858 187.464 109.858 187.588C109.858 187.712 109.958 187.812 110.081 187.812H111.346C111.469 187.812 111.568 187.712 111.568 187.588C111.568 187.464 111.469 187.364 111.346 187.364ZM108.816 187.364H107.551C107.428 187.364 107.328 187.464 107.328 187.588C107.328 187.712 107.428 187.812 107.551 187.812H108.816C108.939 187.812 109.039 187.712 109.039 187.588C109.039 187.464 108.939 187.364 108.816 187.364ZM106.286 187.364H105.021C104.898 187.364 104.798 187.464 104.798 187.588C104.798 187.712 104.898 187.812 105.021 187.812H106.286C106.409 187.812 106.509 187.712 106.509 187.588C106.509 187.464 106.409 187.364 106.286 187.364ZM103.756 187.364H102.491C102.368 187.364 102.268 187.464 102.268 187.588C102.268 187.712 102.368 187.812 102.491 187.812H103.756C103.879 187.812 103.979 187.712 103.979 187.588C103.979 187.464 103.879 187.364 103.756 187.364ZM101.226 187.364H99.9616C99.8385 187.364 99.7387 187.464 99.7387 187.588C99.7387 187.712 99.8385 187.812 99.9616 187.812H101.226C101.35 187.812 101.449 187.712 101.449 187.588C101.449 187.464 101.35 187.364 101.226 187.364ZM98.7355 187.318C98.3356 187.252 97.9588 187.119 97.6168 186.93C97.5089 186.87 97.3734 186.91 97.3141 187.018C97.2548 187.127 97.2945 187.263 97.4024 187.323C97.788 187.536 98.2134 187.687 98.6637 187.761C98.7854 187.781 98.8996 187.698 98.9196 187.575C98.9392 187.453 98.8568 187.337 98.7355 187.318ZM96.6895 186.188C96.426 185.893 96.2111 185.553 96.0577 185.181C96.0109 185.066 95.8802 185.012 95.7665 185.059C95.6529 185.107 95.5989 185.238 95.6462 185.353C95.8192 185.773 96.0608 186.156 96.3577 186.488C96.4398 186.581 96.5807 186.588 96.6725 186.505C96.7639 186.423 96.7715 186.281 96.6895 186.188ZM95.7964 184.018C95.7929 183.955 95.7911 183.89 95.7911 183.825V182.757C95.7911 182.633 95.6912 182.532 95.5681 182.532C95.4451 182.532 95.3452 182.633 95.3452 182.757V183.825C95.3452 183.898 95.347 183.971 95.351 184.043C95.3577 184.167 95.4625 184.261 95.5855 184.255C95.7086 184.248 95.8027 184.142 95.7964 184.018ZM95.7911 181.483V180.209C95.7911 180.085 95.6912 179.984 95.5681 179.984C95.4451 179.984 95.3452 180.085 95.3452 180.209V181.483C95.3452 181.607 95.4451 181.707 95.5681 181.707C95.6912 181.707 95.7911 181.607 95.7911 181.483ZM95.7911 178.935V177.661C95.7911 177.537 95.6912 177.436 95.5681 177.436C95.4451 177.436 95.3452 177.537 95.3452 177.661V178.935C95.3452 179.059 95.4451 179.159 95.5681 179.159C95.6912 179.159 95.7911 179.059 95.7911 178.935ZM95.7911 176.387V175.113C95.7911 174.989 95.6912 174.888 95.5681 174.888C95.4451 174.888 95.3452 174.989 95.3452 175.113V176.387C95.3452 176.511 95.4451 176.611 95.5681 176.611C95.6912 176.611 95.7911 176.511 95.7911 176.387ZM95.7911 173.839V172.565C95.7911 172.441 95.6912 172.34 95.5681 172.34C95.4451 172.34 95.3452 172.441 95.3452 172.565V173.839C95.3452 173.963 95.4451 174.063 95.5681 174.063C95.6912 174.063 95.7911 173.963 95.7911 173.839ZM95.7911 171.291V170.017C95.7911 169.893 95.6912 169.792 95.5681 169.792C95.4451 169.792 95.3452 169.893 95.3452 170.017V171.291C95.3452 171.415 95.4451 171.515 95.5681 171.515C95.6912 171.515 95.7911 171.415 95.7911 171.291ZM95.7911 168.743V167.469C95.7911 167.345 95.6912 167.244 95.5681 167.244C95.4451 167.244 95.3452 167.345 95.3452 167.469V168.743C95.3452 168.867 95.4451 168.967 95.5681 168.967C95.6912 168.967 95.7911 168.867 95.7911 168.743ZM95.7911 166.195V165.148C95.7911 165.076 95.7933 165.005 95.7973 164.935C95.8044 164.811 95.7108 164.704 95.5882 164.697C95.4651 164.69 95.3595 164.784 95.3523 164.908C95.3474 164.987 95.3452 165.067 95.3452 165.148V166.195C95.3452 166.319 95.4451 166.419 95.5681 166.419C95.6912 166.419 95.7911 166.319 95.7911 166.195ZM96.0657 163.774C96.2213 163.403 96.438 163.064 96.7033 162.769C96.7862 162.678 96.7795 162.535 96.6881 162.452C96.5972 162.369 96.4563 162.376 96.3734 162.467C96.0746 162.799 95.8303 163.181 95.6551 163.599C95.6069 163.713 95.6604 163.845 95.7737 163.893C95.8874 163.941 96.018 163.888 96.0657 163.774ZM97.6347 162.034C97.978 161.847 98.3556 161.716 98.7555 161.653C98.8773 161.633 98.9602 161.518 98.941 161.396C98.9223 161.274 98.8082 161.19 98.6864 161.209C98.2357 161.28 97.8095 161.428 97.4225 161.639C97.3146 161.698 97.274 161.834 97.3328 161.943C97.3912 162.052 97.5263 162.093 97.6347 162.034ZM99.9834 161.61H101.248C101.371 161.61 101.471 161.509 101.471 161.385C101.471 161.261 101.371 161.161 101.248 161.161H99.9834C99.8604 161.161 99.7605 161.261 99.7605 161.385C99.7605 161.509 99.8604 161.61 99.9834 161.61ZM102.513 161.61H103.778C103.901 161.61 104.001 161.509 104.001 161.385C104.001 161.261 103.901 161.161 103.778 161.161H102.513C102.39 161.161 102.29 161.261 102.29 161.385C102.29 161.509 102.39 161.61 102.513 161.61ZM105.043 161.61H106.308C106.431 161.61 106.531 161.509 106.531 161.385C106.531 161.261 106.431 161.161 106.308 161.161H105.043C104.92 161.161 104.82 161.261 104.82 161.385C104.82 161.509 104.92 161.61 105.043 161.61ZM107.573 161.61H108.838C108.961 161.61 109.061 161.509 109.061 161.385C109.061 161.261 108.961 161.161 108.838 161.161H107.573C107.45 161.161 107.35 161.261 107.35 161.385C107.35 161.509 107.45 161.61 107.573 161.61ZM110.103 161.61H111.367C111.49 161.61 111.59 161.509 111.59 161.385C111.59 161.261 111.49 161.161 111.367 161.161H110.103C109.979 161.161 109.88 161.261 109.88 161.385C109.88 161.509 109.979 161.61 110.103 161.61ZM112.632 161.61H113.897C114.02 161.61 114.12 161.509 114.12 161.385C114.12 161.261 114.02 161.161 113.897 161.161H112.632C112.509 161.161 112.409 161.261 112.409 161.385C112.409 161.509 112.509 161.61 112.632 161.61ZM115.162 161.61H116.427C116.55 161.61 116.65 161.509 116.65 161.385C116.65 161.261 116.55 161.161 116.427 161.161H115.162C115.039 161.161 114.939 161.261 114.939 161.385C114.939 161.509 115.039 161.61 115.162 161.61ZM117.692 161.61H118.957C119.08 161.61 119.18 161.509 119.18 161.385C119.18 161.261 119.08 161.161 118.957 161.161H117.692C117.569 161.161 117.469 161.261 117.469 161.385C117.469 161.509 117.569 161.61 117.692 161.61ZM120.222 161.61H121.486C121.61 161.61 121.709 161.509 121.709 161.385C121.709 161.261 121.61 161.161 121.486 161.161H120.222C120.099 161.161 119.999 161.261 119.999 161.385C119.999 161.509 120.099 161.61 120.222 161.61ZM122.751 161.61H124.016C124.139 161.61 124.239 161.509 124.239 161.385C124.239 161.261 124.139 161.161 124.016 161.161H122.751C122.628 161.161 122.528 161.261 122.528 161.385C122.528 161.509 122.628 161.61 122.751 161.61ZM125.281 161.61H126.546C126.669 161.61 126.769 161.509 126.769 161.385C126.769 161.261 126.669 161.161 126.546 161.161H125.281C125.158 161.161 125.058 161.261 125.058 161.385C125.058 161.509 125.158 161.61 125.281 161.61ZM127.811 161.61H129.076C129.199 161.61 129.299 161.509 129.299 161.385C129.299 161.261 129.199 161.161 129.076 161.161H127.811C127.688 161.161 127.588 161.261 127.588 161.385C127.588 161.509 127.688 161.61 127.811 161.61ZM130.341 161.61H131.606C131.729 161.61 131.829 161.509 131.829 161.385C131.829 161.261 131.729 161.161 131.606 161.161H130.341C130.218 161.161 130.118 161.261 130.118 161.385C130.118 161.509 130.218 161.61 130.341 161.61ZM132.87 161.61H134.135C134.258 161.61 134.358 161.509 134.358 161.385C134.358 161.261 134.258 161.161 134.135 161.161H132.87C132.747 161.161 132.648 161.261 132.648 161.385C132.648 161.509 132.747 161.61 132.87 161.61ZM135.4 161.61H136.665C136.788 161.61 136.888 161.509 136.888 161.385C136.888 161.261 136.788 161.161 136.665 161.161H135.4C135.277 161.161 135.177 161.261 135.177 161.385C135.177 161.509 135.277 161.61 135.4 161.61ZM137.93 161.61H139.195C139.318 161.61 139.418 161.509 139.418 161.385C139.418 161.261 139.318 161.161 139.195 161.161H137.93C137.807 161.161 137.707 161.261 137.707 161.385C137.707 161.509 137.807 161.61 137.93 161.61ZM140.46 161.61H141.725C141.848 161.61 141.948 161.509 141.948 161.385C141.948 161.261 141.848 161.161 141.725 161.161H140.46C140.337 161.161 140.237 161.261 140.237 161.385C140.237 161.509 140.337 161.61 140.46 161.61ZM142.99 161.61H144.254C144.378 161.61 144.477 161.509 144.477 161.385C144.477 161.261 144.378 161.161 144.254 161.161H142.99C142.867 161.161 142.767 161.261 142.767 161.385C142.767 161.509 142.867 161.61 142.99 161.61ZM145.519 161.61H146.784C146.907 161.61 147.007 161.509 147.007 161.385C147.007 161.261 146.907 161.161 146.784 161.161H145.519C145.396 161.161 145.296 161.261 145.296 161.385C145.296 161.509 145.396 161.61 145.519 161.61ZM148.049 161.61H149.314C149.437 161.61 149.537 161.509 149.537 161.385C149.537 161.261 149.437 161.161 149.314 161.161H148.049C147.926 161.161 147.826 161.261 147.826 161.385C147.826 161.509 147.926 161.61 148.049 161.61ZM150.579 161.61H151.842C151.965 161.61 152.066 161.511 152.067 161.387C152.067 161.262 151.968 161.161 151.845 161.161H151.822H150.579C150.456 161.161 150.356 161.261 150.356 161.385C150.356 161.509 150.456 161.61 150.579 161.61ZM153.008 161.816C153.386 161.953 153.733 162.152 154.038 162.403C154.134 162.481 154.275 162.467 154.352 162.371C154.43 162.275 154.415 162.133 154.32 162.054C153.976 161.773 153.584 161.547 153.159 161.394C153.043 161.352 152.915 161.413 152.874 161.53C152.832 161.646 152.892 161.775 153.008 161.816ZM154.818 163.3C155.023 163.636 155.173 164.009 155.258 164.406C155.283 164.527 155.402 164.605 155.522 164.579C155.642 164.553 155.719 164.434 155.694 164.312C155.599 163.864 155.429 163.443 155.198 163.065C155.134 162.959 154.996 162.926 154.892 162.991C154.787 163.056 154.754 163.194 154.818 163.3ZM155.335 165.627V166.901C155.335 167.025 155.435 167.126 155.558 167.126C155.681 167.126 155.781 167.025 155.781 166.901V165.627C155.781 165.503 155.681 165.403 155.558 165.403C155.435 165.403 155.335 165.503 155.335 165.627ZM155.335 168.175V169.449C155.335 169.573 155.435 169.674 155.558 169.674C155.681 169.674 155.781 169.573 155.781 169.449V168.175C155.781 168.051 155.681 167.951 155.558 167.951C155.435 167.951 155.335 168.051 155.335 168.175ZM155.335 170.723V171.997C155.335 172.121 155.435 172.222 155.558 172.222C155.681 172.222 155.781 172.121 155.781 171.997V170.723C155.781 170.599 155.681 170.499 155.558 170.499C155.435 170.499 155.335 170.599 155.335 170.723ZM155.335 173.271V174.545C155.335 174.669 155.435 174.77 155.558 174.77C155.681 174.77 155.781 174.669 155.781 174.545V173.271C155.781 173.147 155.681 173.047 155.558 173.047C155.435 173.047 155.335 173.147 155.335 173.271ZM155.335 175.819V177.093C155.335 177.217 155.435 177.318 155.558 177.318C155.681 177.318 155.781 177.217 155.781 177.093V175.819C155.781 175.695 155.681 175.595 155.558 175.595C155.435 175.595 155.335 175.695 155.335 175.819ZM155.335 178.367V179.641C155.335 179.765 155.435 179.866 155.558 179.866C155.681 179.866 155.781 179.765 155.781 179.641V178.367C155.781 178.243 155.681 178.143 155.558 178.143C155.435 178.143 155.335 178.243 155.335 178.367ZM155.335 180.915V182.189C155.335 182.313 155.435 182.414 155.558 182.414C155.681 182.414 155.781 182.313 155.781 182.189V180.915C155.781 180.791 155.681 180.69 155.558 180.69C155.435 180.69 155.335 180.791 155.335 180.915ZM155.335 183.463V183.825C155.335 184.118 155.3 184.402 155.233 184.674C155.204 184.795 155.277 184.916 155.396 184.946C155.516 184.975 155.637 184.902 155.666 184.781C155.741 184.475 155.781 184.155 155.781 183.825V183.463C155.781 183.339 155.681 183.238 155.558 183.238C155.435 183.238 155.335 183.339 155.335 183.463ZM154.76 185.766C154.541 186.101 154.268 186.396 153.953 186.639C153.855 186.714 153.836 186.855 153.911 186.954C153.986 187.052 154.125 187.071 154.223 186.996C154.578 186.722 154.886 186.39 155.132 186.013C155.2 185.909 155.171 185.77 155.068 185.702C154.966 185.634 154.827 185.663 154.76 185.766ZM152.904 187.192C152.564 187.303 152.2 187.364 151.822 187.364H150.557C150.434 187.364 150.334 187.464 150.334 187.588C150.334 187.712 150.434 187.812 150.557 187.812H151.822C152.247 187.812 152.657 187.745 153.042 187.619C153.159 187.581 153.223 187.455 153.185 187.337C153.147 187.219 153.022 187.154 152.904 187.192Z" fill="#5B87CD"/>
<path d="M146.576 123.553H145.311C145.188 123.553 145.088 123.653 145.088 123.776C145.088 123.9 145.188 124 145.311 124H146.576C146.699 124 146.799 123.9 146.799 123.776C146.799 123.653 146.699 123.553 146.576 123.553ZM144.045 123.553H142.779C142.656 123.553 142.556 123.653 142.556 123.776C142.556 123.9 142.656 124 142.779 124H144.045C144.168 124 144.268 123.9 144.268 123.776C144.268 123.653 144.168 123.553 144.045 123.553ZM141.514 123.553H140.248C140.125 123.553 140.025 123.653 140.025 123.776C140.025 123.9 140.125 124 140.248 124H141.514C141.637 124 141.737 123.9 141.737 123.776C141.737 123.653 141.637 123.553 141.514 123.553ZM138.982 123.553H137.717C137.594 123.553 137.494 123.653 137.494 123.776C137.494 123.9 137.594 124 137.717 124H138.982C139.106 124 139.206 123.9 139.206 123.776C139.206 123.653 139.106 123.553 138.982 123.553ZM136.451 123.553H135.186C135.062 123.553 134.962 123.653 134.962 123.776C134.962 123.9 135.062 124 135.186 124H136.451C136.574 124 136.674 123.9 136.674 123.776C136.674 123.653 136.574 123.553 136.451 123.553ZM133.92 123.553H132.654C132.531 123.553 132.431 123.653 132.431 123.776C132.431 123.9 132.531 124 132.654 124H133.92C134.043 124 134.143 123.9 134.143 123.776C134.143 123.653 134.043 123.553 133.92 123.553ZM131.389 123.553H130.123C130 123.553 129.9 123.653 129.9 123.776C129.9 123.9 130 124 130.123 124H131.389C131.512 124 131.612 123.9 131.612 123.776C131.612 123.653 131.512 123.553 131.389 123.553ZM128.857 123.553H127.592C127.469 123.553 127.369 123.653 127.369 123.776C127.369 123.9 127.469 124 127.592 124H128.857C128.98 124 129.08 123.9 129.08 123.776C129.08 123.653 128.98 123.553 128.857 123.553ZM126.326 123.553H125.06C124.937 123.553 124.837 123.653 124.837 123.776C124.837 123.9 124.937 124 125.06 124H126.326C126.449 124 126.549 123.9 126.549 123.776C126.549 123.653 126.449 123.553 126.326 123.553ZM123.795 123.553H123.04C122.88 123.553 122.725 123.538 122.574 123.509C122.453 123.486 122.336 123.566 122.313 123.687C122.29 123.808 122.369 123.925 122.491 123.949C122.668 123.983 122.852 124 123.04 124H123.795C123.918 124 124.018 123.9 124.018 123.776C124.018 123.653 123.918 123.553 123.795 123.553ZM121.526 123.035C121.221 122.797 120.972 122.49 120.804 122.137C120.751 122.025 120.618 121.978 120.507 122.031C120.396 122.084 120.349 122.217 120.402 122.329C120.6 122.746 120.893 123.108 121.253 123.388C121.351 123.464 121.491 123.446 121.566 123.348C121.641 123.251 121.624 123.11 121.526 123.035ZM120.566 121.003V119.734C120.566 119.611 120.466 119.511 120.343 119.511C120.22 119.511 120.12 119.611 120.12 119.734V121.003C120.12 121.127 120.22 121.227 120.343 121.227C120.466 121.227 120.566 121.127 120.566 121.003ZM120.566 118.466V117.197C120.566 117.074 120.466 116.973 120.343 116.973C120.22 116.973 120.12 117.074 120.12 117.197V118.466C120.12 118.589 120.22 118.689 120.343 118.689C120.466 118.689 120.566 118.589 120.566 118.466ZM120.566 115.928V114.659C120.566 114.536 120.466 114.436 120.343 114.436C120.22 114.436 120.12 114.536 120.12 114.659V115.928C120.12 116.052 120.22 116.152 120.343 116.152C120.466 116.152 120.566 116.052 120.566 115.928ZM120.566 113.391V112.122C120.566 111.999 120.466 111.898 120.343 111.898C120.22 111.898 120.12 111.999 120.12 112.122V113.391C120.12 113.514 120.22 113.614 120.343 113.614C120.466 113.614 120.566 113.514 120.566 113.391ZM120.566 110.853V109.584C120.566 109.461 120.466 109.361 120.343 109.361C120.22 109.361 120.12 109.461 120.12 109.584V110.853C120.12 110.977 120.22 111.077 120.343 111.077C120.466 111.077 120.566 110.977 120.566 110.853ZM120.566 108.316V108.158C120.566 107.805 120.639 107.471 120.771 107.168C120.821 107.054 120.769 106.923 120.656 106.873C120.543 106.824 120.412 106.875 120.362 106.989C120.207 107.347 120.12 107.743 120.12 108.158V108.316C120.12 108.439 120.22 108.539 120.343 108.539C120.466 108.539 120.566 108.439 120.566 108.316ZM121.464 106.246C121.759 106.002 122.11 105.825 122.496 105.739C122.616 105.712 122.692 105.592 122.665 105.471C122.638 105.351 122.518 105.275 122.398 105.302C121.943 105.405 121.527 105.614 121.18 105.902C121.085 105.981 121.071 106.122 121.15 106.217C121.228 106.312 121.369 106.326 121.464 106.246ZM123.708 105.678H124.973C125.097 105.678 125.197 105.579 125.197 105.455C125.197 105.331 125.097 105.231 124.973 105.231H123.708C123.585 105.231 123.485 105.331 123.485 105.455C123.485 105.579 123.585 105.678 123.708 105.678ZM126.239 105.678H127.505C127.628 105.678 127.728 105.579 127.728 105.455C127.728 105.331 127.628 105.231 127.505 105.231H126.239C126.116 105.231 126.016 105.331 126.016 105.455C126.016 105.579 126.116 105.678 126.239 105.678ZM128.77 105.678H130.036C130.159 105.678 130.259 105.579 130.259 105.455C130.259 105.331 130.159 105.231 130.036 105.231H128.77C128.647 105.231 128.547 105.331 128.547 105.455C128.547 105.579 128.647 105.678 128.77 105.678ZM131.302 105.678H132.567C132.69 105.678 132.79 105.579 132.79 105.455C132.79 105.331 132.69 105.231 132.567 105.231H131.302C131.179 105.231 131.079 105.331 131.079 105.455C131.079 105.579 131.179 105.678 131.302 105.678ZM133.833 105.678H135.099C135.222 105.678 135.322 105.579 135.322 105.455C135.322 105.331 135.222 105.231 135.099 105.231H133.833C133.71 105.231 133.61 105.331 133.61 105.455C133.61 105.579 133.71 105.678 133.833 105.678ZM136.364 105.678H137.63C137.753 105.678 137.853 105.579 137.853 105.455C137.853 105.331 137.753 105.231 137.63 105.231H136.364C136.241 105.231 136.141 105.331 136.141 105.455C136.141 105.579 136.241 105.678 136.364 105.678ZM138.895 105.678H140.161C140.284 105.678 140.384 105.579 140.384 105.455C140.384 105.331 140.284 105.231 140.161 105.231H138.895C138.772 105.231 138.672 105.331 138.672 105.455C138.672 105.579 138.772 105.678 138.895 105.678ZM141.427 105.678H142.692C142.816 105.678 142.915 105.579 142.915 105.455C142.915 105.331 142.816 105.231 142.692 105.231H141.427C141.304 105.231 141.204 105.331 141.204 105.455C141.204 105.579 141.304 105.678 141.427 105.678ZM143.958 105.678H145.224C145.347 105.678 145.447 105.579 145.447 105.455C145.447 105.331 145.347 105.231 145.224 105.231H143.958C143.835 105.231 143.735 105.331 143.735 105.455C143.735 105.579 143.835 105.678 143.958 105.678ZM146.489 105.678H147.755C147.878 105.678 147.978 105.579 147.978 105.455C147.978 105.331 147.878 105.231 147.755 105.231H146.489C146.366 105.231 146.266 105.331 146.266 105.455C146.266 105.579 146.366 105.678 146.489 105.678ZM149.021 105.678H149.108C149.482 105.678 149.837 105.762 150.154 105.911C150.266 105.963 150.399 105.915 150.451 105.803C150.503 105.691 150.455 105.558 150.343 105.506C149.968 105.33 149.549 105.231 149.108 105.231H149.021C148.897 105.231 148.798 105.331 148.798 105.455C148.798 105.579 148.897 105.678 149.021 105.678ZM151.055 106.629C151.29 106.93 151.458 107.287 151.534 107.677C151.558 107.798 151.675 107.877 151.796 107.853C151.917 107.829 151.996 107.711 151.972 107.59C151.882 107.13 151.683 106.708 151.406 106.353C151.33 106.256 151.19 106.239 151.092 106.315C150.996 106.391 150.979 106.532 151.055 106.629ZM151.581 108.898V110.167C151.581 110.291 151.681 110.391 151.804 110.391C151.927 110.391 152.027 110.291 152.027 110.167V108.898C152.027 108.775 151.927 108.675 151.804 108.675C151.681 108.675 151.581 108.775 151.581 108.898ZM151.581 111.436V112.705C151.581 112.828 151.681 112.928 151.804 112.928C151.927 112.928 152.027 112.828 152.027 112.705V111.436C152.027 111.312 151.927 111.212 151.804 111.212C151.681 111.212 151.581 111.312 151.581 111.436ZM151.581 113.973V115.242C151.581 115.366 151.681 115.466 151.804 115.466C151.927 115.466 152.027 115.366 152.027 115.242V113.973C152.027 113.85 151.927 113.75 151.804 113.75C151.681 113.75 151.581 113.85 151.581 113.973ZM151.581 116.511V117.78C151.581 117.903 151.681 118.003 151.804 118.003C151.927 118.003 152.027 117.903 152.027 117.78V116.511C152.027 116.387 151.927 116.287 151.804 116.287C151.681 116.287 151.581 116.387 151.581 116.511ZM151.581 119.048V120.317C151.581 120.441 151.681 120.541 151.804 120.541C151.927 120.541 152.027 120.441 152.027 120.317V119.048C152.027 118.925 151.927 118.825 151.804 118.825C151.681 118.825 151.581 118.925 151.581 119.048ZM151.537 121.541C151.463 121.931 151.297 122.289 151.063 122.591C150.988 122.689 151.006 122.829 151.103 122.905C151.2 122.98 151.34 122.963 151.416 122.865C151.692 122.509 151.887 122.086 151.975 121.625C151.998 121.504 151.919 121.386 151.798 121.363C151.677 121.34 151.56 121.42 151.537 121.541ZM150.167 123.314C149.846 123.467 149.488 123.553 149.108 123.553H147.842C147.719 123.553 147.619 123.653 147.619 123.776C147.619 123.9 147.719 124 147.842 124H149.108C149.555 124 149.979 123.899 150.359 123.718C150.47 123.665 150.517 123.532 150.465 123.42C150.412 123.309 150.279 123.261 150.167 123.314Z" fill="#5B87CD"/>
<path d="M154.811 157.031H100.819C99.04 157.031 97.5977 155.604 97.5977 153.844V131.315C97.5977 129.554 99.04 128.127 100.819 128.127H154.811C156.591 128.127 158.033 129.554 158.033 131.315V153.844C158.033 155.604 156.591 157.031 154.811 157.031Z" fill="#425AAA"/>
<path d="M155.405 128.726V151.562C155.405 153.342 153.968 154.781 152.196 154.781H98.5547C96.7825 154.781 95.3452 153.342 95.3452 151.562V128.726C95.3452 126.946 96.7825 125.502 98.5547 125.502H152.196C153.968 125.502 155.405 126.946 155.405 128.726Z" fill="#7288CD"/>
<path d="M116.1 152.527H100.491C99.3075 152.527 98.3481 151.55 98.3481 150.344V134.441C98.3481 133.235 99.3075 132.257 100.491 132.257H116.1C117.284 132.257 118.243 133.235 118.243 134.441V150.344C118.243 151.55 117.284 152.527 116.1 152.527Z" fill="white"/>
<path d="M134.837 134.887H121.169C120.797 134.887 120.496 134.551 120.496 134.136C120.496 133.722 120.797 133.385 121.169 133.385H134.837C135.209 133.385 135.511 133.722 135.511 134.136C135.511 134.551 135.209 134.887 134.837 134.887Z" fill="#A5B8E4"/>
<path d="M128.468 137.516H121.157C120.792 137.516 120.496 137.179 120.496 136.765C120.496 136.35 120.792 136.014 121.157 136.014H128.468C128.833 136.014 129.129 136.35 129.129 136.765C129.129 137.179 128.833 137.516 128.468 137.516Z" fill="#A5B8E4"/>
<path d="M151.72 137.516H131.313C130.936 137.516 130.63 137.179 130.63 136.765C130.63 136.35 130.936 136.014 131.313 136.014H151.72C152.097 136.014 152.402 136.35 152.402 136.765C152.402 137.179 152.097 137.516 151.72 137.516Z" fill="#A5B8E4"/>
<path d="M132.59 140.141H121.164C120.795 140.141 120.496 139.889 120.496 139.578C120.496 139.266 120.795 139.014 121.164 139.014H132.59C132.959 139.014 133.258 139.266 133.258 139.578C133.258 139.889 132.959 140.141 132.59 140.141Z" fill="#A5B8E4"/>
<path d="M142.716 140.141H135.437C135.063 140.141 134.76 139.889 134.76 139.578C134.76 139.266 135.063 139.014 135.437 139.014H142.716C143.09 139.014 143.393 139.266 143.393 139.578C143.393 139.889 143.09 140.141 142.716 140.141Z" fill="#A5B8E4"/>
<path d="M151.74 140.141H145.182C144.816 140.141 144.52 139.889 144.52 139.578C144.52 139.266 144.816 139.014 145.182 139.014H151.74C152.106 139.014 152.402 139.266 152.402 139.578C152.402 139.889 152.106 140.141 151.74 140.141Z" fill="#A5B8E4"/>
<path d="M151.724 143.145H121.174C120.799 143.145 120.496 142.809 120.496 142.394C120.496 141.979 120.799 141.643 121.174 141.643H151.724C152.099 141.643 152.403 141.979 152.403 142.394C152.403 142.809 152.099 143.145 151.724 143.145Z" fill="#A5B8E4"/>
<path d="M137.841 145.773H121.168C120.797 145.773 120.496 145.437 120.496 145.023C120.496 144.608 120.797 144.272 121.168 144.272H137.841C138.212 144.272 138.514 144.608 138.514 145.023C138.514 145.437 138.212 145.773 137.841 145.773Z" fill="#A5B8E4"/>
<path d="M151.724 145.773H140.694C140.319 145.773 140.015 145.437 140.015 145.023C140.015 144.608 140.319 144.272 140.694 144.272H151.724C152.099 144.272 152.403 144.608 152.403 145.023C152.403 145.437 152.099 145.773 151.724 145.773Z" fill="#A5B8E4"/>
<path d="M131.077 148.398H121.175C120.8 148.398 120.496 148.146 120.496 147.835C120.496 147.524 120.8 147.272 121.175 147.272H131.077C131.453 147.272 131.757 147.524 131.757 147.835C131.757 148.146 131.453 148.398 131.077 148.398Z" fill="#A5B8E4"/>
<path d="M143.817 148.398H133.585C133.197 148.398 132.883 148.146 132.883 147.835C132.883 147.524 133.197 147.272 133.585 147.272H143.817C144.205 147.272 144.519 147.524 144.519 147.835C144.519 148.146 144.205 148.398 143.817 148.398Z" fill="#A5B8E4"/>
<path d="M151.72 148.398H145.953C145.576 148.398 145.271 148.146 145.271 147.835C145.271 147.524 145.576 147.272 145.953 147.272H151.72C152.097 147.272 152.403 147.524 152.403 147.835C152.403 148.146 152.097 148.398 151.72 148.398Z" fill="#A5B8E4"/>
<path d="M134.837 151.027H121.169C120.797 151.027 120.496 150.775 120.496 150.464C120.496 150.153 120.797 149.901 121.169 149.901H134.837C135.209 149.901 135.511 150.153 135.511 150.464C135.511 150.775 135.209 151.027 134.837 151.027Z" fill="#A5B8E4"/>
<path d="M151.73 134.887H138.061C137.689 134.887 137.388 134.551 137.388 134.136C137.388 133.722 137.689 133.385 138.061 133.385H151.73C152.101 133.385 152.403 133.722 152.403 134.136C152.403 134.551 152.101 134.887 151.73 134.887Z" fill="#A5B8E4"/>
<path d="M155.405 128.682V129.629H95.3452V128.682C95.3452 126.925 96.7825 125.5 98.5547 125.5H152.196C153.968 125.5 155.405 126.925 155.405 128.682Z" fill="#3558B0"/>
<path d="M144.144 127.753C144.144 128.168 143.808 128.504 143.393 128.504C142.979 128.504 142.643 128.168 142.643 127.753C142.643 127.338 142.979 127.002 143.393 127.002C143.808 127.002 144.144 127.338 144.144 127.753Z" fill="#D7DCF2"/>
<path d="M147.898 127.753C147.898 128.168 147.562 128.504 147.147 128.504C146.733 128.504 146.396 128.168 146.396 127.753C146.396 127.338 146.733 127.002 147.147 127.002C147.562 127.002 147.898 127.338 147.898 127.753Z" fill="#D7DCF2"/>
<path d="M151.652 127.753C151.652 128.168 151.315 128.504 150.901 128.504C150.486 128.504 150.15 128.168 150.15 127.753C150.15 127.338 150.486 127.002 150.901 127.002C151.315 127.002 151.652 127.338 151.652 127.753Z" fill="#D7DCF2"/>
<path d="M114.083 123.428V123.231H102.133C101.302 123.231 100.551 122.902 100.007 122.368C99.4618 121.834 99.1257 121.098 99.1252 120.284V108.573C99.1257 107.758 99.4618 107.023 100.007 106.489C100.551 105.955 101.302 105.626 102.133 105.625H114.083C114.914 105.626 115.665 105.955 116.209 106.489C116.754 107.023 117.09 107.758 117.09 108.573V120.284C117.09 121.098 116.754 121.834 116.209 122.368C115.665 122.902 114.914 123.231 114.083 123.231V123.428V123.625C115.966 123.625 117.492 122.129 117.492 120.284V108.573C117.492 106.728 115.966 105.232 114.083 105.232H102.133C100.25 105.232 98.7236 106.728 98.7236 108.573V120.284C98.7236 122.129 100.25 123.625 102.133 123.625H114.083V123.428Z" fill="#4259B1"/>
<path d="M104.827 111.72L102.211 114.341C102.066 114.486 102.066 114.721 102.211 114.867L104.848 117.508C104.992 117.654 105.227 117.654 105.372 117.508C105.517 117.363 105.517 117.128 105.372 116.983L102.997 114.604L105.351 112.246C105.496 112.1 105.496 111.865 105.351 111.72C105.206 111.575 104.972 111.575 104.827 111.72Z" fill="#4259B1"/>
<path d="M110.865 112.246L113.219 114.604L110.844 116.983C110.7 117.128 110.7 117.363 110.844 117.508C110.989 117.654 111.224 117.654 111.369 117.508L114.006 114.867C114.075 114.797 114.114 114.702 114.114 114.604C114.114 114.506 114.075 114.41 114.006 114.341L111.39 111.72C111.245 111.575 111.01 111.575 110.865 111.72C110.72 111.865 110.72 112.1 110.865 112.246Z" fill="#4259B1"/>
<path d="M108.944 111.826L106.639 117.089C106.558 117.274 106.633 117.495 106.808 117.582C106.983 117.669 107.19 117.589 107.272 117.402L109.577 112.14C109.658 111.954 109.583 111.733 109.408 111.646C109.233 111.559 109.026 111.64 108.944 111.826Z" fill="#4259B1"/>
<path d="M155.405 60.819V97.8398C155.405 99.8494 153.772 101.477 151.754 101.477H98.9966C96.9834 101.477 95.3452 99.8494 95.3452 97.8398V60.819C95.3452 58.8095 96.9834 57.1823 98.9966 57.1823H151.754C153.772 57.1823 155.405 58.8095 155.405 60.819Z" fill="#A5B8E4"/>
<path d="M152.027 68.8195C152.027 73.5879 148.162 77.4531 143.393 77.4531C138.625 77.4531 134.76 73.5879 134.76 68.8195C134.76 64.0511 138.625 60.1859 143.393 60.1859C148.162 60.1859 152.027 64.0511 152.027 68.8195Z" fill="#EBF1FA"/>
<path d="M130.717 101.477H99.0036C96.9866 101.477 95.3452 99.856 95.3452 97.8546V92.0498L109.223 68.2506C109.948 67.0063 111.763 67.0063 112.488 68.2506L122.967 86.2185L130.749 99.5638C131.124 100.201 131.066 100.928 130.717 101.477Z" fill="white"/>
<path d="M144.52 101.477H114.114L123.037 86.169L127.844 77.92C128.499 76.7962 130.135 76.7962 130.79 77.92L144.52 101.477Z" fill="#EBF1FA"/>
<path d="M204.579 205.457H180.931V170.547H204.579V205.457Z" fill="#3950AA"/>
<path d="M204.58 205.457H213.213V170.547H204.58V205.457Z" fill="#4259B1"/>
<path d="M212.087 173.176H205.706V172.05H212.087V173.176Z" fill="#A5B8E4"/>
<path d="M212.087 175.426H205.706V174.3H212.087V175.426Z" fill="#A5B8E4"/>
<path d="M212.087 177.68H205.706V176.554H212.087V177.68Z" fill="#A5B8E4"/>
<path d="M212.087 180.309H205.706V179.182H212.087V180.309Z" fill="#A5B8E4"/>
<path d="M212.087 182.559H205.706V181.433H212.087V182.559Z" fill="#A5B8E4"/>
<path d="M212.087 185.188H205.706V184.061H212.087V185.188Z" fill="#A5B8E4"/>
<path d="M212.087 187.438H205.706V186.311H212.087V187.438Z" fill="#A5B8E4"/>
<path d="M212.087 189.691H205.706V188.565H212.087V189.691Z" fill="#A5B8E4"/>
<path d="M212.087 192.32H205.706V191.194H212.087V192.32Z" fill="#A5B8E4"/>
<path d="M212.087 194.57H205.706V193.444H212.087V194.57Z" fill="#A5B8E4"/>
<path d="M212.087 197.199H205.706V196.073H212.087V197.199Z" fill="#A5B8E4"/>
<path d="M212.087 199.449H205.706V198.323H212.087V199.449Z" fill="#A5B8E4"/>
<path d="M212.087 201.703H205.706V200.577H212.087V201.703Z" fill="#A5B8E4"/>
<path d="M212.087 204.332H205.706V203.206H212.087V204.332Z" fill="#A5B8E4"/>
<path d="M177.193 205.457H189.037C189.037 205.457 189.698 203.445 188.264 200.953C188.264 200.953 187.311 201.682 184.455 201.188C184.455 201.188 183.263 202.154 182.441 202.532C181.613 202.913 176.873 203.801 177.193 205.457Z" fill="#1F0D10"/>
<path d="M178.197 172.19C178.962 176.743 182.489 192.145 184.006 201.244C186.777 201.48 188.108 201.162 188.814 201C188.675 197.827 188.402 190.238 188.434 186.91C188.487 181.285 188.751 173.867 186.27 169.797L177.928 170.452C177.979 170.891 178.025 171.249 178.065 171.504C178.105 171.75 178.151 171.976 178.197 172.19Z" fill="#192C4A"/>
<path d="M155.796 205.457H167.64C167.64 205.457 168.302 203.445 166.868 200.953C166.868 200.953 165.914 201.682 163.059 201.188C163.059 201.188 161.867 202.154 161.044 202.532C160.217 202.913 155.477 203.801 155.796 205.457Z" fill="#1F0D10"/>
<path d="M162.913 200.86C165.101 201.414 166.686 201.36 167.437 201.274C168.046 197.641 169.008 189.648 169.873 185.901C171.217 180.078 172.532 172.069 171.618 169.212L163.677 167.169C163.651 167.426 163.004 191.937 162.913 200.86Z" fill="#0D1F2B"/>
<path d="M195.565 158.729C195.4 157.099 195.21 155.909 195.21 155.909L186.039 158.164L178.248 159.947C175.36 160.593 171.871 161.371 168.795 162.07C165.343 162.858 163.052 165.492 163.808 168.964L164.673 173.176C169.501 173.11 192.198 170.923 194.14 169.939C196.333 168.826 196.993 164.891 195.565 158.729Z" fill="#0D1F2B"/>
<path d="M209.088 158.573C208.923 156.925 208.132 155.158 208.132 155.158L199.559 158.002L191.766 159.804C188.877 160.457 185.387 161.244 182.31 161.95C178.858 162.746 176.566 165.409 177.322 168.919L178.187 173.176C183.016 173.109 203.2 172.395 207.662 169.904C209.816 168.701 210.517 164.802 209.088 158.573Z" fill="#192C4A"/>
<path d="M183.398 145.466C183.398 145.466 187.432 143.617 188.542 145.472C189.15 146.487 188.73 148.373 187.354 149.165C185.978 149.957 178.203 153.295 170.864 155.156C170.864 155.156 170.55 154.12 170.045 153.031C170.045 153.031 173.337 151.645 176.61 149.312C179.883 146.979 183.398 145.466 183.398 145.466Z" fill="#F57787"/>
<path d="M184.526 132.632L180.931 146.834C180.931 146.834 181.302 150.424 184.969 148.662C188.636 146.899 191.066 135.585 191.066 135.585L184.526 132.632Z" fill="#F57787"/>
<path d="M190.315 140.516C189.884 140.412 189.472 140.298 189.075 140.179C188.668 140.06 188.281 139.937 187.913 139.808C184.599 138.675 182.808 137.315 182.808 137.315C183.85 132.798 185.105 129.766 186.221 127.768C186.251 127.718 186.281 127.673 186.306 127.619C186.336 127.57 186.365 127.52 186.395 127.471C186.996 126.476 187.859 125.64 188.822 124.953C188.921 124.883 189.015 124.819 189.114 124.75L189.526 132.002L189.596 132.749L190.315 140.516Z" fill="white"/>
<path d="M190.315 140.516C189.911 140.412 189.524 140.298 189.152 140.18C188.77 140.062 188.407 139.939 188.063 139.81C188.716 134.941 189.306 131.882 189.306 131.882L189.64 132.775L190.315 140.516Z" fill="#B1E5ED"/>
<path d="M210.961 128.103C210.876 130.257 210.5 133.716 210.173 137.191C210.069 138.293 209.969 139.4 209.885 140.467C209.826 141.133 208.825 144.682 208.785 145.317C208.606 148.355 207.119 150.628 208.527 155.255C208.864 156.361 208.948 156.932 208.948 157.389C208.948 157.707 208.537 158.039 208.373 158.129C207.783 158.471 206.624 158.709 205.216 158.883H205.211C202.44 159.221 198.703 159.285 196.447 159.285C193.418 159.285 188.873 158.804 188.298 158.039C187.772 157.34 188.258 156.322 188.506 154.917C189.621 148.578 189.225 145.273 189.155 140.696C189.155 140.582 189.15 140.467 189.15 140.348C189.036 133.29 188.57 127.249 188.898 125.07C188.997 125 189.091 124.936 189.19 124.866C189.671 124.539 190.142 124.246 190.598 123.988C190.637 123.968 190.687 123.938 190.737 123.908C190.875 123.829 191.019 123.754 191.153 123.68C191.203 123.65 191.257 123.625 191.312 123.6C192.338 123.099 193.835 122.563 194.692 122.265C194.801 122.23 194.9 122.196 194.985 122.171C195.793 122.121 196.67 122.111 197.617 122.136C198.44 122.161 199.699 122.27 201.067 122.449H201.072C202.618 122.647 204.308 122.94 205.652 123.307L205.677 123.318C205.93 123.397 207.57 124.012 209.28 125.844C209.85 126.45 210.435 127.194 210.961 128.103Z" fill="white"/>
<path d="M208.559 155.261C208.897 156.374 208.981 156.949 208.981 157.408C208.981 157.727 208.569 158.062 208.405 158.152C207.812 158.496 206.649 158.735 205.236 158.91C205.818 158.84 206.822 157.914 206.823 157.079C206.823 156.493 206.067 152.541 206.276 149.99C206.485 147.444 206.897 143.391 206.111 140.146C205.321 136.902 204.58 132.634 204.58 132.634L209.011 135.319C209.011 135.319 209.584 136.123 210.21 137.096C210.106 138.204 210.006 139.318 209.921 140.391C209.862 141.06 207.146 150.609 208.559 155.261Z" fill="#B1E5ED"/>
<path d="M189.189 109.358C189.189 109.358 189.558 113.9 191.037 114.206C192.516 114.51 192.153 112.581 192.153 112.581L191.946 110.424L189.189 109.358Z" fill="#192C4A"/>
<path d="M196.087 126.189C193.086 125.832 194.207 122.918 194.618 122.248C194.727 122.213 195.243 122.055 195.283 122.03L195.293 122.025C195.392 121.946 195.467 121.827 195.526 121.678C195.819 120.909 195.685 119.378 195.675 119.279V119.274V118.996C195.724 118.812 195.774 118.639 195.814 118.476L197.392 117.236L200.73 114.613C200.73 114.613 199.842 119.001 200.556 121.767C200.611 121.975 200.72 122.268 200.998 122.432H201.002C201.092 122.491 201.201 122.531 201.335 122.551C202.154 122.937 201.013 126.774 196.087 126.189Z" fill="#F57787"/>
<path d="M198.949 117.242C198.949 117.242 198.92 120.07 195.571 121.371C195.882 120.633 195.739 119.152 195.729 119.057L197.132 118.047L198.949 117.242Z" fill="#EC4E5E"/>
<path d="M189.94 109.823C189.94 109.823 190.622 119.422 193.168 120.238C193.168 120.238 196.412 120.549 198.741 117.359C199.413 116.44 200.26 116.234 200.537 115.124C200.987 113.322 201.622 109.997 200.812 107.994C199.659 105.14 190.049 102.875 189.94 109.823Z" fill="#F57787"/>
<path d="M201.008 106.588C200.965 104.847 199.181 104.197 199.181 104.197C197.405 103.376 193.713 103.73 189.908 104.568C189.522 104.653 189.093 104.601 188.681 104.548C188.14 104.478 187.626 104.409 187.273 104.651C186.519 105.167 187.269 107.524 187.269 107.524C188.737 111.914 194.139 110.487 195.762 109.945C196.148 111.075 196.099 112.647 197.061 113.457C197.61 113.919 198.563 113.932 199.532 113.773C199.651 113.997 200.099 114.194 200.19 114.502C200.495 115.528 200.452 117.132 200.442 118.371L200.9 118.15C200.96 117.815 205.698 106.732 201.008 106.588Z" fill="#192C4A"/>
<path d="M192.444 113.308L192.346 113.326C192.361 113.421 192.369 113.516 192.369 113.608C192.369 113.908 192.291 114.183 192.162 114.388C192.032 114.594 191.854 114.729 191.644 114.768C191.605 114.775 191.565 114.779 191.526 114.779C191.087 114.783 190.642 114.32 190.537 113.656C190.522 113.56 190.515 113.465 190.515 113.373C190.514 113.073 190.592 112.799 190.721 112.593C190.851 112.388 191.03 112.252 191.239 112.214C191.279 112.206 191.318 112.203 191.357 112.203C191.796 112.199 192.242 112.662 192.346 113.326L192.444 113.308L192.543 113.29C192.425 112.55 191.928 111.993 191.357 111.989C191.307 111.989 191.256 111.993 191.206 112.003C190.935 112.052 190.71 112.229 190.556 112.474C190.402 112.719 190.315 113.034 190.315 113.373C190.315 113.477 190.323 113.584 190.34 113.692C190.459 114.431 190.955 114.988 191.526 114.992C191.576 114.993 191.627 114.988 191.677 114.979C191.948 114.929 192.173 114.752 192.327 114.507C192.481 114.262 192.568 113.947 192.568 113.608C192.568 113.504 192.56 113.397 192.543 113.29L192.444 113.308Z" fill="white"/>
<path d="M195.802 112.554L195.688 112.572C195.705 112.668 195.714 112.762 195.714 112.855C195.714 113.154 195.624 113.428 195.472 113.634C195.321 113.839 195.113 113.975 194.868 114.014C194.822 114.021 194.776 114.025 194.731 114.025C194.218 114.029 193.699 113.566 193.577 112.902C193.56 112.806 193.551 112.712 193.551 112.619C193.551 112.319 193.641 112.045 193.792 111.84C193.944 111.634 194.151 111.498 194.396 111.46C194.442 111.452 194.488 111.449 194.534 111.449C195.046 111.445 195.565 111.908 195.688 112.572L195.802 112.554L195.916 112.536C195.779 111.797 195.2 111.24 194.534 111.235C194.475 111.235 194.416 111.24 194.357 111.249C194.042 111.298 193.779 111.475 193.599 111.72C193.419 111.966 193.319 112.28 193.318 112.619C193.318 112.724 193.328 112.83 193.348 112.938C193.485 113.677 194.064 114.234 194.731 114.238C194.789 114.238 194.849 114.234 194.907 114.225C195.223 114.176 195.485 113.998 195.665 113.754C195.845 113.508 195.946 113.194 195.946 112.855C195.946 112.75 195.936 112.644 195.916 112.536L195.802 112.554Z" fill="white"/>
<path d="M192.716 113.107L192.685 113.081L192.713 113.113L192.716 113.107L192.685 113.081L192.713 113.113C192.715 113.111 192.79 112.981 193.124 112.979C193.177 112.979 193.237 112.983 193.304 112.991L193.319 112.75C193.247 112.742 193.182 112.738 193.124 112.738C192.706 112.735 192.584 112.94 192.568 112.981L192.716 113.107Z" fill="white"/>
<path d="M195.61 112.738L198.574 112.49L198.535 112.363L195.571 112.611" fill="white"/>
<path d="M198.631 115.667C200.579 116.376 201.187 111.824 199.338 111.622C197.935 111.469 197.878 113.327 197.878 113.327C197.878 113.327 197.519 115.263 198.631 115.667Z" fill="#F57787"/>
<path d="M198.949 114.613C198.949 114.613 198.923 114.582 198.886 114.523C198.853 114.462 198.786 114.381 198.741 114.269C198.691 114.159 198.639 114.026 198.611 113.874C198.576 113.724 198.566 113.556 198.579 113.388C198.595 113.22 198.639 113.053 198.71 112.909C198.778 112.764 198.875 112.647 198.967 112.562C199.158 112.393 199.324 112.361 199.324 112.361C199.324 112.361 199.21 112.479 199.105 112.673C199.001 112.863 198.909 113.121 198.889 113.398C198.811 113.462 198.745 113.536 198.7 113.602C198.628 113.7 198.593 113.774 198.593 113.774L198.884 113.878C198.89 114.002 198.904 114.117 198.913 114.222C198.925 114.338 198.935 114.434 198.942 114.502C198.949 114.572 198.949 114.613 198.949 114.613Z" fill="#F36272"/>
<path d="M198.792 113.867L198.79 113.866L198.574 113.755C198.574 113.755 198.6 113.674 198.653 113.568C198.687 113.498 198.736 113.418 198.794 113.349C198.825 113.313 198.858 113.28 198.893 113.252C198.995 113.168 199.106 113.129 199.188 113.121C199.213 113.117 199.234 113.116 199.253 113.116C199.298 113.116 199.324 113.123 199.324 113.123C199.324 113.123 199.27 113.131 199.196 113.172C199.122 113.21 199.031 113.285 198.962 113.386C198.892 113.485 198.846 113.608 198.824 113.704C198.799 113.8 198.792 113.867 198.792 113.867Z" fill="#F36272"/>
<path d="M216.18 147.349L216.18 147.354C215.376 148.295 212.326 148.982 210.858 147.679C210.397 147.264 209.876 146.171 209.365 144.814C208.063 141.345 206.832 136.155 206.832 136.155L213.658 132.633C213.658 132.633 214.536 136.609 215.293 140.388C215.293 140.388 215.299 140.426 215.313 140.493C215.559 141.703 215.789 142.894 215.969 143.915L215.982 143.997C216.162 145.217 216.278 146.488 216.18 147.349Z" fill="#F57787"/>
<path d="M204.204 131.337C204.883 134.088 207.017 139.302 207.017 139.302C208.512 139.544 210.517 139.275 212.178 138.694C214.096 138.023 215.465 136.613 215.465 136.613C215.465 136.613 214.05 132.737 212.779 129.952C211.639 127.452 210.954 126.519 210.461 126.023C209.718 125.265 208.519 124.395 207.669 124L204.204 131.337Z" fill="white"/>
<path d="M212.838 133.008L208.849 131.297L205.706 123.248C205.706 123.248 206.282 123.422 207.04 123.727H207.044C207.058 123.734 207.091 123.745 207.146 123.766L207.204 123.792C207.882 124.107 210.511 125.647 212.331 131.243C212.346 131.29 212.36 131.337 212.375 131.384C212.568 132.029 212.71 132.548 212.787 132.816L212.809 132.895L212.838 133.008Z" fill="white"/>
<path d="M216.181 147.256L216.18 147.26C216.122 147.769 215.984 148.134 215.737 148.264L215.098 148.655C214.264 149.174 212.751 150.057 210.869 150.88C206.304 152.887 199.673 155.214 196.099 156.281C196.099 156.281 195.746 155.254 195.195 154.183C195.195 154.183 198.429 152.655 201.607 150.177C204.79 147.705 209.368 144.702 209.368 144.702L210.524 143.318C210.524 143.318 214.633 139.469 215.293 140.243C215.293 140.243 215.3 140.282 215.314 140.349C215.412 140.751 215.738 142.227 215.969 143.797L215.982 143.879C216.163 145.108 216.278 146.389 216.181 147.256Z" fill="#F57787"/>
<path d="M195.665 153.868C195.665 153.868 194.821 154.374 193.962 154.194C193.486 154.095 193.294 153.901 192.943 153.84C192.591 153.778 191.655 153.663 191.191 153.437C190.727 153.211 190.546 153.185 190.563 153.649C190.579 154.112 191.494 154.512 191.742 154.641C191.99 154.769 192.301 155.181 192.334 155.232C192.368 155.284 190.81 156.095 190.391 155.93C190.391 155.93 190.266 156.304 190.337 156.513C190.408 156.721 190.729 156.794 190.754 156.899C190.778 157.003 190.68 157.218 190.75 157.384C190.819 157.55 191.105 157.551 191.22 157.821C191.336 158.091 191.209 158.096 191.293 158.377C191.377 158.659 191.739 158.71 191.808 158.855C191.876 159.001 191.84 159.171 191.992 159.271C192.144 159.371 193.545 158.923 194.057 158.705C194.568 158.487 195.935 156.528 197.448 155.861L195.665 153.868Z" fill="#F57787"/>
<path d="M202.57 162.289H192.192V161.538H202.57C202.851 161.538 203.078 161.706 203.078 161.914C203.078 162.121 202.851 162.289 202.57 162.289Z" fill="#29608B"/>
<path d="M196.702 162.289H170.48C170.166 162.289 169.89 162.08 169.807 161.778L164.439 142.493C164.321 142.066 164.642 141.643 165.086 141.643H190.444C191.034 141.643 191.553 142.037 191.711 142.605L197.059 161.821C197.124 162.056 196.947 162.289 196.702 162.289Z" fill="#29608B"/>
<path d="M195.951 162.289H169.729C169.415 162.289 169.139 162.08 169.056 161.778L163.688 142.493C163.57 142.066 163.891 141.643 164.335 141.643H189.692C190.283 141.643 190.802 142.037 190.96 142.605L196.308 161.821C196.373 162.056 196.196 162.289 195.951 162.289Z" fill="#4075C4"/>
<path d="M91.9668 149.837L94.9632 146.713C94.9632 146.713 95.067 145.32 95.2301 145.027C95.3937 144.733 95.8149 143.645 96.0246 143.526C96.2348 143.407 96.6547 143.526 96.6547 143.526C96.6547 143.526 97.071 143.384 97.2575 143.384C97.4443 143.384 97.7934 143.557 97.7934 143.557C97.7934 143.557 98.2415 143.526 98.4283 143.526C98.6148 143.526 98.6746 143.58 98.6746 143.58C98.6746 143.58 99.397 142.735 99.7469 142.45C100.097 142.166 100.632 141.641 100.791 141.643C100.94 141.645 101.006 141.912 100.897 142.197C100.789 142.482 100.315 142.941 100.315 142.941L98.9494 145.045C98.9494 145.045 99.1824 144.95 99.3068 144.871C99.4317 144.792 100.264 144.001 100.315 143.969C100.365 143.938 100.738 143.685 100.956 143.938C101.174 144.191 99.5267 146.197 99.262 146.466C98.9977 146.734 97.4835 147.514 97.4835 147.514C97.4835 147.514 95.8848 150.438 95.7291 150.628C95.5735 150.818 91.9668 149.837 91.9668 149.837Z" fill="#F57789"/>
<path d="M94.5444 135.458C94.5444 135.458 92.8586 145.169 91.2719 145.394C91.2719 145.394 84.9373 145.648 83.5265 138.006C82.3025 131.38 87.2112 129.967 89.5068 130.473C91.8029 130.98 95.0373 131.31 94.5444 135.458Z" fill="#F57789"/>
<path d="M88.9639 143.907C88.9639 143.907 88.0605 145.094 87.7441 147.97C87.7441 147.97 85.0587 148.345 82.5825 147.102C82.5825 147.102 83.9169 143.044 84.0805 138.639" fill="#F57789"/>
<path d="M87.3154 128.999C83.8756 129.765 84.1506 131.925 84.1506 131.925C82.5405 132.327 82.1942 132.997 82.2074 135.994C82.2206 138.991 83.2965 142.59 83.8897 142.882C84.4824 143.175 87.8457 143.189 88.1264 143.086C88.4071 142.984 89.5838 140.234 89.3097 139.751C89.0351 139.267 89.3233 137.365 90.1066 137.293C90.8899 137.221 90.7363 138.445 90.7363 138.445L91.3805 138.302L91.8773 137.074C96.423 137.346 97.5974 132.124 97.5974 132.124C96.5052 131.406 90.7557 128.233 87.3154 128.999Z" fill="#192C4A"/>
<path d="M48.5614 195.363L52.177 195.854L50.9794 199.824L47.0638 198.896C47.0638 198.896 45.4705 196.865 47.8757 195.363C47.9919 195.29 48.3721 195.323 48.5614 195.363Z" fill="#F57787"/>
<path d="M74.971 184.793L69.7571 168.921C69.7571 168.921 68.1768 168.355 67.3676 168.921C67.3676 168.921 61.9362 171.858 62.5154 180.23C62.9522 186.542 64.2778 193.387 64.8148 196.132L50.9047 195.616C50.9047 195.616 49.1884 197.666 50.2987 200.336C50.2987 200.336 67.778 205.062 70.24 205.498C72.241 205.853 74.4313 206.127 75.4888 205.216C77.3519 203.612 74.971 184.793 74.971 184.793Z" fill="#040606"/>
<path d="M64.9437 195.363L68.3183 195.854L67.2005 199.824L63.5458 198.896C63.5458 198.896 62.0588 196.865 64.3041 195.363C64.4121 195.29 64.7669 195.323 64.9437 195.363Z" fill="#F57787"/>
<path d="M63.6529 197.508C63.5735 198.331 64.2868 199.072 64.1563 199.277C64.0257 199.483 61.642 203.522 61.642 203.522C61.642 203.522 63.4416 204.314 63.1513 205.457H58.5938C58.5938 205.457 57.4035 204.372 57.4327 202.818C57.4327 202.818 57.7422 201.03 58.5552 199.447C59.3682 197.864 61.2158 194.289 61.2158 194.289C61.2158 194.289 61.7766 194.06 62.7349 194.319C63.8575 194.621 64.9396 195.315 64.9396 195.315C64.9396 195.315 63.849 195.473 63.6529 197.508Z" fill="#4075C4"/>
<path d="M100.041 201.885C98.9252 197.69 88.4288 179.78 84.8778 174.945C77.5845 171.753 69.8109 169.045 69.8109 169.045C66.5962 169.819 65.0126 176.347 66.836 180.699C68.0868 183.685 76.0224 191.2 80.882 195.624L67.3969 195.608C67.3969 195.608 65.808 198.001 67.2479 200.274C67.2479 200.274 89.6761 205.413 91.6435 205.703C93.6109 205.993 98.0253 205.703 98.0253 205.703C98.0253 205.703 100.98 205.416 100.041 201.885Z" fill="#192C4A"/>
<path d="M47.1368 197.508C47.0574 198.331 47.7707 199.072 47.6402 199.277C47.5096 199.483 45.1259 203.522 45.1259 203.522C45.1259 203.522 46.9255 204.314 46.6352 205.457H42.0777C42.0777 205.457 40.8874 204.372 40.9165 202.818C40.9165 202.818 41.2261 201.03 42.0391 199.447C42.8516 197.864 44.6996 194.289 44.6996 194.289C44.6996 194.289 45.2605 194.06 46.2188 194.319C47.3414 194.621 48.4235 195.315 48.4235 195.315C48.4235 195.315 47.3324 195.473 47.1368 197.508Z" fill="#4075C4"/>
<path d="M116.924 146.899L109.692 159.559L104.512 154.422L100.225 160.772L101.47 161.367L101.022 161.738C101.022 161.738 111.018 166.583 112.215 165.514C113.413 164.445 118.994 148.339 118.994 148.339L116.924 146.899Z" fill="#F57789"/>
<path d="M105.481 155.361C105.481 155.361 104.103 161.132 101.348 163.869L94.2992 161.204C94.2992 161.204 91.0282 166.668 87.8289 170.857C86.5995 172.475 86.1912 174.752 84.7464 175.051C84.6567 175.02 84.5714 174.993 84.4817 174.971C80.5645 173.803 74.7853 175.042 70.0157 173.281C64.7479 171.334 65.771 170.238 65.771 170.238C65.771 170.238 68.9657 164.52 70.7784 158.463C71.5861 155.784 72.147 153.302 72.5194 151.363C73.1879 147.932 75.9564 145.249 79.4473 144.781C79.4877 144.776 79.5236 144.767 79.5639 144.763C83.5573 144.259 94.012 145.485 96.0446 146.349C98.0772 147.214 105.481 155.361 105.481 155.361Z" fill="#4075C4"/>
<path d="M94.2193 160.977C94.2193 160.977 91.006 166.531 87.8632 170.788C86.6554 172.433 86.2543 174.747 84.835 175.051C85.4565 174.824 86.4879 171.463 86.8538 170.707C87.224 169.955 87.8103 169.199 89.0797 166.558C90.3448 163.913 92.0621 160.036 92.0621 160.036L94.2193 160.977Z" fill="#4E8ED2"/>
<path d="M80.7056 195.455C80.7056 195.455 80.818 195.431 81.0164 195.407C81.2148 195.387 81.4992 195.347 81.8415 195.334C82.5255 195.298 83.4406 195.324 84.3463 195.446C84.7982 195.509 85.2487 195.586 85.6647 195.687C86.0815 195.782 86.4656 195.895 86.7878 196.009C87.1123 196.116 87.3726 196.234 87.5546 196.313C87.7367 196.393 87.8377 196.445 87.8377 196.445C87.8377 196.445 87.723 196.433 87.5269 196.4C87.3325 196.36 87.0508 196.324 86.7177 196.269C86.051 196.161 85.1677 196.024 84.2803 195.909C83.8375 195.843 83.3919 195.797 82.9751 195.74C82.5564 195.689 82.1659 195.642 81.831 195.601C81.1556 195.514 80.7056 195.455 80.7056 195.455Z" fill="#040606"/>
<path d="M122.202 142.039C122.085 142.027 121.343 142.622 120.984 142.915L121.397 142.127C121.397 142.127 121.944 141.601 122.14 141.312C122.337 141.023 122.233 140.734 122.078 140.719C121.969 140.708 121.315 141.225 120.937 141.532L121.02 141.374C121.02 141.374 121.567 140.848 121.763 140.559C121.96 140.27 121.856 139.981 121.701 139.966C121.546 139.95 120.289 141.002 120.289 141.002L119.677 141.819L120.138 140.926C120.138 140.926 120.381 140.63 120.543 140.307C120.705 139.984 120.588 139.885 120.498 139.777C120.408 139.67 119.562 140.298 119.346 140.549C119.13 140.8 118.446 141.819 118.392 141.962L117.685 143.421C117.64 142.998 117.568 142.275 117.519 141.814C117.446 141.15 116.843 140.993 116.823 141.316C116.802 141.639 116.466 143.228 116.542 144.09C116.618 144.951 116.762 145.516 116.816 146.001C116.871 146.485 116.366 147.454 116.366 147.454C116.366 147.454 118.383 148.702 118.716 148.329C119.05 147.955 119.759 147.125 120.102 146.566C120.573 145.799 120.891 144.789 120.891 144.789L121.522 143.447C121.522 143.447 122.068 142.921 122.264 142.632C122.461 142.343 122.358 142.054 122.202 142.039Z" fill="#F57789"/>
<path d="M232.78 84.7853V84.5866H209.036C207.404 84.587 206.081 85.8986 206.081 87.5167V93.0767C206.082 94.5698 207.207 95.802 208.664 95.9838C208.763 95.9963 208.836 96.0788 208.836 96.1777V99.2218C208.835 99.3318 208.885 99.4352 208.958 99.5004C209.031 99.5665 209.124 99.6011 209.221 99.6015C209.333 99.6033 209.456 99.5474 209.53 99.4427L211.949 96.0899C211.987 96.038 212.047 96.0069 212.112 96.0069H232.78C234.413 96.0069 235.736 94.6953 235.736 93.0767V87.5167C235.736 85.8986 234.413 84.587 232.78 84.5866V84.7853V84.984C233.486 84.984 234.124 85.267 234.587 85.7256C235.049 86.1847 235.335 86.8168 235.335 87.5167V93.0767C235.335 93.7771 235.049 94.4088 234.587 94.8678C234.124 95.3265 233.486 95.6095 232.78 95.6095H212.112C211.918 95.6095 211.736 95.7026 211.623 95.8588L209.204 99.2112L209.221 99.2227V99.2041L209.205 99.2112L209.221 99.2227V99.2041V99.217L209.229 99.2076L209.221 99.2041V99.217L209.229 99.2076L209.216 99.2218H209.237L209.229 99.2076L209.216 99.2218H209.237V96.1777C209.237 95.8792 209.013 95.6268 208.714 95.5895C207.456 95.4325 206.481 94.3675 206.482 93.0767V87.5167C206.482 86.8168 206.767 86.1847 207.23 85.7256C207.693 85.267 208.33 84.984 209.036 84.984H232.78V84.7853Z" fill="white"/>
<path d="M212.634 90.2176H212.43C212.43 90.6144 212.108 90.9356 211.712 90.9365C211.315 90.9356 210.994 90.6144 210.993 90.2176C210.994 89.8208 211.315 89.4996 211.712 89.4987C212.108 89.4996 212.43 89.8208 212.43 90.2176H212.634H212.838C212.838 89.5956 212.334 89.0915 211.712 89.0915C211.09 89.0915 210.585 89.5956 210.585 90.2176C210.585 90.8396 211.09 91.3438 211.712 91.3438C212.334 91.3438 212.838 90.8396 212.838 90.2176H212.634Z" fill="white"/>
<path d="M217.138 90.2176H216.934C216.934 90.6144 216.613 90.9356 216.216 90.9365C215.819 90.9356 215.498 90.6144 215.497 90.2176C215.498 89.8208 215.819 89.4996 216.216 89.4987C216.613 89.4996 216.934 89.8208 216.934 90.2176H217.138H217.342C217.342 89.5956 216.838 89.0915 216.216 89.0915C215.594 89.0915 215.09 89.5956 215.09 90.2176C215.09 90.8396 215.594 91.3438 216.216 91.3438C216.838 91.3438 217.342 90.8396 217.342 90.2176H217.138Z" fill="white"/>
<path d="M221.644 90.2176H221.44C221.439 90.6144 221.118 90.9356 220.721 90.9365C220.324 90.9356 220.003 90.6144 220.002 90.2176C220.003 89.8208 220.324 89.4996 220.721 89.4987C221.118 89.4996 221.439 89.8208 221.44 90.2176H221.644H221.847C221.847 89.5956 221.343 89.0915 220.721 89.0915C220.099 89.0915 219.595 89.5956 219.595 90.2176C219.595 90.8396 220.099 91.3438 220.721 91.3438C221.343 91.3438 221.847 90.8396 221.847 90.2176H221.644Z" fill="white"/>
<path d="M226.148 90.2176H225.944C225.943 90.6144 225.622 90.9356 225.225 90.9365C224.828 90.9356 224.507 90.6144 224.507 90.2176C224.507 89.8208 224.828 89.4996 225.225 89.4987C225.622 89.4996 225.943 89.8208 225.944 90.2176H226.148H226.351C226.351 89.5956 225.847 89.0915 225.225 89.0915C224.603 89.0915 224.099 89.5956 224.099 90.2176C224.099 90.8396 224.603 91.3438 225.225 91.3438C225.847 91.3438 226.351 90.8396 226.351 90.2176H226.148Z" fill="white"/>
<path d="M230.652 90.2176H230.449C230.448 90.6144 230.126 90.9356 229.73 90.9365C229.333 90.9356 229.012 90.6144 229.011 90.2176C229.012 89.8208 229.333 89.4996 229.73 89.4987C230.126 89.4996 230.448 89.8208 230.449 90.2176H230.652H230.856C230.856 89.5956 230.352 89.0915 229.73 89.0915C229.108 89.0915 228.604 89.5956 228.604 90.2176C228.604 90.8396 229.108 91.3438 229.73 91.3438C230.352 91.3438 230.856 90.8396 230.856 90.2176H230.652Z" fill="white"/>
<path d="M51.0033 126.078V126.277H74.7471C75.4531 126.277 76.0908 126.56 76.5534 127.019C77.0161 127.478 77.3016 128.109 77.302 128.809V134.37C77.3025 135.66 76.3275 136.726 75.0697 136.883C74.7703 136.92 74.5466 137.172 74.5466 137.471V140.515H74.5672L74.5542 140.501L74.5466 140.515H74.5672L74.5542 140.501L74.5627 140.51V140.497L74.5542 140.501L74.5627 140.51V140.497V140.516L74.5793 140.505L74.5627 140.497V140.516L74.5793 140.505L72.1603 137.152C72.0476 136.995 71.8655 136.903 71.6717 136.903H51.0033C50.2972 136.903 49.6596 136.62 49.1969 136.161C48.7343 135.702 48.4483 135.07 48.4483 134.37V128.809C48.4483 128.109 48.7343 127.478 49.1969 127.019C49.6596 126.56 50.2972 126.277 51.0033 126.277V126.078V125.88C49.371 125.88 48.0479 127.191 48.0479 128.809V134.37C48.0479 135.988 49.371 137.3 51.0033 137.3H71.6717C71.7361 137.3 71.797 137.331 71.8346 137.383L74.2531 140.736C74.3273 140.841 74.4508 140.896 74.5627 140.894C74.6598 140.894 74.7524 140.859 74.8254 140.793C74.8988 140.728 74.9484 140.625 74.9475 140.515V137.471C74.9475 137.372 75.0209 137.289 75.1198 137.277C76.5767 137.095 77.7021 135.863 77.7025 134.37V128.809C77.7025 127.191 76.3794 125.88 74.7471 125.88H51.0033V126.078Z" fill="white"/>
<path d="M71.1496 131.507H70.9458C70.9463 132.129 71.4503 132.633 72.0722 132.633C72.694 132.633 73.1981 132.129 73.1981 131.507C73.1981 130.885 72.694 130.381 72.0722 130.381C71.4503 130.381 70.9463 130.885 70.9458 131.507H71.1496H71.3534C71.3543 131.11 71.675 130.789 72.0722 130.788C72.4688 130.789 72.79 131.11 72.7905 131.507C72.79 131.904 72.4688 132.225 72.0722 132.225C71.675 132.225 71.3543 131.904 71.3534 131.507H71.1496Z" fill="white"/>
<path d="M66.6452 131.507H66.4414C66.4414 132.129 66.9454 132.633 67.5673 132.633C68.1896 132.633 68.6932 132.129 68.6937 131.507C68.6932 130.885 68.1896 130.381 67.5673 130.381C66.9454 130.381 66.4414 130.885 66.4414 131.507H66.6452H66.849C66.8495 131.11 67.1706 130.789 67.5673 130.788C67.9645 130.789 68.2852 131.11 68.2861 131.507C68.2852 131.904 67.9645 132.225 67.5673 132.225C67.1706 132.225 66.8495 131.904 66.849 131.507H66.6452Z" fill="white"/>
<path d="M62.1404 131.507H61.937C61.937 132.129 62.4412 132.633 63.0631 132.633C63.6851 132.633 64.1893 132.129 64.1893 131.507C64.1893 130.885 63.6851 130.381 63.0631 130.381C62.4412 130.381 61.937 130.885 61.937 131.507H62.1404H62.3442C62.3451 131.11 62.6664 130.789 63.0631 130.788C63.4599 130.789 63.7811 131.11 63.782 131.507C63.7811 131.904 63.4599 132.225 63.0631 132.225C62.6664 132.225 62.3451 131.904 62.3442 131.507H62.1404Z" fill="white"/>
<path d="M57.6359 131.507H57.4321C57.4326 132.129 57.9362 132.633 58.5585 132.633C59.1803 132.633 59.6844 132.129 59.6844 131.507C59.6844 130.885 59.1803 130.381 58.5585 130.381C57.9362 130.381 57.4326 130.885 57.4321 131.507H57.6359H57.8397C57.8402 131.11 58.1613 130.789 58.5585 130.788C58.9552 130.789 59.2763 131.11 59.2768 131.507C59.2763 131.904 58.9552 132.225 58.5585 132.225C58.1613 132.225 57.8402 131.904 57.8397 131.507H57.6359Z" fill="white"/>
<path d="M53.0976 131.507H52.9277C52.9277 132.129 53.3478 132.633 53.8662 132.633C54.3845 132.633 54.8046 132.129 54.8046 131.507C54.8046 130.885 54.3845 130.381 53.8662 130.381C53.3478 130.381 52.9277 130.885 52.9277 131.507H53.0976H53.2671C53.2678 131.11 53.5355 130.789 53.8662 130.788C54.1968 130.789 54.4645 131.11 54.4653 131.507C54.4645 131.904 54.1968 132.225 53.8662 132.225C53.5355 132.225 53.2678 131.904 53.2671 131.507H53.0976Z" fill="white"/>
<path d="M194.262 88.7148H151.084C148.702 88.7148 146.772 86.7822 146.772 84.398C146.772 82.0139 148.702 80.0812 151.084 80.0812H194.262C196.643 80.0812 198.574 82.0139 198.574 84.398C198.574 86.7822 196.643 88.7148 194.262 88.7148Z" fill="white"/>
<path d="M194.064 88.5152V88.3159H150.906C149.77 88.3155 148.744 87.8564 148 87.1134C147.256 86.3699 146.796 85.3447 146.796 84.2103C146.796 83.076 147.256 82.0512 148 81.3078C148.744 80.5643 149.77 80.1052 150.906 80.1052H194.064C195.2 80.1052 196.226 80.5643 196.97 81.3078C197.714 82.0512 198.174 83.076 198.174 84.2103C198.174 85.3447 197.714 86.3699 196.97 87.1134C196.226 87.8564 195.2 88.3155 194.064 88.3159V88.5152V88.7148C196.555 88.7148 198.574 86.6984 198.574 84.2103C198.574 81.7227 196.555 79.7063 194.064 79.7058H150.906C148.415 79.7063 146.396 81.7227 146.396 84.2103C146.396 86.6984 148.415 88.7148 150.906 88.7148H194.064V88.5152Z" fill="#4259B1"/>
<path d="M193.676 84.2081H193.281C193.281 84.7322 193.055 85.2025 192.687 85.5462C192.32 85.8894 191.815 86.1002 191.254 86.1007C190.693 86.1002 190.189 85.8894 189.82 85.5462C189.453 85.2025 189.227 84.7322 189.227 84.2081C189.227 83.6845 189.453 83.2141 189.82 82.8704C190.189 82.5272 190.693 82.3164 191.254 82.316C191.815 82.3164 192.32 82.5272 192.687 82.8704C193.055 83.2141 193.281 83.6845 193.281 84.2081H193.676H194.069C194.069 82.7569 192.809 81.5807 191.254 81.5807C189.699 81.5807 188.438 82.7569 188.438 84.2081C188.438 85.6597 189.699 86.8359 191.254 86.8359C192.809 86.8359 194.069 85.6597 194.069 84.2081H193.676Z" fill="#4259B1"/>
<path d="M192.67 85.9281L193.85 87.1091C193.987 87.2449 194.207 87.2449 194.343 87.1091C194.479 86.9734 194.479 86.7527 194.343 86.6169L193.162 85.4359C193.026 85.3001 192.806 85.3001 192.67 85.4359C192.534 85.5721 192.534 85.7924 192.67 85.9281Z" fill="#4259B1"/>
<path d="M177.992 93.5938H168.855C168.476 93.5938 168.168 93.3417 168.168 93.0307C168.168 92.72 168.476 92.4676 168.855 92.4676H177.992C178.372 92.4676 178.679 92.72 178.679 93.0307C178.679 93.3417 178.372 93.5938 177.992 93.5938Z" fill="#EBF1FA"/>
<path d="M187.009 93.5938H180.482C180.108 93.5938 179.805 93.3417 179.805 93.0307C179.805 92.72 180.108 92.4676 180.482 92.4676H187.009C187.384 92.4676 187.688 92.72 187.688 93.0307C187.688 93.3417 187.384 93.5938 187.009 93.5938Z" fill="#EBF1FA"/>
<path d="M172.737 96.5977H168.855C168.476 96.5977 168.168 96.3456 168.168 96.0346C168.168 95.7239 168.476 95.4715 168.855 95.4715H172.737C173.116 95.4715 173.424 95.7239 173.424 96.0346C173.424 96.3456 173.116 96.5977 172.737 96.5977Z" fill="#EBF1FA"/>
<path d="M186.998 96.5977H174.863C174.483 96.5977 174.174 96.3456 174.174 96.0346C174.174 95.7239 174.483 95.4715 174.863 95.4715H186.998C187.379 95.4715 187.688 95.7239 187.688 96.0346C187.688 96.3456 187.379 96.5977 186.998 96.5977Z" fill="#EBF1FA"/>
<path d="M180.991 99.6016H168.86C168.478 99.6016 168.168 99.3496 168.168 99.0385C168.168 98.7278 168.478 98.4754 168.86 98.4754H180.991C181.373 98.4754 181.682 98.7278 181.682 99.0385C181.682 99.3496 181.373 99.6016 180.991 99.6016Z" fill="#EBF1FA"/>
<path d="M187 99.6016H183.119C182.739 99.6016 182.432 99.3496 182.432 99.0385C182.432 98.7278 182.739 98.4754 183.119 98.4754H187C187.38 98.4754 187.687 98.7278 187.687 99.0385C187.687 99.3496 187.38 99.6016 187 99.6016Z" fill="#EBF1FA"/>
<path d="M206.624 48.9258H174.756C173.813 48.9258 173.048 48.1749 173.048 47.2489V31.4585C173.048 30.5321 173.813 29.7816 174.756 29.7816H206.624C207.568 29.7816 208.333 30.5321 208.333 31.4585V47.2489C208.333 48.1749 207.568 48.9258 206.624 48.9258Z" fill="#28418F"/>
<path d="M174.749 32.4062H207.007C207.117 32.4062 207.207 32.3225 207.207 32.2186C207.207 32.1151 207.117 32.0309 207.007 32.0309H174.749C174.639 32.0309 174.549 32.1151 174.549 32.2186C174.549 32.3225 174.639 32.4062 174.749 32.4062Z" fill="white"/>
<path d="M206.456 30.9098C206.456 31.117 206.288 31.2852 206.081 31.2852C205.873 31.2852 205.706 31.117 205.706 30.9098C205.706 30.7026 205.873 30.5344 206.081 30.5344C206.288 30.5344 206.456 30.7026 206.456 30.9098Z" fill="white"/>
<path d="M204.204 30.9098C204.204 31.117 204.036 31.2852 203.829 31.2852C203.621 31.2852 203.453 31.117 203.453 30.9098C203.453 30.7026 203.621 30.5344 203.829 30.5344C204.036 30.5344 204.204 30.7026 204.204 30.9098Z" fill="white"/>
<path d="M202.327 30.9098C202.327 31.117 202.159 31.2852 201.952 31.2852C201.744 31.2852 201.576 31.117 201.576 30.9098C201.576 30.7026 201.744 30.5344 201.952 30.5344C202.159 30.5344 202.327 30.7026 202.327 30.9098Z" fill="white"/>
<path d="M180.75 34.6602H175.105C174.798 34.6602 174.549 34.492 174.549 34.2848C174.549 34.0775 174.798 33.9094 175.105 33.9094H180.75C181.057 33.9094 181.306 34.0775 181.306 34.2848C181.306 34.492 181.057 34.6602 180.75 34.6602Z" fill="#5785CC"/>
<path d="M180.75 37.2891H175.105C174.798 37.2891 174.549 37.037 174.549 36.7258C174.549 36.415 174.798 36.1629 175.105 36.1629H180.75C181.057 36.1629 181.306 36.415 181.306 36.7258C181.306 37.037 181.057 37.2891 180.75 37.2891Z" fill="#5785CC"/>
<path d="M180.75 39.918H175.105C174.798 39.918 174.549 39.6659 174.549 39.3551C174.549 39.0439 174.798 38.7918 175.105 38.7918H180.75C181.057 38.7918 181.306 39.0439 181.306 39.3551C181.306 39.6659 181.057 39.918 180.75 39.918Z" fill="#5785CC"/>
<path d="M180.75 42.168H175.105C174.798 42.168 174.549 41.9999 174.549 41.7926C174.549 41.5853 174.798 41.4172 175.105 41.4172H180.75C181.057 41.4172 181.306 41.5853 181.306 41.7926C181.306 41.9999 181.057 42.168 180.75 42.168Z" fill="#5785CC"/>
<path d="M180.75 44.7969H175.105C174.798 44.7969 174.549 44.5448 174.549 44.2336C174.549 43.9228 174.798 43.6707 175.105 43.6707H180.75C181.057 43.6707 181.306 43.9228 181.306 44.2336C181.306 44.5448 181.057 44.7969 180.75 44.7969Z" fill="#5785CC"/>
<path d="M180.75 47.4219H175.105C174.798 47.4219 174.549 47.1698 174.549 46.859C174.549 46.5478 174.798 46.2957 175.105 46.2957H180.75C181.057 46.2957 181.306 46.5478 181.306 46.859C181.306 47.1698 181.057 47.4219 180.75 47.4219Z" fill="#5785CC"/>
<path d="M206.289 34.6602H182.598C182.299 34.6602 182.057 34.492 182.057 34.2848C182.057 34.0775 182.299 33.9094 182.598 33.9094H206.289C206.589 33.9094 206.831 34.0775 206.831 34.2848C206.831 34.492 206.589 34.6602 206.289 34.6602Z" fill="#3660B6"/>
<path d="M206.289 37.2891H182.598C182.299 37.2891 182.057 37.037 182.057 36.7258C182.057 36.415 182.299 36.1629 182.598 36.1629H206.289C206.589 36.1629 206.831 36.415 206.831 36.7258C206.831 37.037 206.589 37.2891 206.289 37.2891Z" fill="#3660B6"/>
<path d="M206.289 39.918H182.598C182.299 39.918 182.057 39.6659 182.057 39.3551C182.057 39.0439 182.299 38.7918 182.598 38.7918H206.289C206.589 38.7918 206.831 39.0439 206.831 39.3551C206.831 39.6659 206.589 39.918 206.289 39.918Z" fill="#3660B6"/>
<path d="M206.289 42.168H182.598C182.299 42.168 182.057 41.9999 182.057 41.7926C182.057 41.5853 182.299 41.4172 182.598 41.4172H206.289C206.589 41.4172 206.831 41.5853 206.831 41.7926C206.831 41.9999 206.589 42.168 206.289 42.168Z" fill="#3660B6"/>
<path d="M206.289 44.7969H182.598C182.299 44.7969 182.057 44.5448 182.057 44.2336C182.057 43.9228 182.299 43.6707 182.598 43.6707H206.289C206.589 43.6707 206.831 43.9228 206.831 44.2336C206.831 44.5448 206.589 44.7969 206.289 44.7969Z" fill="#3660B6"/>
<path d="M206.289 47.4219H182.598C182.299 47.4219 182.057 47.1698 182.057 46.859C182.057 46.5478 182.299 46.2957 182.598 46.2957H206.289C206.589 46.2957 206.831 46.5478 206.831 46.859C206.831 47.1698 206.589 47.4219 206.289 47.4219Z" fill="#3660B6"/>
<path d="M62.1839 90.5938H46.3005C43.9488 90.5938 42.0425 88.6875 42.0425 86.3358V70.4527C42.0425 68.101 43.9488 66.1943 46.3005 66.1943H62.1839C64.5356 66.1943 66.4419 68.101 66.4419 70.4527V86.3358C66.4419 88.6875 64.5356 90.5938 62.1839 90.5938Z" fill="#28418F"/>
<path d="M61.1537 88.3398H43.5772C41.6927 88.3398 40.1655 86.8123 40.1655 84.9283V67.352C40.1655 65.468 41.6927 63.9404 43.5772 63.9404H61.1537C63.0378 63.9404 64.5649 65.468 64.5649 67.352V84.9283C64.5649 86.8123 63.0378 88.3398 61.1537 88.3398Z" fill="#6D7AC5"/>
<path d="M61.2618 88.493V88.2711H43.4689C42.5765 88.2711 41.7707 87.9153 41.186 87.3397C40.6013 86.7634 40.2405 85.97 40.2405 85.091V67.5639C40.2405 66.6854 40.6013 65.8915 41.186 65.3156C41.7707 64.7396 42.5765 64.3842 43.4689 64.3838H61.2618C62.1537 64.3842 62.9595 64.7396 63.5442 65.3156C64.1289 65.8915 64.4897 66.6854 64.4897 67.5639V85.091C64.4897 85.97 64.1289 86.7634 63.5442 87.3397C62.9595 87.9153 62.1537 88.2711 61.2618 88.2711V88.493V88.7148C63.2933 88.7144 64.9402 87.0926 64.9402 85.091V67.5639C64.9402 65.5627 63.2933 63.9405 61.2618 63.94H43.4689C41.4369 63.9405 39.79 65.5627 39.79 67.5639V85.091C39.79 87.0926 41.4369 88.7144 43.4689 88.7148H61.2618V88.493Z" fill="#D7DCF2"/>
<path d="M49.1865 71.8475C49.1865 70.1376 50.5904 68.7458 52.3146 68.7458C54.0393 68.7458 55.4428 70.1376 55.4428 71.8475V73.2428H49.1865V71.8475ZM56.632 73.2428H56.5038V71.8475C56.5038 69.557 54.625 67.6939 52.3146 67.6939C50.0043 67.6939 48.1254 69.557 48.1254 71.8475V73.2428H48.0972C47.4479 73.2428 46.9219 73.7643 46.9219 74.408V79.6664C46.9219 80.3101 47.4479 80.832 48.0972 80.832H56.632C57.2813 80.832 57.8078 80.3101 57.8078 79.6664V74.408C57.8078 73.7643 57.2813 73.2428 56.632 73.2428Z" fill="#D7DCF2"/>
<path d="M53.6789 76.1283C53.6789 75.3224 52.9385 74.6879 52.0947 74.8542C51.5973 74.9522 51.1846 75.3565 51.0808 75.8482C50.9559 76.4405 51.2389 76.9812 51.7023 77.2498C51.7967 77.3044 51.8501 77.4067 51.8217 77.5108L51.593 78.3466C51.4573 78.8433 51.835 79.332 52.3549 79.332C52.8743 79.332 53.2525 78.8433 53.1164 78.3466L52.8903 77.5197C52.8614 77.4144 52.9165 77.3108 53.0126 77.2566C53.4101 77.0336 53.6789 76.6127 53.6789 76.1283Z" fill="#6D7AC5"/>
<path d="M57.3037 82.7109H47.426C47.1473 82.7109 46.9219 82.5431 46.9219 82.3356C46.9219 82.1284 47.1473 81.9602 47.426 81.9602H57.3037C57.5819 81.9602 57.8078 82.1284 57.8078 82.3356C57.8078 82.5431 57.5819 82.7109 57.3037 82.7109Z" fill="#D7DCF2"/>
<path d="M57.3037 84.5859H47.426C47.1473 84.5859 46.9219 84.3337 46.9219 84.0229C46.9219 83.7116 47.1473 83.4598 47.426 83.4598H57.3037C57.5819 83.4598 57.8078 83.7116 57.8078 84.0229C57.8078 84.3337 57.5819 84.5859 57.3037 84.5859Z" fill="#D7DCF2"/>
<path d="M229.117 123.25H219.832C218.457 123.25 217.342 122.136 217.342 120.76V111.475C217.342 110.1 218.457 108.986 219.832 108.986H229.117C230.492 108.986 231.607 110.1 231.607 111.475V120.76C231.607 122.136 230.492 123.25 229.117 123.25Z" fill="#28418F"/>
<path d="M228.486 122.125H218.211C217.109 122.125 216.216 121.232 216.216 120.13V109.855C216.216 108.754 217.109 107.861 218.211 107.861H228.486C229.588 107.861 230.481 108.754 230.481 109.855V120.13C230.481 121.232 229.588 122.125 228.486 122.125Z" fill="#6D7AC5"/>
<path d="M228.594 122.274V122.049H218.103C217.602 122.048 217.151 121.846 216.823 121.518C216.495 121.19 216.292 120.739 216.292 120.238V109.747C216.292 109.246 216.495 108.795 216.823 108.467C217.151 108.139 217.602 107.937 218.103 107.936H228.594C229.095 107.937 229.546 108.139 229.875 108.467C230.203 108.795 230.405 109.246 230.405 109.747V120.238C230.405 120.739 230.203 121.19 229.875 121.518C229.546 121.846 229.095 122.048 228.594 122.049V122.274V122.5C229.843 122.5 230.856 121.487 230.856 120.238V109.747C230.856 108.498 229.843 107.485 228.594 107.485H218.103C216.854 107.485 215.841 108.498 215.841 109.747V120.238C215.841 121.487 216.854 122.5 218.103 122.5H228.594V122.274Z" fill="#D7DCF2"/>
<path d="M220.406 119.121C220.367 119.121 220.327 119.116 220.288 119.104C220.055 119.037 219.921 118.79 219.986 118.552L222.117 110.814C222.182 110.575 222.424 110.436 222.655 110.505C222.887 110.572 223.022 110.819 222.956 111.057L220.826 118.795C220.772 118.993 220.597 119.121 220.406 119.121Z" fill="white"/>
<path d="M224.16 119.121C224.121 119.121 224.081 119.116 224.042 119.104C223.809 119.037 223.675 118.79 223.74 118.552L225.871 110.814C225.936 110.575 226.178 110.436 226.409 110.505C226.641 110.572 226.776 110.819 226.71 111.057L224.58 118.795C224.526 118.993 224.351 119.121 224.16 119.121Z" fill="white"/>
<path d="M227.03 113.492H219.292C219.044 113.492 218.844 113.324 218.844 113.117C218.844 112.909 219.044 112.741 219.292 112.741H227.03C227.277 112.741 227.477 112.909 227.477 113.117C227.477 113.324 227.277 113.492 227.03 113.492Z" fill="white"/>
<path d="M227.03 117.246H219.292C219.044 117.246 218.844 116.994 218.844 116.683C218.844 116.372 219.044 116.12 219.292 116.12H227.03C227.277 116.12 227.477 116.372 227.477 116.683C227.477 116.994 227.277 117.246 227.03 117.246Z" fill="white"/>
<path d="M60.2035 114.613H54.6621C54.3264 114.613 54.0542 114.277 54.0542 113.862C54.0542 113.448 54.3264 113.112 54.6621 113.112H60.2035C60.5392 113.112 60.811 113.448 60.811 113.862C60.811 114.277 60.5392 114.613 60.2035 114.613Z" fill="#EBF1FA"/>
<path d="M65.8318 117.242H54.6645C54.3275 117.242 54.0542 116.99 54.0542 116.679C54.0542 116.368 54.3275 116.116 54.6645 116.116H65.8318C66.1687 116.116 66.4416 116.368 66.4416 116.679C66.4416 116.99 66.1687 117.242 65.8318 117.242Z" fill="#EBF1FA"/>
<path d="M55.7655 119.871H54.5955C54.2966 119.871 54.0542 119.619 54.0542 119.308C54.0542 118.997 54.2966 118.745 54.5955 118.745H55.7655C56.0644 118.745 56.3064 118.997 56.3064 119.308C56.3064 119.619 56.0644 119.871 55.7655 119.871Z" fill="#EBF1FA"/>
<path d="M65.8304 119.871H58.0429C57.7054 119.871 57.4321 119.619 57.4321 119.308C57.4321 118.997 57.7054 118.745 58.0429 118.745H65.8304C66.1679 118.745 66.4411 118.997 66.4411 119.308C66.4411 119.619 66.1679 119.871 65.8304 119.871Z" fill="#EBF1FA"/>
<path d="M65.7933 114.613H62.2096C61.852 114.613 61.5615 114.277 61.5615 113.862C61.5615 113.448 61.852 113.112 62.2096 113.112H65.7933C66.1514 113.112 66.4414 113.448 66.4414 113.862C66.4414 114.277 66.1514 114.613 65.7933 114.613Z" fill="#EBF1FA"/>
<path d="M23.9892 172.916C23.852 172.158 23.8706 171.383 24.0619 170.637C24.7018 168.139 25.4342 163.44 23.8067 158.363C21.0917 149.894 10.0879 142.393 10.0879 142.393C10.0879 142.393 13.0746 154.891 15.5304 160.212C17.3281 164.108 20.4733 168.542 22.2182 170.877C22.7023 171.524 23.0342 172.271 23.1784 173.066C24.9575 182.901 24.7 190.514 24.6954 190.632L25.5213 190.664C25.526 190.545 25.7875 182.854 23.9892 172.916Z" fill="#D7DCF2"/>
<path d="M32.7632 164.954C34.9486 158.05 35.9652 149.918 35.9652 149.918C35.9652 149.918 26.0993 158.05 25.2908 164.343C24.795 168.197 25.4111 171.289 25.9633 173.108C26.1975 173.881 26.2824 174.688 26.1958 175.491C25.1972 184.751 25.9796 191.849 25.9923 191.957L26.7346 191.872C26.723 191.767 25.9964 185.163 26.852 176.413C26.9688 175.215 27.4518 174.082 28.2109 173.147C29.6233 171.407 31.642 168.495 32.7632 164.954Z" fill="#A7B9E4"/>
<path d="M42.7927 149.595C42.7927 149.595 32.1607 153.536 29.3807 162.208C27.6887 167.486 28.4879 172.365 29.1493 174.892C29.3353 175.601 29.3249 176.341 29.1476 177.052C26.657 187.032 26.6187 197.362 26.6187 197.5H27.4649C27.4649 197.365 27.5039 187.281 29.909 177.493C30.1479 176.521 30.5722 175.608 31.1697 174.804C32.9826 172.364 36.0684 167.974 37.8557 164.102C40.3701 158.653 42.7927 149.595 42.7927 149.595Z" fill="#D7DCF2"/>
<path d="M24.0334 186.188C23.7689 182.558 22.7785 179.289 21.5782 176.548C21.3382 175.999 21.2533 175.398 21.3306 174.804C21.4788 173.658 21.5404 171.88 21.0818 169.62C20.2193 165.365 14.5664 156.173 6.38135 155.635C6.38135 155.635 9.20534 160.17 10.6584 163.965C12.4973 168.766 15.1214 173.789 19.4735 175.716C20.2391 176.055 20.8383 176.69 21.1574 177.463C22.2065 180.003 23.0488 182.971 23.2871 186.242L24.0334 186.188Z" fill="#A7B9E4"/>
<path d="M18.4998 204.809H32.0066L35.5114 183.414C35.666 182.467 34.9348 181.607 33.974 181.607H16.5323C15.5718 181.607 14.8403 182.467 14.9954 183.414L18.4998 204.809Z" fill="#D7DCF2"/>
<path d="M15.204 205.832H235.547C235.651 205.832 235.736 205.748 235.736 205.644C235.736 205.541 235.651 205.457 235.547 205.457H15.204C15.0997 205.457 15.0151 205.541 15.0151 205.644C15.0151 205.748 15.0997 205.832 15.204 205.832Z" fill="white"/>
</svg>
