<svg width="250" height="250" viewBox="0 0 250 250" fill="none" xmlns="http://www.w3.org/2000/svg">
<path d="M250 250H0V0.000427246H250V250Z" fill="#91B3FA"/>
<path d="M127.86 214.586C116.462 214.586 107.31 212.996 102.569 212.113C90.1724 209.806 79.0813 207.957 69.0854 203.296L173.671 204.33C157.656 212.4 141.217 214.586 127.86 214.586ZM34.2842 154.014C32.677 145.53 32.1946 136.628 32.7546 127.71L34.2842 154.014ZM208.636 84.1825L97.9573 82.3121C97.6932 81.7159 97.4493 81.1037 97.2323 80.4914C97.1359 80.2169 96.8772 80.046 96.6016 80.046C96.5274 80.046 96.4513 80.0581 96.3779 80.0837C96.0295 80.2075 95.8476 80.5896 95.9709 80.9382C96.1306 81.3903 96.3045 81.8411 96.4904 82.2865L45.6822 81.428C46.9499 79.0771 48.3041 76.7949 49.7418 74.5988C51.9323 71.2522 67.1152 48.7276 91.9486 37.3556C92.3185 37.3946 92.6871 37.4444 93.0511 37.5063C93.074 37.5103 93.0975 37.5116 93.1204 37.5116C93.3186 37.5116 93.4938 37.369 93.5275 37.1672C93.5571 36.9922 93.4722 36.8254 93.3274 36.7406C99.1926 34.1906 105.578 32.2758 112.441 31.3782C113.343 31.2611 114.016 31.1939 114.606 31.1306C116.046 30.9786 119.381 30.661 124.021 30.661C137.754 30.661 162.943 33.4384 184.49 51.4902C188.616 54.9471 195.256 61.1828 201.414 70.6938C204.159 74.9312 206.57 79.4553 208.636 84.1825ZM95.2963 74.4589C95.2701 74.4589 95.2431 74.4602 95.2161 74.4629C94.8495 74.5073 94.5874 74.8397 94.6313 75.2071C94.7196 75.9472 94.8401 76.6927 94.9904 77.4247C95.0093 77.5122 95.0436 77.5929 95.0908 77.6642C95.2141 77.8459 95.4217 77.9589 95.6454 77.9589C95.6906 77.9589 95.7357 77.9535 95.7809 77.9441C96.1434 77.8701 96.3766 77.5162 96.3018 77.1542C96.1589 76.4599 96.0437 75.7521 95.9601 75.0496C95.9196 74.7092 95.6306 74.4589 95.2963 74.4589ZM147.913 71.703C147.953 71.7811 147.995 71.8578 148.035 71.9304C148.525 72.7984 149.338 72.8845 149.338 72.8845C149.287 73.0043 149.497 73.1832 149.791 73.1832C150.04 73.1832 150.35 73.0554 150.615 72.653C150.677 72.2103 151.135 70.3318 150.907 69.9429C149.684 67.8733 148.202 67.6002 148.202 67.6002C147.874 68.0752 147.492 68.4654 147.272 69.0575C147.105 69.5069 147.13 70.0062 147.321 70.4489C147.349 70.5148 147.378 70.5821 147.411 70.6534C147.354 70.6386 147.296 70.6305 147.236 70.6305C147.229 70.6305 147.224 70.6305 147.217 70.6305C146.847 70.64 146.556 70.9481 146.566 71.3168C146.575 71.664 146.578 72.0152 146.574 72.361C146.571 72.5023 146.614 72.6342 146.687 72.7432C146.805 72.9195 147.006 73.0352 147.233 73.0392C147.236 73.0392 147.24 73.0392 147.243 73.0392C147.607 73.0392 147.906 72.7446 147.911 72.3785C147.914 72.1552 147.915 71.9291 147.913 71.703ZM95.1596 69.8205C94.8085 69.8205 94.514 70.095 94.4924 70.4502C94.4709 70.8149 94.4561 71.185 94.4494 71.5469C94.4465 71.6896 94.4891 71.8228 94.5632 71.9331C94.6811 72.108 94.8793 72.2238 95.1056 72.2278C95.1103 72.2278 95.1144 72.2278 95.1184 72.2278C95.4823 72.2278 95.7809 71.9372 95.7876 71.5725C95.7943 71.228 95.8078 70.8768 95.8286 70.5296C95.851 70.1609 95.5699 69.8447 95.2006 69.8218C95.1872 69.8218 95.173 69.8205 95.1596 69.8205ZM92.4655 71.1809C92.448 71.1809 92.4304 71.1823 92.4122 71.185C91.733 71.2724 91.0396 71.3195 90.3523 71.3235C90.1238 71.3249 89.9399 71.5119 89.9419 71.7394C89.9419 71.8241 89.9681 71.9035 90.012 71.9681C90.0861 72.0785 90.2121 72.1498 90.355 72.1498C90.3557 72.1498 90.357 72.1498 90.3577 72.1498C91.0787 72.1457 91.8057 72.0959 92.518 72.0045C92.7444 71.9762 92.9042 71.7676 92.8752 71.5415C92.8482 71.333 92.6696 71.1809 92.4655 71.1809ZM86.1595 70.8405C85.9729 70.8405 85.8031 70.9683 85.7579 71.158C85.7296 71.2751 85.7545 71.3922 85.8172 71.4864C85.8732 71.5685 85.9588 71.6317 86.0639 71.6559C86.7647 71.8241 87.4816 71.9506 88.1952 72.034C88.2115 72.0354 88.2277 72.0367 88.2431 72.0367C88.45 72.0367 88.6285 71.8806 88.6529 71.6707C88.6791 71.4433 88.5167 71.2388 88.2896 71.2119C87.6091 71.1338 86.9251 71.0127 86.2559 70.8526C86.2236 70.8445 86.1912 70.8405 86.1595 70.8405ZM82.2047 69.3697C82.0551 69.3697 81.911 69.4504 81.8375 69.5931C81.7654 69.7317 81.7802 69.8931 81.8617 70.0142C81.8995 70.0694 81.9507 70.1165 82.0147 70.1488C82.6535 70.4798 83.3193 70.7745 83.9937 71.0248C84.041 71.0437 84.0895 71.0517 84.1373 71.0517C84.3051 71.0517 84.4635 70.9481 84.5254 70.7813C84.6049 70.5673 84.4965 70.3291 84.2816 70.2497C83.638 70.0116 83.0032 69.7303 82.394 69.4154C82.3334 69.3845 82.2688 69.3697 82.2047 69.3697ZM78.7182 66.9919C78.603 66.9919 78.4891 67.039 78.4076 67.1332C78.2808 67.2772 78.2727 67.4844 78.3752 67.6365C78.3948 67.6647 78.4183 67.6917 78.4453 67.7159C78.9877 68.1909 79.5632 68.6376 80.1562 69.0427C80.2276 69.0911 80.3084 69.114 80.3886 69.114C80.5208 69.114 80.6508 69.0508 80.731 68.9337C80.8597 68.7453 80.8105 68.4896 80.6225 68.3591C80.0565 67.9729 79.5079 67.5477 78.9904 67.0942C78.9115 67.0256 78.8145 66.9919 78.7182 66.9919ZM146.418 64.8376C146.361 64.8376 146.305 64.8456 146.249 64.8591C145.892 64.952 145.676 65.3179 145.769 65.6759C145.949 66.3729 146.103 67.0861 146.223 67.7953C146.239 67.8922 146.275 67.981 146.326 68.0577C146.449 68.2393 146.656 68.3524 146.881 68.3524C146.918 68.3524 146.956 68.3497 146.994 68.343C147.357 68.2824 147.603 67.9366 147.541 67.5719C147.416 66.8251 147.255 66.0742 147.065 65.3395C146.987 65.0381 146.715 64.8376 146.418 64.8376ZM75.9089 63.8418C75.8273 63.8418 75.7451 63.866 75.6738 63.9158C75.4878 64.045 75.4399 64.2993 75.5665 64.4864L75.5692 64.4904C75.9803 65.0825 76.4311 65.6544 76.9089 66.1913C76.9905 66.2828 77.1037 66.3285 77.2175 66.3285C77.3152 66.3285 77.4136 66.2949 77.4924 66.2236C77.6629 66.0729 77.675 65.8118 77.5262 65.6409C77.0699 65.1296 76.6408 64.5832 76.2485 64.0194C76.1683 63.9037 76.0397 63.8418 75.9089 63.8418ZM73.9332 60.109C73.8839 60.109 73.8342 60.1184 73.7856 60.1372C73.572 60.2193 73.4661 60.4575 73.5477 60.6715C73.8058 61.3429 74.1071 62.005 74.444 62.6415C74.4514 62.6549 74.4588 62.6671 74.4669 62.6792C74.5457 62.7962 74.675 62.8608 74.8099 62.8608C74.8746 62.8608 74.9412 62.846 75.0026 62.8137C75.2047 62.7061 75.2815 62.4558 75.1744 62.2539C74.8536 61.647 74.5659 61.0146 74.3193 60.3741C74.2566 60.2112 74.0996 60.109 73.9332 60.109ZM144.329 59.3931C144.224 59.3931 144.119 59.4173 144.021 59.4685C143.693 59.638 143.565 60.0431 143.734 60.3714C144.066 61.0106 144.375 61.6726 144.65 62.3374C144.667 62.3791 144.689 62.4194 144.714 62.4558C144.839 62.6415 145.049 62.7505 145.269 62.7505C145.353 62.7505 145.441 62.733 145.524 62.698C145.866 62.5567 146.027 62.1651 145.886 61.8233C145.596 61.1249 145.273 60.4292 144.923 59.7551C144.806 59.525 144.571 59.3931 144.329 59.3931ZM72.9129 56.0115C72.8961 56.0115 72.88 56.0129 72.8631 56.0155C72.636 56.0425 72.4749 56.2484 72.5025 56.4758C72.5901 57.1903 72.7223 57.9062 72.8968 58.6046C72.9089 58.653 72.9291 58.6974 72.9555 58.7364C73.0316 58.8495 73.1603 58.9194 73.2978 58.9194C73.3308 58.9194 73.3644 58.9154 73.3975 58.906C73.6191 58.8508 73.754 58.6274 73.6987 58.4054C73.5329 57.7393 73.4069 57.0557 73.3234 56.3748C73.297 56.1663 73.1184 56.0115 72.9129 56.0115ZM141.09 54.5448C140.938 54.5448 140.785 54.5959 140.66 54.7022C140.396 54.9242 140.346 55.3077 140.536 55.5876C140.549 55.6078 140.564 55.6267 140.579 55.6455C141.043 56.1945 141.489 56.7718 141.904 57.3612C142.034 57.5455 142.241 57.6438 142.451 57.6438C142.585 57.6438 142.72 57.6047 142.837 57.5213C143.134 57.3114 143.208 56.901 143.005 56.6009L142.997 56.5888C142.56 55.9684 142.09 55.3616 141.603 54.7829C141.471 54.6255 141.281 54.5448 141.09 54.5448ZM72.8146 52.8493C72.5975 52.8493 72.4156 53.0188 72.4021 53.2381C72.3819 53.5853 72.3705 53.9406 72.3705 54.2945C72.3705 54.3806 72.3961 54.46 72.4413 54.5259C72.5154 54.6363 72.6407 54.7076 72.7836 54.7089C72.7836 54.7089 72.7836 54.7089 72.7843 54.7089C73.012 54.7089 73.1966 54.5232 73.1973 54.2958C73.1973 53.9581 73.208 53.619 73.2277 53.2879C73.2411 53.0605 73.0673 52.8641 72.8401 52.8506C72.8314 52.8493 72.8233 52.8493 72.8146 52.8493ZM136.858 50.5388C136.655 50.5388 136.455 50.6303 136.323 50.8052C136.146 51.0394 136.148 51.3529 136.303 51.583C136.343 51.6422 136.394 51.6974 136.456 51.7431C137.031 52.1751 137.593 52.638 138.129 53.1184C138.258 53.2328 138.417 53.2893 138.575 53.2893C138.76 53.2893 138.943 53.2139 139.075 53.0659C139.321 52.7914 139.297 52.3689 139.022 52.1213C138.458 51.6153 137.866 51.1282 137.261 50.6734C137.14 50.5818 136.998 50.5388 136.858 50.5388ZM106.162 50.0624C106.029 50.0624 105.894 50.1015 105.777 50.1849C105.156 50.6209 104.547 51.0892 103.967 51.5749C103.703 51.797 103.653 52.1818 103.843 52.4617C103.856 52.4805 103.87 52.5007 103.885 52.5182C104.018 52.6757 104.207 52.7578 104.399 52.7578C104.55 52.7578 104.703 52.7053 104.829 52.6003C105.379 52.1388 105.957 51.6947 106.547 51.2789C106.846 51.069 106.92 50.6586 106.717 50.3571L106.709 50.3464C106.579 50.162 106.372 50.0624 106.162 50.0624ZM131.838 47.5797C131.583 47.5797 131.338 47.7278 131.227 47.9767C131.129 48.196 131.158 48.4396 131.283 48.6239C131.351 48.7249 131.446 48.8069 131.565 48.8608C132.221 49.1541 132.874 49.4798 133.504 49.8283C133.607 49.8862 133.718 49.9131 133.827 49.9131C134.063 49.9131 134.292 49.7879 134.414 49.5672C134.592 49.2443 134.476 48.8366 134.152 48.6576C133.49 48.2902 132.802 47.9484 132.111 47.6389C132.022 47.5986 131.93 47.5797 131.838 47.5797ZM111.271 47.2554C111.186 47.2554 111.1 47.2729 111.017 47.3066C110.318 47.5945 109.622 47.9175 108.947 48.2647C108.618 48.4342 108.489 48.8379 108.659 49.1662C108.671 49.1905 108.684 49.2133 108.699 49.2349C108.826 49.4232 109.037 49.5296 109.254 49.5296C109.357 49.5296 109.462 49.5053 109.56 49.4556C110.201 49.1245 110.863 48.8177 111.527 48.5446C111.868 48.4033 112.031 48.0117 111.891 47.6699C111.783 47.4115 111.534 47.2554 111.271 47.2554ZM126.283 45.8075C125.971 45.8075 125.692 46.0269 125.628 46.3458C125.591 46.5274 125.633 46.7077 125.73 46.8517C125.825 46.9917 125.973 47.0966 126.153 47.133C126.858 47.2743 127.566 47.4479 128.259 47.6484C128.321 47.6658 128.384 47.6753 128.446 47.6753C128.736 47.6753 129.003 47.4842 129.088 47.1922C129.191 46.8369 128.987 46.4655 128.632 46.3633C127.903 46.152 127.157 45.969 126.416 45.821C126.371 45.8116 126.327 45.8075 126.283 45.8075ZM105.178 44.9019C105.104 44.9019 105.029 44.9207 104.962 44.9611C104.766 45.0795 104.703 45.3339 104.821 45.529C104.868 45.607 104.914 45.6851 104.96 45.7645C105.266 46.2933 105.545 46.8396 105.79 47.3913C105.8 47.4142 105.812 47.4344 105.825 47.4546C105.903 47.5703 106.033 47.6362 106.168 47.6362C106.224 47.6362 106.281 47.6255 106.335 47.6013C106.544 47.5084 106.638 47.2635 106.545 47.0549C106.288 46.4776 105.996 45.9044 105.676 45.3527C105.629 45.2679 105.579 45.1858 105.529 45.1024C105.457 44.9719 105.319 44.9019 105.178 44.9019ZM116.876 45.6528C116.84 45.6528 116.803 45.6568 116.766 45.6622C116.018 45.7873 115.267 45.9461 114.533 46.1358C114.175 46.2274 113.96 46.592 114.052 46.95C114.071 47.0267 114.104 47.0966 114.145 47.1585C114.269 47.3402 114.477 47.4532 114.699 47.4532C114.755 47.4532 114.811 47.4465 114.866 47.4317C115.564 47.2527 116.277 47.1007 116.986 46.9823C117.351 46.9217 117.597 46.5772 117.536 46.2126C117.482 45.8856 117.198 45.6528 116.876 45.6528ZM121.154 46.6378C121.657 46.6378 122.161 46.6526 122.66 46.6822C122.674 46.6822 122.687 46.6835 122.701 46.6835C123.052 46.6835 123.347 46.409 123.368 46.0538C123.389 45.6851 123.108 45.3675 122.74 45.346C122.213 45.315 121.681 45.2989 121.151 45.2989C120.919 45.2989 120.688 45.3016 120.457 45.3083C120.088 45.3177 119.796 45.6245 119.806 45.9946C119.809 46.1264 119.851 46.2489 119.92 46.3512C120.04 46.5288 120.245 46.6459 120.475 46.6459C120.481 46.6459 120.486 46.6459 120.492 46.6459C120.712 46.6405 120.933 46.6378 121.154 46.6378ZM102.534 41.5203C102.427 41.5203 102.321 41.562 102.24 41.6428C102.099 41.784 102.082 42.0047 102.191 42.1649C102.205 42.1864 102.222 42.2079 102.242 42.2268C102.734 42.7179 103.202 43.2468 103.633 43.7971C103.715 43.9021 103.836 43.9559 103.959 43.9559C104.048 43.9559 104.138 43.9277 104.213 43.8685C104.393 43.7285 104.422 43.4702 104.285 43.2885C103.833 42.7099 103.341 42.1568 102.825 41.6414C102.744 41.5607 102.639 41.5203 102.534 41.5203ZM99.144 38.8923C99.0033 38.8923 98.8657 38.9649 98.7882 39.0941C98.704 39.2368 98.7148 39.409 98.8017 39.5368C98.8348 39.5866 98.8785 39.6283 98.9332 39.6606C99.5328 40.0172 100.116 40.4142 100.666 40.8408C100.742 40.9 100.831 40.9282 100.919 40.9282C101.042 40.9282 101.164 40.873 101.246 40.7681C101.386 40.5878 101.353 40.3281 101.173 40.1881C100.595 39.74 99.9844 39.3229 99.3549 38.9501C99.289 38.9111 99.2161 38.8923 99.144 38.8923ZM95.2141 37.1725C95.0362 37.1725 94.8718 37.2883 94.8179 37.4672C94.7808 37.591 94.8045 37.7175 94.8718 37.8171C94.923 37.8938 95.0005 37.953 95.0955 37.9813C95.7647 38.1818 96.4277 38.424 97.0665 38.7039C97.1205 38.7268 97.1764 38.7389 97.2316 38.7389C97.3907 38.7389 97.543 38.646 97.6104 38.4899C97.702 38.2814 97.607 38.0378 97.3974 37.9463C96.7282 37.6529 96.0336 37.3986 95.3321 37.1887C95.2929 37.1779 95.2532 37.1725 95.2141 37.1725Z" fill="url(#paint0_linear)"/>
<path d="M208.005 204.668C207.981 204.668 207.955 204.667 207.931 204.667L173.672 204.328L69.0856 203.294L46.5815 203.072C41.2601 203.019 36.8863 198.76 36.5702 193.322L34.2844 154.012L32.7548 127.708L30.7924 93.9623C30.3948 87.123 35.7099 81.3733 42.3769 81.3733C42.4417 81.3733 42.5079 81.3733 42.573 81.3746L45.6823 81.427L96.4905 82.2852C96.593 82.5326 96.6995 82.7774 96.8092 83.0209C96.8255 83.0558 96.8443 83.0881 96.8652 83.119C96.9912 83.306 97.2008 83.4136 97.4197 83.4136C97.5121 83.4136 97.6057 83.3948 97.6948 83.3544C98.0317 83.2024 98.1813 82.8057 98.029 82.4694C98.0053 82.4156 97.9811 82.3632 97.9575 82.3107L208.637 84.1802L210.429 84.2098C215.446 84.2959 219.413 88.585 219.221 93.7175L215.361 197.417C215.21 201.469 211.958 204.668 208.005 204.668ZM33.3061 102.711L38.5348 190.55C38.8427 195.724 43.1023 199.776 48.2848 199.826L205.424 201.345C205.447 201.345 205.471 201.345 205.494 201.345C209.345 201.345 212.512 198.301 212.66 194.446L216.156 102.711H216.497L216.762 95.7565C216.949 90.854 213.069 86.7559 208.162 86.6752L44.0032 83.965C43.9392 83.9637 43.8752 83.9637 43.8114 83.9637C37.2919 83.9637 32.0933 89.4579 32.4823 95.9918L32.8821 102.711H33.3061Z" fill="url(#paint1_linear)"/>
<path d="M205.495 201.348C205.471 201.348 205.447 201.348 205.423 201.347L48.2847 199.829C43.1022 199.779 38.8425 195.726 38.5346 190.552L33.3059 102.715H38.4373L43.5647 188.853C43.8579 193.78 47.9141 197.639 52.849 197.686L202.483 199.132C202.506 199.132 202.527 199.132 202.549 199.132C206.215 199.132 209.233 196.234 209.373 192.563L212.796 102.715H216.155L212.66 194.449C212.512 198.304 209.344 201.348 205.495 201.348Z" fill="url(#paint2_linear)"/>
<path d="M204.798 90.0024L49.1318 87.4331C42.8644 87.3298 37.8343 92.5809 38.2067 98.8375L43.5649 188.854C43.858 193.78 47.9143 197.639 52.8492 197.686L202.483 199.132C206.179 199.168 209.232 196.257 209.374 192.563L212.952 98.6152C213.13 93.9656 209.451 90.0796 204.798 90.0024Z" fill="#91B3FA"/>
<path d="M216.497 102.711H216.155H212.797H38.4373H33.306H32.8821L32.4822 95.991C32.0932 89.4572 37.2919 83.9621 43.8113 83.9621C43.8752 83.9621 43.9391 83.9621 44.0033 83.9635L208.163 86.6738C213.07 86.7549 216.949 90.8536 216.763 95.7556L216.497 102.711ZM204.478 97.2118C203.662 97.2118 203.001 97.8728 203.001 98.688C203.001 99.5032 203.662 100.164 204.478 100.164C205.293 100.164 205.954 99.5032 205.954 98.688C205.954 97.8728 205.293 97.2118 204.478 97.2118ZM117.834 97.2092C117.503 97.2092 117.215 97.4539 117.171 97.7917C117.149 97.9606 117.191 98.1215 117.28 98.2518C117.383 98.4047 117.55 98.5165 117.748 98.5417C118.489 98.6375 119.241 98.7026 119.985 98.7372C119.995 98.7385 120.005 98.7386 120.016 98.7386C120.372 98.7386 120.668 98.4593 120.684 98.0989C120.701 97.7305 120.415 97.418 120.046 97.4007C119.34 97.3688 118.625 97.3063 117.921 97.2145C117.892 97.2105 117.863 97.2092 117.834 97.2092ZM125.742 97.027C125.704 97.027 125.664 97.031 125.625 97.0376C124.928 97.1613 124.216 97.2571 123.51 97.3222C123.142 97.3555 122.871 97.6813 122.905 98.0483C122.916 98.1654 122.956 98.2718 123.016 98.3622C123.138 98.5417 123.343 98.6574 123.571 98.6574C123.591 98.6574 123.612 98.6561 123.632 98.6548C124.376 98.5869 125.125 98.4859 125.859 98.3555C126.222 98.2904 126.465 97.9433 126.4 97.5789C126.343 97.2557 126.061 97.027 125.742 97.027ZM112.261 95.85C111.987 95.85 111.731 96.0189 111.632 96.2902C111.555 96.5003 111.59 96.7224 111.706 96.894C111.782 97.007 111.894 97.0975 112.032 97.148C112.733 97.402 113.453 97.6307 114.172 97.8262C114.231 97.8422 114.29 97.8502 114.348 97.8502C114.642 97.8502 114.913 97.6547 114.993 97.3568C115.09 96.9991 114.88 96.6307 114.523 96.5349C113.84 96.3501 113.156 96.132 112.489 95.8899C112.414 95.8633 112.336 95.85 112.261 95.85ZM131.245 95.4032C131.158 95.4032 131.071 95.4205 130.986 95.455C130.333 95.7303 129.66 95.9804 128.987 96.1985C128.636 96.3115 128.444 96.6892 128.557 97.0403C128.577 97.1028 128.605 97.1586 128.64 97.2092C128.764 97.3927 128.973 97.5044 129.194 97.5044C129.262 97.5044 129.332 97.4938 129.4 97.4712C130.109 97.2411 130.817 96.9791 131.505 96.6892C131.845 96.5456 132.006 96.1546 131.863 95.8128C131.755 95.5575 131.506 95.4032 131.245 95.4032ZM204.478 92.8857C203.662 92.8857 203.001 93.5467 203.001 94.3619C203.001 95.1771 203.662 95.8381 204.478 95.8381C205.293 95.8381 205.954 95.1771 205.954 94.3619C205.954 93.5467 205.293 92.8857 204.478 92.8857ZM107.119 93.3099C106.899 93.3099 106.683 93.419 106.555 93.6198C106.406 93.8512 106.419 94.1411 106.564 94.3552C106.614 94.4284 106.679 94.4935 106.758 94.5441C107.385 94.9444 108.038 95.3247 108.699 95.6718C108.798 95.725 108.905 95.7503 109.01 95.7503C109.25 95.7503 109.483 95.62 109.603 95.3925C109.775 95.0654 109.65 94.6611 109.322 94.4882C108.695 94.1571 108.075 93.7967 107.479 93.4163C107.368 93.3445 107.243 93.3099 107.119 93.3099ZM136.261 92.6171C136.126 92.6171 135.991 92.657 135.874 92.7407C135.721 92.8485 135.567 92.9562 135.41 93.0612C134.979 93.3525 134.532 93.6358 134.082 93.9004C133.765 94.0879 133.658 94.4989 133.846 94.8167C133.854 94.8287 133.86 94.8406 133.868 94.8513C133.996 95.0415 134.207 95.1465 134.423 95.1465C134.539 95.1465 134.656 95.1159 134.762 95.0534C135.235 94.7741 135.705 94.4776 136.158 94.1704C136.323 94.06 136.486 93.947 136.646 93.8339C136.948 93.6198 137.029 93.2022 136.807 92.9003C136.677 92.7155 136.47 92.6171 136.261 92.6171ZM102.66 89.7073C102.49 89.7073 102.32 89.7711 102.189 89.9001C101.957 90.1302 101.929 90.4879 102.105 90.7499C102.128 90.7845 102.154 90.8164 102.184 90.847C102.708 91.3763 103.262 91.8896 103.83 92.375C103.956 92.4827 104.11 92.5346 104.264 92.5346C104.453 92.5346 104.641 92.4548 104.773 92.3005C105.013 92.0186 104.979 91.597 104.698 91.3563C104.158 90.8962 103.633 90.4081 103.136 89.9054C103.005 89.7738 102.833 89.7073 102.66 89.7073ZM139.782 89.6222C139.609 89.6222 139.437 89.6886 139.305 89.823C139.062 90.0703 138.81 90.315 138.559 90.5504C138.315 90.7792 138.281 91.1449 138.462 91.4122C138.482 91.4428 138.503 91.4707 138.528 91.4973C138.66 91.6369 138.838 91.7087 139.018 91.7087C139.181 91.7087 139.345 91.6489 139.474 91.5279C139.74 91.2792 140.003 91.0212 140.26 90.7605C140.519 90.4972 140.516 90.0743 140.252 89.815C140.121 89.686 139.953 89.6222 139.782 89.6222ZM204.478 88.5596C203.662 88.5596 203.001 89.2205 203.001 90.0357C203.001 90.851 203.662 91.5119 204.478 91.5119C205.293 91.5119 205.954 90.851 205.954 90.0357C205.954 89.2205 205.293 88.5596 204.478 88.5596ZM99.0998 85.2082C98.9785 85.2082 98.8553 85.2415 98.7446 85.3106C98.432 85.5075 98.337 85.9197 98.5338 86.2336C98.6982 86.4969 98.8674 86.7549 99.0392 87.0102C99.2851 87.3746 99.5425 87.7364 99.8033 88.0835C99.9347 88.2603 100.136 88.3521 100.339 88.3521C100.479 88.3521 100.62 88.3096 100.74 88.2191C101.036 87.997 101.096 87.5781 100.875 87.2815C100.453 86.719 100.049 86.1285 99.6678 85.5221C99.5419 85.32 99.3235 85.2082 99.0998 85.2082Z" fill="url(#paint3_linear)"/>
<path d="M204.477 91.5117C203.663 91.5117 203.002 90.8509 203.002 90.0359C203.002 89.2197 203.663 88.5588 204.477 88.5588C205.294 88.5588 205.955 89.2197 205.955 90.0359C205.955 90.8509 205.294 91.5117 204.477 91.5117Z" fill="url(#paint4_linear)"/>
<path d="M204.477 95.8398C203.663 95.8398 203.002 95.1778 203.002 94.3628C203.002 93.5466 203.663 92.8857 204.477 92.8857C205.294 92.8857 205.955 93.5466 205.955 94.3628C205.955 95.1778 205.294 95.8398 204.477 95.8398Z" fill="url(#paint5_linear)"/>
<path d="M204.477 100.168C203.663 100.168 203.002 99.5059 203.002 98.6909C203.002 97.8759 203.663 97.2151 204.477 97.2151C205.294 97.2151 205.955 97.8759 205.955 98.6909C205.955 99.5059 205.294 100.168 204.477 100.168Z" fill="url(#paint6_linear)"/>
<path d="M196.239 194.188H180.548C178.211 194.188 176.315 192.292 176.315 189.954V148.805C176.315 146.467 178.211 144.572 180.548 144.572H198.255C200.672 144.572 202.6 146.596 202.482 149.012L200.467 190.161C200.357 192.416 198.496 194.188 196.239 194.188Z" fill="#C7D8FC"/>
<path d="M199 137.789H137.895C135.558 137.789 133.662 135.894 133.662 133.557V111.466C133.662 109.125 135.561 107.232 137.894 107.232C137.917 107.232 137.938 107.232 137.961 107.233L200.101 108.192C202.493 108.23 204.38 110.242 204.263 112.632L203.229 133.764C203.118 136.018 201.258 137.789 199 137.789Z" fill="#C7D8FC"/>
<path d="M166.833 194.188H137.896C135.558 194.188 133.663 192.292 133.663 189.954V148.805C133.663 146.467 135.558 144.572 137.896 144.572H166.833C169.171 144.572 171.067 146.467 171.067 148.805V189.954C171.067 192.292 169.171 194.188 166.833 194.188Z" fill="#C7D8FC"/>
<path d="M102.065 118.762C102.065 124.632 106.824 129.391 112.695 129.391C118.565 129.391 123.324 124.632 123.324 118.762C123.324 112.891 118.565 108.132 112.695 108.132C106.824 108.132 102.065 112.891 102.065 118.762Z" fill="url(#paint7_linear)"/>
<path d="M75.6482 118.762C75.6482 124.632 80.4076 129.391 86.2775 129.391C92.1483 129.391 96.9066 124.632 96.9066 118.762C96.9066 112.891 92.1483 108.132 86.2775 108.132C80.4076 108.132 75.6482 112.891 75.6482 118.762Z" fill="url(#paint8_linear)"/>
<path d="M49.2314 119.109C49.2314 124.98 53.9903 129.738 59.8608 129.738C65.7313 129.738 70.4901 124.98 70.4901 119.109C70.4901 113.239 65.7313 108.48 59.8608 108.48C53.9903 108.48 49.2314 113.239 49.2314 119.109Z" fill="url(#paint9_linear)"/>
<path d="M106.38 116.512C106.05 117.312 105.868 118.188 105.868 119.107C105.868 122.878 108.925 125.934 112.695 125.934C116.466 125.934 119.524 122.878 119.524 119.107C119.524 115.336 116.466 112.279 112.695 112.279C112.58 112.279 112.466 112.283 112.351 112.288V110.558C112.466 110.553 112.58 110.55 112.695 110.55C117.422 110.55 121.253 114.381 121.253 119.107C121.253 123.833 117.422 127.664 112.695 127.664C107.969 127.664 104.138 123.833 104.138 119.107C104.138 117.943 104.371 116.834 104.792 115.823L106.38 116.512Z" fill="url(#paint10_linear)"/>
<path d="M82.7564 124.884C83.8096 125.548 85.0562 125.934 86.394 125.934C90.1651 125.934 93.221 122.878 93.221 119.107C93.221 115.336 90.1651 112.279 86.394 112.279C86.2785 112.279 86.1639 112.283 86.0492 112.288V110.558C86.1639 110.553 86.2785 110.55 86.394 110.55C91.1207 110.55 94.9509 114.381 94.9509 119.107C94.9509 123.833 91.1207 127.664 86.394 127.664C84.7449 127.664 83.2045 127.197 81.8979 126.388L82.7564 124.884Z" fill="url(#paint11_linear)"/>
<path d="M54.1632 122.946C55.3921 124.75 57.4622 125.934 59.8096 125.934C63.5804 125.934 66.6372 122.878 66.6372 119.107C66.6372 115.336 63.5804 112.279 59.8096 112.279C59.6941 112.279 59.5792 112.283 59.4652 112.288V110.558C59.5795 110.553 59.6942 110.55 59.8096 110.55C64.5355 110.55 68.3668 114.381 68.3668 119.107C68.3668 123.833 64.5355 127.664 59.8096 127.664C56.886 127.664 54.3053 126.198 52.7617 123.961L54.1632 122.946Z" fill="url(#paint12_linear)"/>
<path d="M121.357 137.828H104.035C102.947 137.828 102.066 136.947 102.066 135.859C102.066 134.772 102.947 133.891 104.035 133.891H121.357C122.444 133.891 123.325 134.772 123.325 135.859C123.325 136.947 122.444 137.828 121.357 137.828Z" fill="#D7E4FD"/>
<path d="M94.9383 137.832H77.617C76.5293 137.832 75.6482 136.95 75.6482 135.862C75.6482 134.776 76.5293 133.894 77.617 133.894H94.9383C96.0253 133.894 96.9064 134.776 96.9064 135.862C96.9064 136.95 96.0253 137.832 94.9383 137.832Z" fill="#D7E4FD"/>
<path d="M68.5214 137.832H51.1998C50.1125 137.832 49.2312 136.95 49.2312 135.862C49.2312 134.776 50.1125 133.894 51.1998 133.894H68.5214C69.6084 133.894 70.4897 134.776 70.4897 135.862C70.4897 136.95 69.6084 137.832 68.5214 137.832Z" fill="#D7E4FD"/>
<path d="M121.357 155.547H104.035C102.947 155.547 102.066 154.666 102.066 153.579V141.986C102.066 140.899 102.947 140.018 104.035 140.018H121.357C122.444 140.018 123.325 140.899 123.325 141.986V153.579C123.325 154.666 122.444 155.547 121.357 155.547Z" fill="#D7E4FD"/>
<path d="M94.9383 155.547H77.6171C76.5294 155.547 75.6482 154.665 75.6482 153.579V141.985C75.6482 140.898 76.5294 140.017 77.6171 140.017H94.9383C96.0253 140.017 96.9065 140.898 96.9065 141.985V153.579C96.9065 154.665 96.0253 155.547 94.9383 155.547Z" fill="#D7E4FD"/>
<path d="M68.5214 155.547H51.1996C50.1124 155.547 49.231 154.665 49.231 153.579V141.985C49.231 140.898 50.1124 140.017 51.1996 140.017H68.5214C69.6084 140.017 70.4896 140.898 70.4896 141.985V153.579C70.4896 154.665 69.6084 155.547 68.5214 155.547Z" fill="#D7E4FD"/>
<path d="M167.694 171.057V186.679C167.694 189.122 165.715 191.102 163.272 191.102H141.876C139.367 191.102 137.333 189.069 137.333 186.56V163.038C137.333 161.059 139.777 160.125 141.097 161.601L145.233 166.221C146.824 168 149.518 168.25 151.41 166.795L151.806 166.491C153.264 165.368 155.31 165.418 156.712 166.611L158.976 168.536C160.719 170.019 163.155 170.377 165.252 169.46C166.404 168.956 167.694 169.8 167.694 171.057Z" fill="#91B3FA"/>
<path d="M114.168 192.777H117.607V177.215H114.168V192.777Z" fill="url(#paint13_linear)"/>
<path d="M108.423 192.777H111.861V182.563H108.423V192.777Z" fill="url(#paint14_linear)"/>
<path d="M102.678 192.777H106.116V169.344H102.678V192.777Z" fill="url(#paint15_linear)"/>
<path d="M96.9321 192.777H100.371V187.148H96.9321V192.777Z" fill="url(#paint16_linear)"/>
<path d="M91.1865 192.777H94.6252V172.477H91.1865V192.777Z" fill="url(#paint17_linear)"/>
<path d="M85.4414 192.777H88.8801V175.992H85.4414V192.777Z" fill="url(#paint18_linear)"/>
<path d="M79.696 192.777H83.134V179.812H79.696V192.777Z" fill="url(#paint19_linear)"/>
<path d="M73.9507 192.777H77.3887V164.607H73.9507V192.777Z" fill="url(#paint20_linear)"/>
<path d="M68.2048 192.777H71.6435V167.587H68.2048V192.777Z" fill="url(#paint21_linear)"/>
<path d="M62.4597 192.777H65.8982V172.095H62.4597V192.777Z" fill="url(#paint22_linear)"/>
<path d="M56.7144 192.777H60.1528V187.67H56.7144V192.777Z" fill="url(#paint23_linear)"/>
<path d="M50.9688 192.777H54.4072V177.75H50.9688V192.777Z" fill="url(#paint24_linear)"/>
<path d="M128.668 167.32H112.889C112.196 167.32 111.634 166.758 111.634 166.066C111.634 165.372 112.196 164.81 112.889 164.81H128.668C129.36 164.81 129.922 165.372 129.922 166.066C129.922 166.758 129.36 167.32 128.668 167.32Z" fill="#CDDCFD"/>
<path d="M128.668 163.391H112.889C112.196 163.391 111.634 162.829 111.634 162.135C111.634 161.443 112.196 160.881 112.889 160.881H128.668C129.36 160.881 129.922 161.443 129.922 162.135C129.922 162.829 129.36 163.391 128.668 163.391Z" fill="#CDDCFD"/>
<path d="M100.203 167.316H84.4251C83.7317 167.316 83.1697 166.754 83.1697 166.062C83.1697 165.368 83.7317 164.806 84.4251 164.806H100.203C100.896 164.806 101.458 165.368 101.458 166.062C101.458 166.754 100.896 167.316 100.203 167.316Z" fill="#CDDCFD"/>
<path d="M100.203 163.391H84.4251C83.7317 163.391 83.1697 162.829 83.1697 162.135C83.1697 161.442 83.7317 160.88 84.4251 160.88H100.203C100.896 160.88 101.458 161.442 101.458 162.135C101.458 162.829 100.896 163.391 100.203 163.391Z" fill="#CDDCFD"/>
<path d="M56.4429 205.285C56.4429 205.285 56.1634 206.867 56.0264 208.434C55.9728 209.046 56.4448 209.577 57.0588 209.603C59.1449 209.69 63.6072 209.859 65.2084 209.788C65.4491 209.777 65.6066 209.53 65.5175 209.306C65.4428 209.119 65.2988 208.967 65.1154 208.883L57.7445 205.495L56.4429 205.285Z" fill="url(#paint25_linear)"/>
<path d="M56.2139 204.353L56.4384 206.246C56.4384 206.246 57.7296 206.847 58.6114 206.17L58.0767 204.061L56.2139 204.353Z" fill="url(#paint26_linear)"/>
<path d="M56.3826 168.765C56.2856 169.26 55.8618 193.433 58.4457 204.266C58.4879 204.442 58.3983 204.624 58.2301 204.693C57.8337 204.855 57.0569 205.09 56.1257 205.121C55.8373 205.13 55.5788 204.943 55.4974 204.666C54.7589 202.153 51.2196 189.56 50.7579 177.53C50.242 164.089 50.7579 177.073 50.7579 177.073L51.0605 168.764L56.3826 168.765Z" fill="url(#paint27_linear)"/>
<path d="M47.9639 206.109C47.9639 206.109 47.519 206.908 47.0882 209.031C47.0104 209.415 47.2783 209.781 47.6675 209.82C48.3564 209.888 49.4169 209.975 50.2663 209.968C50.6578 209.966 50.9635 209.625 50.9163 209.236C50.8222 208.461 50.5291 207.19 49.6235 206.199L47.9639 206.109Z" fill="url(#paint28_linear)"/>
<path d="M47.5732 203.676L48.098 206.538C48.098 206.538 48.6168 206.924 49.6433 206.644L49.3928 203.565L47.5732 203.676Z" fill="url(#paint29_linear)"/>
<path d="M46.1553 169.509C44.042 182.263 46.6137 201.031 47.4811 204.705C47.5342 204.929 47.7158 205.102 47.9436 205.139C48.3308 205.204 48.9682 205.256 49.5966 205.073C49.8131 205.011 49.9652 204.815 49.9741 204.59C50.0904 201.621 49.8809 183.388 51.8501 176.183C51.9499 175.818 52.1729 175.499 52.4814 175.28L56.3033 172.563L56.5963 168.171L46.1553 169.509Z" fill="url(#paint30_linear)"/>
<path d="M59.6213 145.345C53.2881 145.24 46.3002 147.007 46.3002 147.007C44.4125 158.023 45.9702 170.728 45.9702 170.728C50.8731 172.013 56.4039 169.942 56.4039 169.942C57.2188 165.338 61.021 152.38 61.021 152.38C64.1154 151.997 66.6644 151.104 68.7634 149.923C67.1624 148.067 66.4075 145.705 66.0797 144.309C63.8405 145.005 61.5747 145.377 59.6213 145.345Z" fill="url(#paint31_linear)"/>
<path d="M78.3285 136.015C77.7063 135.264 76.9197 135.62 76.9197 135.62C75.9871 139.556 71.1009 142.748 66.0801 144.308C66.4079 145.704 67.1627 148.067 68.7637 149.922C77.096 145.238 78.3285 136.015 78.3285 136.015Z" fill="url(#paint32_linear)"/>
<path d="M78.1772 136.209C78.2431 136.416 77.4886 136.731 77.0456 135.884C77.0301 135.479 76.7823 133.74 77.0249 133.411C78.3163 131.65 80.8192 129.444 80.8192 129.444C81.2422 129.861 80.8939 130.272 80.8939 130.272L79.6794 131.536C79.9338 131.995 80.2437 132.382 80.3887 132.938C80.4982 133.358 80.4309 133.807 80.2186 134.19C80.0056 134.574 79.7142 135.073 79.4405 135.464C78.9191 136.203 78.1772 136.209 78.1772 136.209Z" fill="url(#paint33_linear)"/>
<path d="M79.1479 132.358L78.0415 133.296L77.6936 134.23L78.6802 135.324C78.6802 135.324 79.0122 133.471 79.2583 133.07C79.5052 132.669 79.3774 132.475 79.1479 132.358Z" fill="url(#paint34_linear)"/>
<path d="M48.7297 153.139L46.3005 147.006C46.3005 147.006 40.385 151.026 39.4121 156.122C40.5298 156.204 42.5638 156.495 44.5546 157.5C44.992 155.094 48.7297 153.139 48.7297 153.139Z" fill="url(#paint35_linear)"/>
<path d="M53.8989 158.909C53.8989 158.909 47.2573 162.663 45.0163 159.458C44.551 158.792 44.4398 158.131 44.5544 157.5C42.5636 156.495 40.5297 156.204 39.412 156.122C39.1186 157.658 39.2737 159.292 40.1764 160.944C44.1019 168.124 54.7779 160.547 54.7779 160.547L53.8989 158.909Z" fill="url(#paint36_linear)"/>
<path d="M53.101 163.656L56.7257 150.998C56.7668 150.854 56.8894 150.749 57.0379 150.732C57.6946 150.655 59.5976 150.44 61.7948 150.254C64.4414 150.03 67.5147 149.849 69.3517 150.004C69.6125 150.026 69.7701 150.301 69.6542 150.537C68.6098 152.65 64.3137 161.245 62.1625 164.06C62.0912 164.154 61.9809 164.208 61.8636 164.207L53.4535 164.129C53.2088 164.126 53.0336 163.892 53.101 163.656Z" fill="url(#paint37_linear)"/>
<path d="M62.1708 149.16L64.7989 148.722C64.9388 148.698 65.0535 148.832 65.009 148.967L64.7489 149.755C64.7262 149.824 64.6663 149.873 64.5947 149.883L62.0658 150.221C61.9349 150.238 61.827 150.119 61.8571 149.991L62.0182 149.302C62.0355 149.228 62.0958 149.172 62.1708 149.16Z" fill="url(#paint38_linear)"/>
<path d="M60.203 151.382L60.4195 150.254C60.4412 150.141 60.5346 150.055 60.6492 150.044L65.9572 149.505C66.1359 149.487 66.2789 149.651 66.237 149.825L65.8995 151.23C65.8724 151.343 65.7747 151.424 65.6592 151.43L60.4722 151.691C60.3033 151.699 60.1711 151.548 60.203 151.382Z" fill="url(#paint39_linear)"/>
<path d="M53.9766 160.597C53.9766 160.597 53.4717 158.521 53.6754 157.785C53.879 157.048 54.2737 156.101 55.589 156.312C56.9044 156.522 58.4561 157.076 58.4561 157.076C58.4561 157.076 58.3777 158.036 57.378 157.726L57.9979 158.206C57.9979 158.206 57.9093 158.974 57.0649 158.564L57.6415 159.2C57.6415 159.2 57.2789 159.831 56.6576 159.426C56.0363 159.021 55.7385 160.847 53.9766 160.597Z" fill="url(#paint40_linear)"/>
<path d="M53.2063 140.202L51.1912 146.03C51.1578 146.126 51.1975 146.233 51.2869 146.283C51.8362 146.586 53.8152 147.464 56.2001 145.952C56.4485 145.795 56.6176 145.537 56.6554 145.246L57.3079 140.202H53.2063Z" fill="url(#paint41_linear)"/>
<path d="M57.5912 134.805C57.5912 134.805 59.804 138.971 59.5204 140.654C59.2367 142.336 56.4943 142.215 54.0994 140.849L52.426 136.351L57.5912 134.805Z" fill="url(#paint42_linear)"/>
<path d="M54.2053 138.638C54.3027 138.595 54.3386 138.476 54.2802 138.386C54.103 138.117 53.7707 137.564 53.6646 137.08C53.6646 137.08 53.2668 136.826 54.6771 136.488C56.0873 136.15 58.1904 135.626 58.6324 134.425C59.0634 133.255 57.9311 130.312 56.1244 132.658C56.0557 132.746 55.9211 132.748 55.8524 132.659C55.5563 132.273 54.7776 131.473 53.6966 131.959C52.685 132.412 52.571 133.153 52.5849 133.527C52.589 133.637 52.4908 133.723 52.3826 133.702C51.8712 133.604 50.6439 133.521 50.071 134.78C49.5991 135.817 49.9058 136.404 50.1851 136.691C50.2756 136.784 50.236 136.937 50.1119 136.976C49.7757 137.078 49.3417 137.363 49.3851 138.151C49.4452 139.239 50.6625 139.144 51.009 139.094C51.0657 139.086 51.123 139.106 51.1614 139.148C51.4587 139.477 52.7976 140.873 54.2466 141.042C54.3721 141.056 54.4693 140.932 54.4282 140.813L53.8012 138.99C53.772 138.905 53.8125 138.812 53.8943 138.776L54.2053 138.638Z" fill="url(#paint43_linear)"/>
<path d="M54.4573 138.901C54.4573 138.901 52.8818 137.82 52.7666 138.73C52.6516 139.64 54.1854 140.049 54.9452 139.709L54.4573 138.901Z" fill="url(#paint44_linear)"/>
<path d="M165.044 77.3372C165.044 77.3372 166.696 78.1412 167 79.0639C167.243 79.8042 169.069 79.8992 169.251 81.3561C169.344 82.1083 169.9 82.7105 170.649 82.8259C172.514 83.1119 175.39 84.081 175.85 87.3197C176.201 89.7922 174.941 90.73 173.618 91.0548C172.647 91.2933 172.001 92.2376 172.197 93.2186C172.386 94.1597 172.105 95.2475 170.475 96.1076C166.823 98.034 163.175 91.5415 163.175 91.5415L162.427 80.2035L165.044 77.3372Z" fill="url(#paint45_linear)"/>
<path d="M150.018 70.6084C150.018 70.6084 153.425 83.8228 160.995 88.6025C160.995 88.6025 157.912 92.6658 156.502 92.7891C156.502 92.7891 149.075 81.0461 149.097 72.0336L150.018 70.6084Z" fill="url(#paint46_linear)"/>
<path d="M180.058 148.431L180.294 150.373C180.339 150.742 180.63 151.034 180.998 151.076C181.621 151.147 182.621 151.22 183.599 151.117C184.028 151.071 184.306 150.636 184.176 150.225C183.938 149.475 183.501 148.349 182.873 147.686H180.717C180.319 147.686 180.009 148.035 180.058 148.431Z" fill="url(#paint47_linear)"/>
<path d="M163.176 125.668L162.811 127.807C162.811 127.807 164.03 140.148 164.246 145.085C164.28 145.858 164.08 146.623 163.675 147.283L161.556 150.723L166.939 147.546L167.047 146.889L166.165 145.676L167.32 131.853C167.388 131.041 167.219 130.226 166.838 129.506L165.724 127.415L163.176 125.668Z" fill="url(#paint48_linear)"/>
<path d="M161.2 151.223H162.919C163.241 151.223 163.544 151.075 163.74 150.82C164.275 150.124 165.385 148.766 165.915 148.731C166.63 148.683 166.539 151.223 166.539 151.223H166.939L167.446 148.067C167.573 147.273 167.179 146.487 166.466 146.115C166.466 146.115 166.302 147.322 165.418 147.856C164.532 148.391 161.815 150.304 161.815 150.304C161.815 150.304 161.482 150.256 161.116 150.322C160.573 150.42 160.649 151.223 161.2 151.223Z" fill="url(#paint49_linear)"/>
<path d="M170.55 126.686C170.55 126.686 177.687 140.224 178.821 143.315C179.956 146.406 180.353 148.985 180.369 149.229C180.393 149.611 180.868 149.977 182.175 149.977C182.851 149.977 183.182 149.706 183.343 149.444C183.481 149.22 183.489 148.941 183.372 148.706C182.959 147.87 181.649 145.2 181.164 143.989C180.584 142.543 179.338 135.99 178.655 133.712C177.97 131.433 177.198 128.961 174.223 126.686C174.223 126.686 172.179 124.684 170.55 126.686Z" fill="url(#paint50_linear)"/>
<path d="M166.04 104.503C164.199 96.7019 168.863 92.2897 168.863 92.2897C165.92 89.4646 160.559 88.1789 160.559 88.1789C160.559 88.1789 155.442 91.9198 156.049 94.8475C156.405 96.5641 159.645 105.125 159.645 105.125C159.645 105.125 162.642 106.545 166.04 104.503Z" fill="url(#paint51_linear)"/>
<path d="M170.123 108.366C169.373 106.108 166.041 104.504 166.041 104.504C162.643 106.545 159.646 105.126 159.646 105.126C159.646 105.126 158.974 107.695 159.437 110.082C159.901 112.47 162.812 127.81 162.812 127.81C167.397 128.74 174.448 126.876 174.448 126.876C171.528 121.691 170.873 110.622 170.123 108.366Z" fill="url(#paint52_linear)"/>
<path d="M163.903 83.0199L165.4 89.7432C165.544 90.3355 165.004 90.2389 164.404 90.1268C163.424 89.9406 162.16 89.5602 161.738 88.7971C161.696 88.72 161.674 88.6316 161.662 88.5442L161.018 83.8816C160.968 83.5114 161.167 83.1536 161.508 83.0014L162.75 82.4512C163.228 82.2394 163.78 82.5119 163.903 83.0199Z" fill="url(#paint53_linear)"/>
<path d="M162.147 76.6209C162.147 76.6209 160.374 77.3692 159.17 79.9311C157.964 82.493 158.864 83.6755 159.994 83.8373C161.125 84.0001 162.816 83.9756 164.604 82.3206C166.392 80.6655 164.451 75.7332 162.147 76.6209Z" fill="url(#paint54_linear)"/>
<path d="M163.403 80.9495C163.403 80.9495 164.74 77.2021 161.418 77.1579L160.635 77.7046C160.635 77.7046 159.416 75.6266 161.418 74.6345C163.418 73.6424 165.76 74.462 166.612 77.1579C167.463 79.8539 167.609 81.6591 166.193 82.9488C164.775 84.2385 164.191 82.7763 164.191 82.7763C164.191 82.7763 164.964 81.5685 164.65 80.9236C164.335 80.2787 163.611 81.0573 163.611 81.0573L163.403 80.9495Z" fill="url(#paint55_linear)"/>
<path d="M163.774 81.3703C163.774 81.3703 164.451 79.4401 165.353 80.2087C166.255 80.9772 164.62 81.9918 163.98 82.3203L163.774 81.3703Z" fill="url(#paint56_linear)"/>
<path d="M149.791 73.1836C149.497 73.1836 149.287 73.0034 149.338 72.8848C149.338 72.8848 148.526 72.7975 148.036 71.9303C147.994 71.8576 147.954 71.7815 147.913 71.7031C147.91 71.5621 147.908 71.4223 147.905 71.2813C147.897 70.9791 147.689 70.7285 147.41 70.6535C147.379 70.583 147.35 70.5147 147.322 70.4498C147.13 70.0067 147.106 69.5065 147.272 69.0578C147.492 68.4658 147.873 68.0753 148.202 67.5997C148.202 67.5997 149.684 67.8727 150.907 69.9429C151.136 70.3323 150.677 72.21 150.615 72.6532C150.35 73.0549 150.04 73.1836 149.791 73.1836Z" fill="url(#paint57_linear)"/>
<path d="M169.69 94.3638C169.69 94.3638 155.999 111.082 145.77 92.0459C145.77 92.0459 145.573 91.5593 145.696 90.8572C145.758 90.5019 145.523 89.2445 145.394 88.6017C145.353 88.3944 145.5 88.1985 145.709 88.1787C145.874 88.1631 146.034 88.2319 146.138 88.3621L148.005 90.7415C148.145 91.2124 147.92 91.7156 147.476 91.925C147.193 92.0604 147.104 92.4199 147.294 92.6688C155.074 102.867 168.085 91.676 168.323 91.8073C169.168 92.274 170.144 92.7897 169.69 94.3638Z" fill="url(#paint58_linear)"/>
<path d="M160.942 218.918C161.249 218.918 161.499 218.669 161.499 218.361V151.78C161.499 151.472 161.249 151.223 160.942 151.223C160.634 151.223 160.385 151.472 160.385 151.78V218.361C160.385 218.669 160.634 218.918 160.942 218.918Z" fill="url(#paint59_linear)"/>
<path d="M176.036 218.918C176.343 218.918 176.593 218.669 176.593 218.361V151.781C176.593 151.473 176.343 151.223 176.036 151.223C175.728 151.223 175.479 151.473 175.479 151.781V218.361C175.479 218.669 175.728 218.918 176.036 218.918Z" fill="url(#paint60_linear)"/>
<path d="M213.122 219.34C213.196 219.34 213.269 219.326 213.34 219.295C213.623 219.175 213.755 218.848 213.635 218.565L185.15 151.561C185.03 151.278 184.703 151.147 184.42 151.267C184.137 151.387 184.005 151.714 184.125 151.998L212.61 219.001C212.7 219.213 212.906 219.34 213.122 219.34Z" fill="url(#paint61_linear)"/>
<path d="M195.529 219.34C195.601 219.34 195.674 219.326 195.747 219.295C196.029 219.175 196.162 218.848 196.04 218.565L167.556 151.561C167.436 151.278 167.109 151.147 166.826 151.267C166.542 151.387 166.411 151.714 166.531 151.997L195.015 219.001C195.105 219.213 195.311 219.34 195.529 219.34Z" fill="url(#paint62_linear)"/>
<path d="M160.077 152.391H186.17C186.602 152.391 186.955 152.039 186.955 151.606C186.955 151.172 186.602 150.821 186.17 150.821H160.077C159.643 150.821 159.291 151.172 159.291 151.606C159.291 152.039 159.643 152.391 160.077 152.391Z" fill="url(#paint63_linear)"/>
<path d="M171.346 162.582H188.993C189.301 162.582 189.55 162.333 189.55 162.025C189.55 161.718 189.301 161.468 188.993 161.468H171.346C171.038 161.468 170.789 161.718 170.789 162.025C170.789 162.333 171.038 162.582 171.346 162.582Z" fill="url(#paint64_linear)"/>
<path d="M176.761 175.254H194.408V174.14H176.761V175.254Z" fill="url(#paint65_linear)"/>
<path d="M182.003 187.926H199.65V186.812H182.003V187.926Z" fill="url(#paint66_linear)"/>
<path d="M187.5 200.598H205.146C205.454 200.598 205.704 200.348 205.704 200.04C205.704 199.733 205.454 199.484 205.146 199.484H187.5C187.193 199.484 186.943 199.733 186.943 200.04C186.943 200.348 187.193 200.598 187.5 200.598Z" fill="url(#paint67_linear)"/>
<path d="M192.814 213.27H210.462C210.769 213.27 211.019 213.02 211.019 212.713C211.019 212.405 210.769 212.156 210.462 212.156H192.814C192.508 212.156 192.258 212.405 192.258 212.713C192.258 213.02 192.508 213.27 192.814 213.27Z" fill="url(#paint68_linear)"/>
<path d="M146.882 68.3555C146.656 68.3555 146.45 68.2412 146.327 68.0603C146.275 67.9837 146.239 67.8946 146.223 67.7966C146.102 67.0883 145.95 66.375 145.769 65.6768C145.676 65.3201 145.891 64.9546 146.249 64.8617C146.306 64.8466 146.362 64.8404 146.419 64.8404C146.715 64.8404 146.986 65.04 147.065 65.3414C147.255 66.0761 147.416 66.8271 147.543 67.5743C147.604 67.9385 147.358 68.2839 146.994 68.3454C146.956 68.3517 146.918 68.3555 146.882 68.3555ZM145.27 62.7519C145.05 62.7519 144.84 62.6439 144.714 62.458C144.689 62.4204 144.668 62.3814 144.65 62.3387C144.375 61.6744 144.066 61.0126 143.735 60.3733C143.565 60.0443 143.693 59.6412 144.021 59.4704C144.12 59.4201 144.226 59.395 144.33 59.395C144.571 59.395 144.806 59.5269 144.923 59.7567C145.272 60.4311 145.596 61.1268 145.886 61.8264C146.028 62.1679 145.866 62.5598 145.526 62.7004C145.442 62.7356 145.354 62.7519 145.27 62.7519ZM142.451 57.6456C142.242 57.6456 142.035 57.5477 141.905 57.3631C141.488 56.7741 141.044 56.1977 140.58 55.6476C140.564 55.6288 140.55 55.6099 140.536 55.5898C140.348 55.3098 140.397 54.9267 140.661 54.7045C140.786 54.599 140.939 54.5462 141.091 54.5462C141.282 54.5462 141.472 54.6279 141.604 54.7848C142.091 55.3638 142.561 55.9704 142.998 56.5907L143.005 56.602C143.209 56.9034 143.135 57.3128 142.837 57.5238C142.72 57.6067 142.585 57.6456 142.451 57.6456ZM138.576 53.2916C138.418 53.2916 138.258 53.2351 138.13 53.1196C137.594 52.6399 137.031 52.1777 136.456 51.7444C136.395 51.6992 136.344 51.644 136.304 51.585C136.148 51.3551 136.147 51.0424 136.324 50.8076C136.455 50.633 136.656 50.5413 136.859 50.5413C136.999 50.5413 137.14 50.584 137.261 50.6757C137.866 51.1303 138.459 51.6176 139.023 52.1237C139.298 52.3711 139.322 52.7931 139.074 53.0681C138.943 53.2163 138.761 53.2916 138.576 53.2916ZM104.399 52.7592C104.208 52.7592 104.018 52.6775 103.886 52.5206C103.87 52.5017 103.857 52.4829 103.843 52.464C103.654 52.184 103.703 51.7997 103.968 51.5774C104.547 51.0914 105.156 50.623 105.778 50.1859C105.894 50.1043 106.029 50.0641 106.162 50.0641C106.373 50.0641 106.58 50.1633 106.71 50.3492L106.717 50.3592C106.921 50.6606 106.847 51.0713 106.547 51.281C105.957 51.6967 105.379 52.1413 104.829 52.6022C104.704 52.7077 104.551 52.7592 104.399 52.7592ZM133.828 49.9147C133.718 49.9147 133.608 49.8883 133.505 49.8305C132.874 49.4827 132.221 49.1561 131.565 48.8623C131.447 48.8095 131.351 48.7266 131.285 48.6262C131.159 48.4416 131.129 48.1979 131.227 47.9782C131.339 47.7295 131.583 47.5826 131.838 47.5826C131.93 47.5826 132.023 47.6014 132.111 47.6403C132.803 47.9493 133.49 48.2921 134.153 48.6601C134.477 48.8384 134.594 49.2466 134.414 49.5693C134.292 49.7904 134.064 49.9147 133.828 49.9147ZM109.254 49.5317C109.037 49.5317 108.826 49.4249 108.7 49.2378C108.685 49.2152 108.671 49.1926 108.659 49.1687C108.489 48.8409 108.619 48.4366 108.947 48.267C109.622 47.9191 110.318 47.5964 111.017 47.3088C111.101 47.2749 111.187 47.2573 111.272 47.2573C111.535 47.2573 111.783 47.413 111.891 47.6717C112.032 48.0146 111.869 48.4052 111.527 48.5458C110.863 48.8196 110.202 49.126 109.56 49.4576C109.462 49.5078 109.357 49.5317 109.254 49.5317ZM128.446 47.6768C128.385 47.6768 128.322 47.668 128.259 47.6504C127.567 47.4495 126.858 47.2761 126.153 47.1355C125.974 47.0991 125.825 46.9936 125.73 46.8529C125.633 46.7098 125.592 46.5302 125.628 46.3481C125.692 46.0291 125.971 45.8093 126.284 45.8093C126.328 45.8093 126.372 45.8143 126.416 45.8231C127.158 45.9713 127.904 46.1534 128.632 46.3644C128.988 46.4674 129.191 46.8391 129.088 47.1945C129.004 47.4871 128.736 47.6768 128.446 47.6768ZM114.7 47.4545C114.477 47.4545 114.269 47.3427 114.146 47.1606C114.104 47.0978 114.072 47.0288 114.052 46.9521C113.961 46.5942 114.175 46.23 114.534 46.1371C115.267 45.9487 116.018 45.7892 116.766 45.6649C116.804 45.6586 116.841 45.6549 116.877 45.6549C117.198 45.6549 117.482 45.8872 117.537 46.2137C117.598 46.5792 117.351 46.9233 116.987 46.9848C116.277 47.1028 115.564 47.2548 114.867 47.4331C114.811 47.4482 114.755 47.4545 114.7 47.4545ZM122.701 46.6847C122.688 46.6847 122.674 46.6846 122.661 46.6834C122.162 46.6545 121.657 46.6394 121.154 46.6394C120.933 46.6394 120.712 46.642 120.493 46.6482C120.487 46.6482 120.481 46.6482 120.475 46.6482C120.246 46.6482 120.041 46.5314 119.92 46.3531C119.851 46.2501 119.809 46.1283 119.806 45.9965C119.797 45.6272 120.089 45.3196 120.458 45.3095C120.688 45.3032 120.919 45.3007 121.151 45.3007C121.681 45.3007 122.214 45.317 122.74 45.3472C123.109 45.3698 123.39 45.6863 123.369 46.0555C123.347 46.4109 123.052 46.6847 122.701 46.6847Z" fill="url(#paint69_linear)"/>
<path d="M147.243 73.0391C147.24 73.0391 147.237 73.0391 147.233 73.0391C147.005 73.0347 146.806 72.9191 146.687 72.743C146.614 72.6341 146.572 72.502 146.574 72.3601C146.579 72.0145 146.575 71.6635 146.566 71.3169C146.557 70.9471 146.848 70.6401 147.217 70.6302C147.224 70.6302 147.23 70.6302 147.237 70.6302C147.297 70.6302 147.354 70.6379 147.41 70.6533C147.558 70.9845 147.734 71.3631 147.912 71.7031C147.916 71.9287 147.914 72.1543 147.912 72.3777C147.907 72.7452 147.609 73.0391 147.243 73.0391Z" fill="url(#paint70_linear)"/>
<path d="M147.913 71.7031C147.734 71.3642 147.558 70.9846 147.41 70.6534C147.689 70.7282 147.896 70.9791 147.904 71.2817C147.907 71.4214 147.911 71.5623 147.913 71.7031Z" fill="url(#paint71_linear)"/>
<path d="M139.017 91.7109C138.838 91.7109 138.659 91.6401 138.528 91.4994C138.503 91.4728 138.48 91.4453 138.462 91.4158C138.28 91.1481 138.315 90.7812 138.558 90.5539C138.81 90.3177 139.062 90.0727 139.305 89.8248C139.436 89.692 139.609 89.6251 139.782 89.6251C139.952 89.6251 140.121 89.689 140.251 89.8169C140.516 90.0777 140.519 90.4998 140.259 90.7634C140.003 91.0242 139.739 91.282 139.473 91.5309C139.345 91.6509 139.18 91.7109 139.017 91.7109Z" fill="url(#paint72_linear)"/>
<path d="M120.016 98.7383C120.006 98.7383 119.996 98.7383 119.986 98.7373C119.242 98.7029 118.489 98.6372 117.749 98.5411C117.55 98.5159 117.384 98.4047 117.28 98.251C117.192 98.1216 117.149 97.9598 117.171 97.791C117.215 97.4533 117.503 97.2087 117.834 97.2087C117.863 97.2087 117.892 97.2097 117.921 97.2137C118.625 97.3057 119.34 97.3684 120.047 97.4008C120.416 97.4169 120.701 97.7303 120.685 98.0993C120.668 98.4582 120.372 98.7383 120.016 98.7383ZM123.571 98.6574C123.343 98.6574 123.138 98.5411 123.017 98.3622C122.956 98.2712 122.916 98.1651 122.906 98.0488C122.871 97.6808 123.142 97.3553 123.51 97.3219C124.217 97.2572 124.929 97.1612 125.625 97.0368C125.664 97.0307 125.704 97.0267 125.742 97.0267C126.061 97.0267 126.343 97.2552 126.401 97.5787C126.465 97.9426 126.223 98.2904 125.859 98.3551C125.125 98.4855 124.376 98.5866 123.633 98.6544C123.612 98.6554 123.591 98.6574 123.571 98.6574ZM114.348 97.8496C114.29 97.8496 114.23 97.8426 114.172 97.8264C113.453 97.6313 112.733 97.4028 112.032 97.148C111.894 97.0975 111.783 97.0065 111.706 96.8932C111.591 96.7224 111.555 96.499 111.631 96.2907C111.73 96.0188 111.987 95.8489 112.261 95.8489C112.337 95.8489 112.414 95.8631 112.49 95.8904C113.156 96.132 113.84 96.3493 114.524 96.5344C114.879 96.6304 115.091 96.9984 114.994 97.3563C114.913 97.6535 114.643 97.8496 114.348 97.8496ZM129.194 97.5039C128.973 97.5039 128.764 97.3927 128.64 97.2087C128.606 97.1581 128.577 97.1015 128.558 97.0409C128.444 96.689 128.637 96.3119 128.988 96.1977C129.661 95.9803 130.333 95.7296 130.986 95.4546C131.071 95.4203 131.158 95.4031 131.245 95.4031C131.506 95.4031 131.755 95.5578 131.863 95.8125C132.005 96.1542 131.846 96.5465 131.505 96.689C130.817 96.9782 130.109 97.241 129.4 97.4715C129.331 97.4938 129.263 97.5039 129.194 97.5039ZM109.011 95.7498C108.906 95.7498 108.798 95.7246 108.699 95.672C108.038 95.3242 107.385 94.9441 106.758 94.5437C106.678 94.4932 106.614 94.4285 106.564 94.3547C106.42 94.1404 106.406 93.8512 106.555 93.6197C106.682 93.4195 106.899 93.3103 107.119 93.3103C107.243 93.3103 107.368 93.3447 107.479 93.4155C108.075 93.7966 108.695 94.1575 109.322 94.4881C109.65 94.661 109.775 95.0644 109.603 95.3919C109.483 95.6194 109.25 95.7498 109.011 95.7498ZM134.424 95.1453C134.207 95.1453 133.996 95.0401 133.869 94.8511C133.861 94.84 133.854 94.8278 133.846 94.8157C133.658 94.4982 133.765 94.0878 134.083 93.8997C134.532 93.6349 134.979 93.3528 135.41 93.0616C135.566 92.9555 135.721 92.8483 135.874 92.7412C135.992 92.6573 136.126 92.6178 136.261 92.6178C136.47 92.6178 136.677 92.7159 136.807 92.9009C137.029 93.2012 136.949 93.6197 136.647 93.833C136.486 93.9473 136.323 94.0595 136.159 94.1707C135.706 94.477 135.236 94.7742 134.762 95.0523C134.656 95.1149 134.539 95.1453 134.424 95.1453ZM104.264 92.5349C104.111 92.5349 103.956 92.4824 103.83 92.3752C103.261 91.8899 102.707 91.3753 102.185 90.8466C102.154 90.8163 102.128 90.7839 102.106 90.7495C101.929 90.4877 101.957 90.1298 102.19 89.8993C102.32 89.7709 102.49 89.7062 102.66 89.7062C102.833 89.7062 103.005 89.7729 103.136 89.9054C103.633 90.4078 104.159 90.8961 104.698 91.3561C104.979 91.5967 105.013 92.0183 104.773 92.3004C104.641 92.4551 104.453 92.5349 104.264 92.5349ZM100.339 88.3515C100.136 88.3515 99.9349 88.2595 99.8035 88.0836C99.5428 87.7358 99.2853 87.3739 99.0394 87.0099C98.8675 86.7552 98.6984 86.4964 98.534 86.2335C98.3372 85.9201 98.4322 85.5066 98.7449 85.3105C98.8554 85.2417 98.9786 85.2084 99.0999 85.2084C99.3237 85.2084 99.542 85.3196 99.668 85.5218C100.049 86.1284 100.453 86.7188 100.875 87.2819C101.096 87.5781 101.036 87.9967 100.74 88.2181C100.62 88.309 100.479 88.3515 100.339 88.3515Z" fill="url(#paint73_linear)"/>
<path d="M97.9577 82.3086L96.4907 82.2846C96.3047 81.8384 96.1309 81.3869 95.9712 80.9354C95.8479 80.5872 96.0299 80.2045 96.3782 80.0815C96.4516 80.0554 96.5278 80.0429 96.6019 80.0429C96.8776 80.0429 97.1363 80.2139 97.2327 80.4881C97.4497 81.1012 97.6936 81.7122 97.9577 82.3086Z" fill="url(#paint74_linear)"/>
<path d="M97.4197 83.418C97.2007 83.418 96.9912 83.3099 96.8651 83.1237C96.8442 83.0928 96.8254 83.0599 96.8092 83.0249C96.6993 82.7821 96.5929 82.5362 96.4905 82.2893L97.9574 82.314C97.9811 82.3675 98.0052 82.42 98.0289 82.4735C98.1812 82.8099 98.0316 83.206 97.6946 83.3583C97.6057 83.3995 97.512 83.418 97.4197 83.418Z" fill="url(#paint75_linear)"/>
<path d="M95.6453 77.957C95.4217 77.957 95.2141 77.8439 95.0908 77.6619C95.0436 77.5919 95.0093 77.5112 94.9904 77.4229C94.8401 76.6916 94.7195 75.9453 94.6313 75.2054C94.5874 74.8382 94.8496 74.5054 95.2162 74.4613C95.2431 74.458 95.27 74.457 95.2963 74.457C95.6306 74.457 95.9196 74.7068 95.96 75.0471C96.0436 75.7504 96.1589 76.4579 96.3018 77.1526C96.3765 77.5144 96.1433 77.8687 95.7808 77.943C95.7357 77.9527 95.6906 77.957 95.6453 77.957Z" fill="url(#paint76_linear)"/>
<path d="M95.1186 72.2266C95.1145 72.2266 95.1104 72.2266 95.1057 72.2266C94.8793 72.2221 94.6811 72.1061 94.5632 71.9314C94.4891 71.8209 94.4467 71.6871 94.4493 71.5445C94.4561 71.1831 94.4709 70.8139 94.4925 70.448C94.514 70.0932 94.8086 69.819 95.1596 69.819C95.1731 69.819 95.1873 69.8201 95.2007 69.8201C95.57 69.8422 95.851 70.1595 95.8288 70.5287C95.8079 70.8758 95.7944 71.2262 95.7877 71.57C95.7809 71.9347 95.4825 72.2266 95.1186 72.2266Z" fill="url(#paint77_linear)"/>
<path d="M101.503 68.3365C101.464 68.464 101.511 68.6013 101.619 68.6802L104.707 70.9064C104.596 72.6808 104.767 74.4855 105.243 76.2514L102.662 79.0459C102.571 79.1443 102.552 79.29 102.616 79.4066L104.776 83.4303C104.839 83.5468 104.97 83.6112 105.102 83.5906L108.858 82.9809C110.068 84.3533 111.478 85.4925 113.019 86.3803L113.17 90.184C113.174 90.3176 113.264 90.433 113.392 90.4707L117.764 91.7872C117.892 91.826 118.03 91.7799 118.108 91.6706L120.334 88.5821C122.108 88.6939 123.914 88.5226 125.681 88.0465L128.475 90.6286C128.574 90.7196 128.717 90.7379 128.835 90.6747L132.858 88.5141C132.975 88.451 133.041 88.3198 133.019 88.1874L132.409 84.4322C133.782 83.2226 134.921 81.8113 135.808 80.2714L139.612 80.1208C139.746 80.1147 139.861 80.026 139.899 79.8985L141.217 75.5251C141.254 75.3976 141.207 75.2603 141.1 75.1814L138.012 72.9564C138.122 71.1809 137.951 69.3761 137.476 67.6102L140.057 64.8145C140.148 64.7173 140.166 64.5728 140.103 64.455L137.942 60.4326C137.879 60.3148 137.748 60.2504 137.617 60.271L133.86 60.8807C132.651 59.5084 131.241 58.3692 129.7 57.4814L129.549 53.6776C129.544 53.544 129.454 53.4286 129.327 53.3909L124.955 52.0744C124.827 52.0356 124.689 52.0829 124.611 52.191L122.383 55.2795C120.61 55.1677 118.805 55.339 117.038 55.8151L114.243 53.2331C114.145 53.142 114.001 53.1238 113.883 53.1869L109.86 55.3475C109.742 55.4106 109.678 55.5418 109.699 55.6742L110.309 59.4294C108.937 60.6403 107.798 62.0503 106.91 63.5903L103.106 63.7409C102.973 63.7457 102.858 63.8356 102.819 63.9631L101.503 68.3365Z" fill="#91B3FA"/>
<path d="M124.281 69.9723C124.184 69.8285 124.078 69.6914 123.958 69.5622C122.649 68.1295 120.419 68.0283 118.986 69.3363C117.553 70.6466 117.452 72.876 118.761 74.3087C120.069 75.7414 122.3 75.8425 123.734 74.5345C124.428 73.8997 124.834 73.0333 124.875 72.095C124.91 71.3309 124.701 70.5937 124.281 69.9723ZM117.553 74.502C116.302 72.6479 116.563 70.0993 118.264 68.5464C120.133 66.8395 123.042 66.9709 124.75 68.8396C125.575 69.7453 126 70.9185 125.945 72.1422C125.89 73.3682 125.361 74.4975 124.455 75.3245C122.586 77.0314 119.677 76.8999 117.97 75.0312C117.817 74.8627 117.678 74.6862 117.553 74.502Z" fill="#BDD0FB"/>
<path d="M112.111 78.2879C111.896 77.9693 111.696 77.6378 111.511 77.2957C111.453 77.188 111.397 77.0779 111.342 76.9689C111.074 76.4266 110.848 75.8643 110.67 75.2903C110.668 75.2833 110.665 75.2751 110.662 75.2681C110.656 75.2458 110.649 75.2236 110.642 75.2001C110.629 75.1568 110.617 75.1135 110.604 75.0701C110.571 74.9565 110.618 74.8382 110.711 74.7749C110.734 74.7585 110.759 74.7468 110.787 74.7386C110.929 74.6988 111.077 74.7808 111.119 74.9225C111.329 75.6535 111.62 76.3657 111.983 77.0416C113.785 80.3987 117.127 82.4088 120.67 82.6735C122.641 82.8211 124.675 82.4287 126.542 81.426C126.869 81.2503 127.185 81.0594 127.489 80.8544C129.533 79.4733 131.029 77.4492 131.749 75.0549C132.577 72.3045 132.284 69.3971 130.926 66.867C128.119 61.6426 121.59 59.6782 116.367 62.4836C116.045 62.6558 115.733 62.8444 115.432 63.0483C114.128 63.9291 113.032 65.0853 112.224 66.4382C112.204 66.4734 112.177 66.5015 112.145 66.5226C112.061 66.5788 111.949 66.5858 111.858 66.5308C111.731 66.4546 111.689 66.2906 111.765 66.1629C112.612 64.7432 113.763 63.5297 115.132 62.6043C115.448 62.3911 115.776 62.1931 116.114 62.0116C121.597 59.0667 128.454 61.133 131.398 66.6139C132.824 69.2694 133.131 72.3221 132.262 75.2095C131.504 77.7221 129.936 79.8482 127.789 81.2972C127.47 81.5127 127.138 81.713 126.795 81.8981C124.139 83.3237 121.087 83.6306 118.2 82.7614C115.687 82.0047 113.561 80.435 112.111 78.2879Z" fill="#BDD0FB"/>
<path d="M76.7891 43.5859C76.6961 43.5859 76.6026 43.554 76.5257 43.4902C76.4947 43.4647 76.4684 43.4353 76.4469 43.4034C76.3464 43.2554 76.3511 43.0538 76.4711 42.9083C76.6948 42.6377 76.93 42.371 77.1692 42.1145C77.2507 42.0277 77.3612 41.983 77.4718 41.983C77.5722 41.983 77.6739 42.0201 77.7534 42.0941C77.9212 42.2498 77.9293 42.5114 77.7737 42.6786C77.5453 42.9236 77.3208 43.1776 77.1079 43.4353C77.0257 43.5349 76.9078 43.5859 76.7891 43.5859Z" fill="#DEE8FD"/>
<path d="M106.168 47.6328C106.033 47.6328 105.903 47.5663 105.826 47.4512C105.812 47.432 105.8 47.4103 105.79 47.3873C105.545 46.8373 105.266 46.2898 104.96 45.7616C104.915 45.681 104.868 45.603 104.822 45.5263C104.704 45.3306 104.766 45.0761 104.962 44.9584C105.03 44.9175 105.105 44.8983 105.179 44.8983C105.32 44.8983 105.457 44.9686 105.53 45.0991C105.58 45.1822 105.629 45.2654 105.677 45.3498C105.996 45.901 106.289 46.474 106.545 47.0521C106.638 47.2606 106.544 47.5049 106.336 47.597C106.281 47.6213 106.224 47.6328 106.168 47.6328ZM103.96 43.9531C103.836 43.9531 103.715 43.8981 103.634 43.7945C103.202 43.2432 102.734 42.715 102.242 42.2239C102.223 42.2047 102.206 42.1842 102.191 42.1625C102.082 42.0013 102.099 41.7813 102.241 41.6393C102.322 41.5588 102.427 41.5178 102.534 41.5178C102.639 41.5178 102.745 41.5575 102.826 41.6381C103.342 42.1535 103.833 42.7073 104.285 43.2854C104.423 43.4671 104.394 43.7254 104.214 43.8648C104.138 43.9249 104.049 43.9531 103.96 43.9531Z" fill="url(#paint78_linear)"/>
<path d="M79.0332 41.3281C78.9153 41.3281 78.798 41.2777 78.7157 41.1807C78.7069 41.1691 78.6983 41.1574 78.6901 41.1458C78.5729 40.9725 78.6039 40.7346 78.7684 40.5976C79.2319 40.2109 79.7212 39.8437 80.2219 39.5049C80.327 39.4338 80.4334 39.364 80.5413 39.2942C80.608 39.2515 80.6821 39.2321 80.7555 39.2321C80.8944 39.2321 81.0318 39.302 81.1126 39.4183C81.2367 39.6097 81.1814 39.8657 80.9901 39.9885C80.8869 40.0558 80.7851 40.123 80.6841 40.1903C80.207 40.5122 79.7407 40.8639 79.298 41.2324C79.2204 41.2971 79.1268 41.3281 79.0332 41.3281Z" fill="#DEE8FD"/>
<path d="M100.919 40.9297C100.831 40.9297 100.742 40.9012 100.666 40.8429C100.116 40.4155 99.5328 40.0192 98.9331 39.663C98.8785 39.6307 98.8347 39.5879 98.8017 39.5387C98.7148 39.4105 98.704 39.2382 98.7882 39.0957C98.8657 38.9662 99.0032 38.8937 99.144 38.8937C99.2161 38.8937 99.2889 38.9118 99.355 38.952C99.9843 39.325 100.595 39.742 101.173 40.1889C101.353 40.33 101.386 40.5891 101.246 40.7691C101.164 40.874 101.042 40.9297 100.919 40.9297Z" fill="url(#paint79_linear)"/>
<path d="M82.6401 39.0039C82.5054 39.0039 82.3753 38.9374 82.2972 38.8213C82.2864 38.8056 82.2763 38.7887 82.2676 38.7704C82.1684 38.5643 82.254 38.3177 82.4596 38.2186C83.1186 37.899 83.8039 37.6172 84.4947 37.3824C84.5384 37.3668 84.5835 37.3602 84.6273 37.3602C84.7999 37.3602 84.9609 37.4698 85.0196 37.6407C85.093 37.8572 84.9771 38.0908 84.7614 38.1651C84.1017 38.3895 83.4488 38.6582 82.8194 38.9622C82.7615 38.9896 82.7002 39.0039 82.6401 39.0039Z" fill="#DEE8FD"/>
<path d="M97.232 38.7383C97.1768 38.7383 97.1209 38.7265 97.067 38.703C96.4281 38.4236 95.765 38.1807 95.0959 37.981C95.0009 37.9523 94.9234 37.8922 94.8722 37.8165C94.8048 37.7172 94.7812 37.5906 94.8183 37.4665C94.8722 37.2876 95.0366 37.1714 95.2146 37.1714C95.2536 37.1714 95.2933 37.1767 95.3325 37.1884C96.0339 37.3986 96.7287 37.6532 97.3978 37.9457C97.6074 38.0371 97.7023 38.2813 97.6108 38.4902C97.5434 38.6456 97.391 38.7383 97.232 38.7383Z" fill="url(#paint80_linear)"/>
<path d="M86.7035 37.625C86.5648 37.625 86.4366 37.5543 86.3605 37.4429C86.3316 37.3984 86.31 37.3486 86.2986 37.2949C86.2527 37.0708 86.3963 36.852 86.6199 36.8062C87.3363 36.6595 88.0701 36.5547 88.7999 36.497C88.8113 36.4957 88.8222 36.4944 88.8336 36.4944C89.0465 36.4944 89.2271 36.6582 89.2447 36.8756C89.2629 37.1036 89.093 37.3027 88.8653 37.3211C88.1692 37.3761 87.4704 37.4757 86.7871 37.6158C86.7588 37.6224 86.7312 37.625 86.7035 37.625ZM91.9488 37.3564C91.6213 37.3224 91.2918 37.2988 90.9643 37.2844C90.8282 37.2778 90.7102 37.2071 90.6395 37.1023C90.5917 37.0315 90.5654 36.9451 90.5694 36.8534C90.5795 36.6307 90.7621 36.4577 90.9818 36.4577C90.9885 36.4577 90.9947 36.4577 91.0007 36.4577C91.7325 36.4905 92.469 36.5691 93.1893 36.6909C93.2399 36.6988 93.2864 36.7171 93.3275 36.7407C92.8639 36.9424 92.4056 37.1468 91.9488 37.3564Z" fill="#DEE8FD"/>
<path d="M93.1206 37.5117C93.0977 37.5117 93.0741 37.5104 93.0512 37.5065C92.6873 37.445 92.3187 37.394 91.9487 37.356C92.4056 37.1467 92.8638 36.9426 93.3275 36.7411C93.4723 36.8248 93.5572 36.9936 93.5277 37.1676C93.4939 37.3691 93.3187 37.5117 93.1206 37.5117Z" fill="url(#paint81_linear)"/>
<path d="M90.355 72.1484C90.2122 72.1484 90.0862 72.077 90.012 71.9664C89.9682 71.9009 89.9419 71.8223 89.9419 71.7378C89.9399 71.5093 90.1239 71.3237 90.3523 71.3213C91.0397 71.3177 91.733 71.2713 92.4122 71.1833C92.4304 71.1809 92.4479 71.1797 92.4654 71.1797C92.6697 71.1797 92.8483 71.332 92.8752 71.5403C92.9042 71.7664 92.7445 71.9747 92.518 72.0032C91.8058 72.0949 91.0787 72.1437 90.3577 72.1484C90.357 72.1484 90.3557 72.1484 90.355 72.1484ZM88.2432 72.0354C88.2277 72.0354 88.2115 72.033 88.1953 72.0318C87.4817 71.9497 86.7647 71.8223 86.0639 71.6545C85.9587 71.6295 85.8732 71.5677 85.8172 71.4844C85.7546 71.3915 85.7296 71.2737 85.758 71.1571C85.8031 70.9667 85.9729 70.8393 86.1596 70.8393C86.1913 70.8393 86.2236 70.8429 86.2559 70.8512C86.9251 71.0107 87.6091 71.1321 88.2896 71.2106C88.5168 71.2368 88.6791 71.4427 88.6528 71.6688C88.6286 71.8795 88.45 72.0354 88.2432 72.0354ZM84.1374 71.05C84.0895 71.05 84.041 71.0416 83.9939 71.0238C83.3193 70.7727 82.6535 70.4787 82.0147 70.1479C81.9507 70.1145 81.8995 70.0681 81.8618 70.0122C81.7802 69.8908 81.7654 69.7301 81.8375 69.5909C81.9109 69.4493 82.0552 69.3671 82.2048 69.3671C82.2688 69.3671 82.3334 69.3826 82.3941 69.4136C83.0032 69.7289 83.638 70.0098 84.2816 70.249C84.4966 70.3276 84.605 70.5668 84.5255 70.7798C84.4635 70.9464 84.3051 71.05 84.1374 71.05ZM80.3886 69.1125C80.3085 69.1125 80.2276 69.0898 80.1562 69.0411C79.5632 68.6364 78.9878 68.1901 78.4453 67.7153C78.4183 67.6903 78.3947 67.6641 78.3752 67.6355C78.2727 67.4832 78.2808 67.2761 78.4076 67.1309C78.4891 67.0381 78.603 66.9905 78.7182 66.9905C78.8146 66.9905 78.9116 67.0238 78.9905 67.0928C79.508 67.5463 80.0565 67.9711 80.6225 68.3579C80.8105 68.4876 80.8597 68.7435 80.731 68.9327C80.6508 69.0494 80.5207 69.1125 80.3886 69.1125ZM77.2176 66.3276C77.1037 66.3276 76.9905 66.2812 76.9089 66.1895C76.4312 65.6528 75.9803 65.0815 75.5693 64.49L75.5667 64.4853C75.4399 64.2972 75.4878 64.0437 75.6738 63.914C75.7452 63.864 75.8274 63.8402 75.9089 63.8402C76.0396 63.8402 76.1684 63.9021 76.2486 64.0176C76.6407 64.5829 77.07 65.1279 77.5262 65.6385C77.6751 65.8099 77.6629 66.0705 77.4925 66.2228C77.4136 66.2931 77.3153 66.3276 77.2176 66.3276ZM74.8099 62.8596C74.6751 62.8596 74.5457 62.7941 74.4669 62.6787C74.4588 62.6656 74.4514 62.6537 74.4439 62.6394C74.107 62.0039 73.8058 61.341 73.5477 60.6698C73.4662 60.4567 73.572 60.2175 73.7857 60.1354C73.8341 60.1164 73.884 60.108 73.9331 60.108C74.0996 60.108 74.2566 60.2092 74.3193 60.3734C74.5659 61.0137 74.8537 61.6457 75.1744 62.2526C75.2815 62.4549 75.2047 62.7049 75.0025 62.812C74.9413 62.8441 74.8746 62.8596 74.8099 62.8596ZM73.2977 58.9167C73.1603 58.9167 73.0316 58.8477 72.9554 58.7347C72.9291 58.6966 72.9089 58.6525 72.8968 58.6037C72.7223 57.9051 72.5902 57.1887 72.5026 56.4746C72.475 56.2473 72.636 56.0414 72.8631 56.014C72.88 56.0117 72.8962 56.0105 72.9129 56.0105C73.1185 56.0105 73.2971 56.164 73.3233 56.3735C73.407 57.0542 73.5329 57.7373 73.6987 58.4038C73.7539 58.6252 73.6192 58.8501 73.3974 58.9048C73.3645 58.9132 73.3308 58.9167 73.2977 58.9167Z" fill="url(#paint82_linear)"/>
<path d="M72.7843 54.707C72.7837 54.707 72.7837 54.707 72.7837 54.707C72.6408 54.707 72.5154 54.6345 72.4414 54.5244C72.3961 54.4579 72.3706 54.3793 72.3706 54.2934C72.3706 53.939 72.382 53.5834 72.4022 53.2363C72.4157 53.0173 72.5976 52.848 72.8146 52.848C72.8233 52.848 72.8314 52.848 72.8403 52.8492C73.0673 52.8625 73.2412 53.0585 73.2277 53.2859C73.2082 53.6173 73.1973 53.9559 73.1973 54.2946C73.1967 54.522 73.012 54.707 72.7843 54.707Z" fill="url(#paint83_linear)"/>
<path d="M77.0595 51.8216C77.0332 51.9076 77.0648 51.9999 77.1369 52.0525L79.2037 53.5418C79.1295 54.7296 79.2441 55.9366 79.5621 57.1193L77.8344 58.9895C77.7743 59.0549 77.7615 59.1511 77.8039 59.2307L79.2501 61.9218C79.2919 62.0014 79.3795 62.0437 79.4678 62.0296L81.9805 61.6217C82.7905 62.5401 83.7345 63.302 84.7656 63.8959L84.866 66.4422C84.87 66.5307 84.9294 66.6076 85.0149 66.6333L87.9408 67.5145C88.0264 67.5402 88.1186 67.5094 88.1712 67.4363L89.6604 65.3698C90.8477 65.4442 92.0559 65.33 93.2378 65.0119L95.1078 66.7397C95.1732 66.8 95.2702 66.8129 95.3491 66.7705L98.0411 65.3236C98.1193 65.2813 98.1631 65.1941 98.1483 65.1056L97.7406 62.5927C98.659 61.7833 99.4212 60.8392 100.015 59.8092L102.561 59.7078C102.65 59.704 102.727 59.645 102.753 59.559L103.633 56.6331C103.66 56.5472 103.628 56.4548 103.556 56.4035L101.489 54.913C101.563 53.7265 101.449 52.5181 101.131 51.3355L102.858 49.4665C102.918 49.3998 102.931 49.3036 102.889 49.2254L101.443 46.5329C101.401 46.4547 101.313 46.4111 101.225 46.4252L98.7123 46.8331C97.9016 45.9146 96.9583 45.1527 95.9272 44.5588L95.8268 42.0139C95.8228 41.9241 95.7635 41.8471 95.678 41.8215L92.7521 40.9402C92.6665 40.9146 92.5742 40.9453 92.5216 41.0185L91.0323 43.0849C89.845 43.0105 88.6368 43.1247 87.4549 43.4428L85.585 41.7163C85.5196 41.6547 85.4226 41.6432 85.3437 41.6855L82.6516 43.1311C82.5735 43.1735 82.5298 43.2607 82.5445 43.3492L82.9523 45.8621C82.0337 46.6715 81.2717 47.6155 80.678 48.6469L78.1322 48.7469C78.0432 48.7508 77.9657 48.8111 77.9402 48.8957L77.0595 51.8216Z" fill="#91B3FA"/>
<path d="M92.2532 52.9431C92.1912 52.8503 92.1211 52.7622 92.0443 52.6767C91.1885 51.7416 89.7316 51.6756 88.795 52.53C88.3415 52.9444 88.0759 53.5115 88.0484 54.1239C88.0206 54.7388 88.2343 55.3255 88.6481 55.7802C89.0624 56.2337 89.6285 56.499 90.2417 56.5259C90.8563 56.554 91.4438 56.3413 91.8973 55.9269C92.7492 55.1483 92.8806 53.8721 92.2532 52.9431ZM87.7505 55.9734C87.3778 55.4209 87.1919 54.7657 87.2228 54.0873C87.2606 53.2524 87.621 52.4835 88.2377 51.92C89.51 50.7576 91.4918 50.8468 92.6548 52.1193C93.8166 53.3966 93.7276 55.3744 92.4546 56.5369C91.8381 57.1004 91.0389 57.3901 90.2046 57.3522C89.3705 57.3143 88.6009 56.9537 88.0375 56.3376C87.9324 56.2215 87.8367 56.1005 87.7505 55.9734Z" fill="#BDD0FB"/>
<path d="M83.9597 58.6004C83.8135 58.3841 83.6767 58.1578 83.5501 57.9227C83.2993 57.4563 83.0958 56.9636 82.9449 56.456C82.9381 56.4334 82.9314 56.4109 82.9246 56.3884C82.8735 56.2121 82.9456 56.0283 83.0898 55.9308C83.1254 55.907 83.1646 55.8883 83.2077 55.8758C83.4266 55.8133 83.6551 55.9408 83.7191 56.1596C83.8553 56.6335 84.044 57.0949 84.2784 57.5313C84.2913 57.5551 84.3047 57.5788 84.3175 57.6026C84.8822 58.6304 85.6821 59.4782 86.6437 60.0946C87.1652 60.4297 87.736 60.6961 88.3432 60.8849L88.358 60.8886C88.3735 60.8936 88.3884 60.8986 88.4031 60.9024C90.1834 61.4388 92.0655 61.25 93.7037 60.3697C93.9153 60.2559 94.1202 60.1321 94.3169 59.9996C95.6397 59.1055 96.6074 57.7951 97.0744 56.2446C97.6107 54.4653 97.4206 52.5822 96.5413 50.9455C95.6619 49.3087 94.197 48.1108 92.4166 47.5744C90.6369 47.038 88.7542 47.2268 87.1167 48.1071C86.9079 48.2183 86.7063 48.3409 86.5116 48.4722C85.6672 49.0423 84.957 49.7913 84.4348 50.6666C84.4031 50.7204 84.3607 50.7641 84.3114 50.7979C84.1828 50.8842 84.0102 50.8954 83.868 50.8104C83.6726 50.6929 83.608 50.439 83.7252 50.2427C84.3094 49.2637 85.1039 48.4259 86.048 47.7882C86.2663 47.6407 86.4921 47.5044 86.7252 47.3781C88.5574 46.394 90.664 46.1827 92.6552 46.7829C94.6464 47.3818 96.2866 48.7197 97.2697 50.5541C98.2543 52.3859 98.4658 54.4916 97.8661 56.4835C97.3438 58.2178 96.261 59.6845 94.7805 60.6836C94.5608 60.8323 94.3318 60.9711 94.0946 61.0974C90.5473 63.003 86.1666 61.8689 83.9597 58.6004Z" fill="#BDD0FB"/>
<path d="M124.291 166.008C124.254 166.08 121.894 167.817 121.894 167.817C121.894 167.817 122.415 171.546 124.532 173.019C126.859 174.638 130.146 171.685 130.146 171.685C130.146 171.685 132.761 172.307 134.153 166.863C134.472 165.613 132.629 165.507 130.406 165.737C127.539 166.035 124.291 166.008 124.291 166.008Z" fill="url(#paint84_linear)"/>
<path d="M119.879 178.729C120.803 178.094 121.824 177.616 122.907 177.321C123.313 177.21 125.509 177.848 126.865 177.817C128.729 177.774 130.624 176.927 132.16 177.309C133.684 177.689 134.933 178.186 135.653 178.699C137.811 180.233 139.078 183.094 139.85 185.929C138.388 187.429 136.549 188.096 136.549 188.096L136.208 201.871L128.063 206.039L118.765 201.371L119.098 187.909C119.098 187.909 116.146 186.534 115.929 186.034C115.713 185.534 117.275 180.52 119.879 178.729Z" fill="url(#paint85_linear)"/>
<path d="M116.066 185.976C116.066 185.976 112.11 196.945 121.132 201.453C123.006 201.205 122.285 198.093 122.285 198.093C122.285 198.093 118.365 197.225 119.542 188.076C118.458 187.184 116.066 185.976 116.066 185.976Z" fill="url(#paint86_linear)"/>
<path d="M139.659 185.972C139.659 185.972 142.382 197.422 134.594 201.449C132.72 201.201 133.441 198.089 133.441 198.089C133.441 198.089 136.6 196.533 136.184 188.072C137.268 187.18 139.659 185.972 139.659 185.972Z" fill="url(#paint87_linear)"/>
<path d="M136.247 202.223H118.931C118.781 202.223 118.658 202.1 118.658 201.95V190.432C118.658 190.282 118.781 190.159 118.931 190.159H136.247C136.398 190.159 136.521 190.282 136.521 190.432V201.95C136.521 202.1 136.398 202.223 136.247 202.223Z" fill="url(#paint88_linear)"/>
<path d="M144.355 205.797C142.311 205.328 137.586 205.58 137.586 205.58L137.394 206.101L137.076 208.687C137.076 208.687 141.575 209.498 143.793 209.496C144.019 209.496 144.226 209.462 144.415 209.403C144.483 209.342 144.549 209.28 144.611 209.212C145.553 208.184 145.28 206.674 144.355 205.797Z" fill="url(#paint89_linear)"/>
<path d="M144.559 205.852C144.495 205.834 144.427 205.817 144.356 205.8C145.282 206.677 145.554 208.187 144.612 209.215C144.551 209.283 144.484 209.346 144.416 209.406C146.081 208.889 146.277 206.335 144.559 205.852Z" fill="url(#paint90_linear)"/>
<path d="M136.23 205.438L137.03 205.471C137.459 205.49 137.865 205.699 138.154 206.053C138.443 206.406 138.591 206.874 138.566 207.349C138.546 207.729 138.39 208.085 138.133 208.337C137.876 208.589 137.539 208.717 137.197 208.692L135.972 208.605L136.23 205.438Z" fill="url(#paint91_linear)"/>
<path d="M109.327 205.549C111.381 205.143 116.098 205.54 116.098 205.54L116.278 206.066L116.531 208.661C116.531 208.661 112.012 209.335 109.795 209.264C109.57 209.257 109.364 209.217 109.176 209.152C109.109 209.089 109.046 209.025 108.985 208.954C108.07 207.899 108.379 206.397 109.327 205.549Z" fill="url(#paint92_linear)"/>
<path d="M109.123 205.598C109.187 205.582 109.255 205.567 109.327 205.553C108.379 206.402 108.07 207.903 108.985 208.959C109.046 209.029 109.11 209.094 109.177 209.156C107.526 208.588 107.393 206.029 109.123 205.598Z" fill="url(#paint93_linear)"/>
<path d="M117.459 205.436L116.658 205.445C116.229 205.45 115.818 205.647 115.52 205.991C115.223 206.336 115.063 206.798 115.076 207.275C115.087 207.655 115.233 208.015 115.484 208.275C115.734 208.535 116.068 208.673 116.411 208.659L117.637 208.609L117.459 205.436Z" fill="url(#paint94_linear)"/>
<path d="M144.927 197.693C144 195.56 141.733 195.213 139.802 196.211C139.769 196.255 127.548 202.519 116.769 205.265C117.077 206.254 117.236 207.306 117.27 208.341C117.277 208.571 117.273 208.799 117.26 209.023C125.525 208.599 134.496 205.842 142.203 203.42C144.595 202.649 145.955 200.058 144.927 197.693Z" fill="url(#paint95_linear)"/>
<path d="M136.287 208.498C136.255 207.306 136.487 206.196 136.982 205.168C136.997 205.12 137.014 205.075 137.029 205.029C136.413 204.839 135.618 204.58 134.574 204.226C126.921 201.606 121.081 198.961 115.508 195.917C113.344 194.734 110.881 195.527 110.189 198.089C109.57 200.375 110.929 202.328 112.991 203.014C119.16 205.066 115.948 204.496 117.962 205.145C123.373 206.818 130.106 208.342 136.3 208.758C136.296 208.672 136.29 208.585 136.287 208.498Z" fill="url(#paint96_linear)"/>
<path d="M122.906 177.323C122.906 177.323 123.729 180.889 127.725 180.815C131.795 180.741 132.159 177.311 132.159 177.311L129.499 176.742L129.277 173.779L125.278 174.075L125.204 176.89L122.906 177.323Z" fill="url(#paint97_linear)"/>
<path d="M125.84 165.384C125.84 165.384 121.257 174.263 126.693 176.418C130.528 177.936 132.934 170.521 132.216 168.513C131.107 165.407 130.377 165.776 130.377 165.776L125.84 165.384Z" fill="url(#paint98_linear)"/>
<path d="M133.319 164.578C135.583 165.201 133.648 170.112 130.239 168.95C126.83 167.789 125.49 167.806 124.959 168.742C124.427 169.678 124.313 173.003 123.161 171.359C121.897 169.558 121.192 165.942 122.742 164.776C124.127 163.735 124.449 162.12 126.11 162.176C128.315 162.25 130.021 161.273 131.015 161.977C132.158 162.787 131.653 164.121 133.319 164.578Z" fill="url(#paint99_linear)"/>
<path d="M124.749 169.506C124.749 169.506 123.772 168.454 123.615 169.723C123.458 170.99 123.961 172.622 124.549 171.728C125.138 170.833 124.749 169.506 124.749 169.506Z" fill="url(#paint100_linear)"/>
<path d="M128.643 193.425C128.737 194.065 128.395 194.646 127.754 194.741C127.114 194.836 126.519 194.394 126.424 193.753C126.33 193.114 126.623 192.478 127.262 192.383C127.902 192.288 128.548 192.785 128.643 193.425Z" fill="url(#paint101_linear)"/>
<defs>
<linearGradient id="paint0_linear" x1="468.389" y1="239.181" x2="207.754" y2="-38.2679" gradientUnits="userSpaceOnUse">
<stop stop-color="#DAE3FE"/>
<stop offset="1" stop-color="#E9EFFD"/>
</linearGradient>
<linearGradient id="paint1_linear" x1="100.749" y1="-80.5341" x2="397.157" y2="145.153" gradientUnits="userSpaceOnUse">
<stop stop-color="#09005D"/>
<stop offset="1" stop-color="#1A0F91"/>
</linearGradient>
<linearGradient id="paint2_linear" x1="394.787" y1="211.099" x2="61.632" y2="-186.622" gradientUnits="userSpaceOnUse">
<stop stop-color="#4F52FF"/>
<stop offset="1" stop-color="#4042E2"/>
</linearGradient>
<linearGradient id="paint3_linear" x1="273.531" y1="47.8263" x2="188.354" y2="-255.82" gradientUnits="userSpaceOnUse">
<stop stop-color="#09005D"/>
<stop offset="1" stop-color="#1A0F91"/>
</linearGradient>
<linearGradient id="paint4_linear" x1="259.88" y1="57.9156" x2="178.953" y2="-230.579" gradientUnits="userSpaceOnUse">
<stop stop-color="#DAD9E7"/>
<stop offset="1" stop-color="#DDDBEF"/>
</linearGradient>
<linearGradient id="paint5_linear" x1="259.88" y1="57.9165" x2="178.954" y2="-230.576" gradientUnits="userSpaceOnUse">
<stop stop-color="#DAD9E7"/>
<stop offset="1" stop-color="#DDDBEF"/>
</linearGradient>
<linearGradient id="paint6_linear" x1="259.88" y1="57.9184" x2="178.955" y2="-230.573" gradientUnits="userSpaceOnUse">
<stop stop-color="#DAD9E7"/>
<stop offset="1" stop-color="#DDDBEF"/>
</linearGradient>
<linearGradient id="paint7_linear" x1="131.829" y1="80.4906" x2="159.287" y2="80.4906" gradientUnits="userSpaceOnUse">
<stop stop-color="#DAE3FE"/>
<stop offset="1" stop-color="#E9EFFD"/>
</linearGradient>
<linearGradient id="paint8_linear" x1="97.7082" y1="80.4906" x2="125.166" y2="80.4906" gradientUnits="userSpaceOnUse">
<stop stop-color="#DAE3FE"/>
<stop offset="1" stop-color="#E9EFFD"/>
</linearGradient>
<linearGradient id="paint9_linear" x1="63.4321" y1="81.3537" x2="90.823" y2="81.3537" gradientUnits="userSpaceOnUse">
<stop stop-color="#DAE3FE"/>
<stop offset="1" stop-color="#E9EFFD"/>
</linearGradient>
<linearGradient id="paint10_linear" x1="95.4128" y1="136.751" x2="186.895" y2="36.0646" gradientUnits="userSpaceOnUse">
<stop stop-color="#4F52FF"/>
<stop offset="1" stop-color="#4042E2"/>
</linearGradient>
<linearGradient id="paint11_linear" x1="78.0861" y1="121.009" x2="169.568" y2="20.322" gradientUnits="userSpaceOnUse">
<stop stop-color="#4F52FF"/>
<stop offset="1" stop-color="#4042E2"/>
</linearGradient>
<linearGradient id="paint12_linear" x1="59.5974" y1="104.211" x2="151.079" y2="3.52421" gradientUnits="userSpaceOnUse">
<stop stop-color="#4F52FF"/>
<stop offset="1" stop-color="#4042E2"/>
</linearGradient>
<linearGradient id="paint13_linear" x1="122.244" y1="180.399" x2="125.925" y2="180.399" gradientUnits="userSpaceOnUse">
<stop stop-color="#DAE3FE"/>
<stop offset="1" stop-color="#E9EFFD"/>
</linearGradient>
<linearGradient id="paint14_linear" x1="110.42" y1="186.522" x2="113.922" y2="186.522" gradientUnits="userSpaceOnUse">
<stop stop-color="#DAE3FE"/>
<stop offset="1" stop-color="#E9EFFD"/>
</linearGradient>
<linearGradient id="paint15_linear" x1="102.678" y1="181.061" x2="106.116" y2="181.061" gradientUnits="userSpaceOnUse">
<stop stop-color="#DAE3FE"/>
<stop offset="1" stop-color="#E9EFFD"/>
</linearGradient>
<linearGradient id="paint16_linear" x1="96.9321" y1="189.963" x2="100.371" y2="189.963" gradientUnits="userSpaceOnUse">
<stop stop-color="#DAE3FE"/>
<stop offset="1" stop-color="#E9EFFD"/>
</linearGradient>
<linearGradient id="paint17_linear" x1="91.1865" y1="182.627" x2="94.6251" y2="182.627" gradientUnits="userSpaceOnUse">
<stop stop-color="#DAE3FE"/>
<stop offset="1" stop-color="#E9EFFD"/>
</linearGradient>
<linearGradient id="paint18_linear" x1="85.4414" y1="184.384" x2="88.8801" y2="184.384" gradientUnits="userSpaceOnUse">
<stop stop-color="#DAE3FE"/>
<stop offset="1" stop-color="#E9EFFD"/>
</linearGradient>
<linearGradient id="paint19_linear" x1="79.696" y1="186.295" x2="83.1345" y2="186.295" gradientUnits="userSpaceOnUse">
<stop stop-color="#DAE3FE"/>
<stop offset="1" stop-color="#E9EFFD"/>
</linearGradient>
<linearGradient id="paint20_linear" x1="73.9507" y1="178.692" x2="77.3891" y2="178.692" gradientUnits="userSpaceOnUse">
<stop stop-color="#DAE3FE"/>
<stop offset="1" stop-color="#E9EFFD"/>
</linearGradient>
<linearGradient id="paint21_linear" x1="68.2048" y1="180.182" x2="71.6434" y2="180.182" gradientUnits="userSpaceOnUse">
<stop stop-color="#DAE3FE"/>
<stop offset="1" stop-color="#E9EFFD"/>
</linearGradient>
<linearGradient id="paint22_linear" x1="62.4597" y1="182.436" x2="65.8982" y2="182.436" gradientUnits="userSpaceOnUse">
<stop stop-color="#DAE3FE"/>
<stop offset="1" stop-color="#E9EFFD"/>
</linearGradient>
<linearGradient id="paint23_linear" x1="56.7143" y1="190.224" x2="60.1527" y2="190.224" gradientUnits="userSpaceOnUse">
<stop stop-color="#DAE3FE"/>
<stop offset="1" stop-color="#E9EFFD"/>
</linearGradient>
<linearGradient id="paint24_linear" x1="50.9688" y1="185.263" x2="54.4072" y2="185.263" gradientUnits="userSpaceOnUse">
<stop stop-color="#DAE3FE"/>
<stop offset="1" stop-color="#E9EFFD"/>
</linearGradient>
<linearGradient id="paint25_linear" x1="64.9751" y1="203.097" x2="37.9831" y2="232.457" gradientUnits="userSpaceOnUse">
<stop stop-color="#09005D"/>
<stop offset="1" stop-color="#1A0F91"/>
</linearGradient>
<linearGradient id="paint26_linear" x1="56.2139" y1="205.277" x2="58.6114" y2="205.277" gradientUnits="userSpaceOnUse">
<stop stop-color="#FEBBBA"/>
<stop offset="1" stop-color="#FF928E"/>
</linearGradient>
<linearGradient id="paint27_linear" x1="54.71" y1="163.733" x2="54.4079" y2="197.269" gradientUnits="userSpaceOnUse">
<stop stop-color="#09005D"/>
<stop offset="1" stop-color="#1A0F91"/>
</linearGradient>
<linearGradient id="paint28_linear" x1="58.9198" y1="197.53" x2="31.9279" y2="226.889" gradientUnits="userSpaceOnUse">
<stop stop-color="#09005D"/>
<stop offset="1" stop-color="#1A0F91"/>
</linearGradient>
<linearGradient id="paint29_linear" x1="47.5732" y1="205.156" x2="49.6433" y2="205.156" gradientUnits="userSpaceOnUse">
<stop stop-color="#FEBBBA"/>
<stop offset="1" stop-color="#FF928E"/>
</linearGradient>
<linearGradient id="paint30_linear" x1="51.0654" y1="163.702" x2="50.7633" y2="197.238" gradientUnits="userSpaceOnUse">
<stop stop-color="#09005D"/>
<stop offset="1" stop-color="#1A0F91"/>
</linearGradient>
<linearGradient id="paint31_linear" x1="93.5531" y1="97.5173" x2="81.3171" y2="115.191" gradientUnits="userSpaceOnUse">
<stop stop-color="#FF928E"/>
<stop offset="1" stop-color="#FE7062"/>
</linearGradient>
<linearGradient id="paint32_linear" x1="68.8652" y1="138.208" x2="81.6301" y2="138.208" gradientUnits="userSpaceOnUse">
<stop stop-color="#FEBBBA"/>
<stop offset="1" stop-color="#FF928E"/>
</linearGradient>
<linearGradient id="paint33_linear" x1="82.9781" y1="130.008" x2="73.9568" y2="150.534" gradientUnits="userSpaceOnUse">
<stop stop-color="#FEBBBA"/>
<stop offset="1" stop-color="#FF928E"/>
</linearGradient>
<linearGradient id="paint34_linear" x1="83.8319" y1="126.239" x2="87.505" y2="120.591" gradientUnits="userSpaceOnUse">
<stop stop-color="#FEBBBA"/>
<stop offset="1" stop-color="#FF928E"/>
</linearGradient>
<linearGradient id="paint35_linear" x1="86.4935" y1="92.6286" x2="74.2575" y2="110.303" gradientUnits="userSpaceOnUse">
<stop stop-color="#FF928E"/>
<stop offset="1" stop-color="#FE7062"/>
</linearGradient>
<linearGradient id="paint36_linear" x1="39.2771" y1="160.078" x2="54.7779" y2="160.078" gradientUnits="userSpaceOnUse">
<stop stop-color="#FEBBBA"/>
<stop offset="1" stop-color="#FF928E"/>
</linearGradient>
<linearGradient id="paint37_linear" x1="59.4675" y1="149.057" x2="67.9908" y2="184.571" gradientUnits="userSpaceOnUse">
<stop stop-color="#09005D"/>
<stop offset="1" stop-color="#1A0F91"/>
</linearGradient>
<linearGradient id="paint38_linear" x1="64.8039" y1="143.461" x2="62.9887" y2="151.432" gradientUnits="userSpaceOnUse">
<stop stop-color="#4F52FF"/>
<stop offset="1" stop-color="#4042E2"/>
</linearGradient>
<linearGradient id="paint39_linear" x1="63.8539" y1="146.802" x2="62.9857" y2="152.011" gradientUnits="userSpaceOnUse">
<stop stop-color="#4F52FF"/>
<stop offset="1" stop-color="#4042E2"/>
</linearGradient>
<linearGradient id="paint40_linear" x1="53.627" y1="158.451" x2="58.4561" y2="158.451" gradientUnits="userSpaceOnUse">
<stop stop-color="#FEBBBA"/>
<stop offset="1" stop-color="#FF928E"/>
</linearGradient>
<linearGradient id="paint41_linear" x1="51.1794" y1="143.507" x2="57.3079" y2="143.507" gradientUnits="userSpaceOnUse">
<stop stop-color="#FEBBBA"/>
<stop offset="1" stop-color="#FF928E"/>
</linearGradient>
<linearGradient id="paint42_linear" x1="61.6313" y1="134.226" x2="54.5644" y2="129.916" gradientUnits="userSpaceOnUse">
<stop stop-color="#FEBBBA"/>
<stop offset="1" stop-color="#FF928E"/>
</linearGradient>
<linearGradient id="paint43_linear" x1="52.1621" y1="122.088" x2="61.5321" y2="129.488" gradientUnits="userSpaceOnUse">
<stop stop-color="#09005D"/>
<stop offset="1" stop-color="#1A0F91"/>
</linearGradient>
<linearGradient id="paint44_linear" x1="57.9294" y1="139.36" x2="51.7675" y2="135.602" gradientUnits="userSpaceOnUse">
<stop stop-color="#FEBBBA"/>
<stop offset="1" stop-color="#FF928E"/>
</linearGradient>
<linearGradient id="paint45_linear" x1="274.631" y1="4.40179" x2="268.824" y2="-17.1299" gradientUnits="userSpaceOnUse">
<stop stop-color="#4F52FF"/>
<stop offset="1" stop-color="#4042E2"/>
</linearGradient>
<linearGradient id="paint46_linear" x1="250.756" y1="-31.7997" x2="262.132" y2="3.14356" gradientUnits="userSpaceOnUse">
<stop stop-color="#FEBBBA"/>
<stop offset="1" stop-color="#FF928E"/>
</linearGradient>
<linearGradient id="paint47_linear" x1="301.97" y1="81.3273" x2="308.94" y2="81.3273" gradientUnits="userSpaceOnUse">
<stop stop-color="#09005D"/>
<stop offset="1" stop-color="#1A0F91"/>
</linearGradient>
<linearGradient id="paint48_linear" x1="247.557" y1="121.742" x2="256.668" y2="15.2635" gradientUnits="userSpaceOnUse">
<stop stop-color="#FEBBBA"/>
<stop offset="1" stop-color="#FF928E"/>
</linearGradient>
<linearGradient id="paint49_linear" x1="245.093" y1="95.4985" x2="255.345" y2="95.4985" gradientUnits="userSpaceOnUse">
<stop stop-color="#09005D"/>
<stop offset="1" stop-color="#1A0F91"/>
</linearGradient>
<linearGradient id="paint50_linear" x1="291.495" y1="111.125" x2="301.486" y2="-5.6412" gradientUnits="userSpaceOnUse">
<stop stop-color="#FEBBBA"/>
<stop offset="1" stop-color="#FF928E"/>
</linearGradient>
<linearGradient id="paint51_linear" x1="290.928" y1="-9.60742" x2="270.723" y2="2.23678" gradientUnits="userSpaceOnUse">
<stop stop-color="#FF928E"/>
<stop offset="1" stop-color="#FE7062"/>
</linearGradient>
<linearGradient id="paint52_linear" x1="421.597" y1="-122.802" x2="238.777" y2="64.3352" gradientUnits="userSpaceOnUse">
<stop stop-color="#E1473D"/>
<stop offset="1" stop-color="#E9605A"/>
</linearGradient>
<linearGradient id="paint53_linear" x1="246.975" y1="16.3903" x2="248.689" y2="3.84928" gradientUnits="userSpaceOnUse">
<stop stop-color="#FEBBBA"/>
<stop offset="1" stop-color="#FF928E"/>
</linearGradient>
<linearGradient id="paint54_linear" x1="251.145" y1="-8.52251" x2="266.625" y2="-36.0731" gradientUnits="userSpaceOnUse">
<stop stop-color="#FEBBBA"/>
<stop offset="1" stop-color="#FF928E"/>
</linearGradient>
<linearGradient id="paint55_linear" x1="270.382" y1="5.67974" x2="264.58" y2="-15.8356" gradientUnits="userSpaceOnUse">
<stop stop-color="#4F52FF"/>
<stop offset="1" stop-color="#4042E2"/>
</linearGradient>
<linearGradient id="paint56_linear" x1="249.288" y1="-1.46822" x2="264.455" y2="-28.4616" gradientUnits="userSpaceOnUse">
<stop stop-color="#FEBBBA"/>
<stop offset="1" stop-color="#FF928E"/>
</linearGradient>
<linearGradient id="paint57_linear" x1="251.052" y1="-38.0545" x2="259.041" y2="-13.515" gradientUnits="userSpaceOnUse">
<stop stop-color="#FEBBBA"/>
<stop offset="1" stop-color="#FF928E"/>
</linearGradient>
<linearGradient id="paint58_linear" x1="246.64" y1="-1.35761" x2="236.805" y2="18.3259" gradientUnits="userSpaceOnUse">
<stop stop-color="#FEBBBA"/>
<stop offset="1" stop-color="#FF928E"/>
</linearGradient>
<linearGradient id="paint59_linear" x1="268.575" y1="92.9769" x2="314.551" y2="4.35372" gradientUnits="userSpaceOnUse">
<stop stop-color="#4F52FF"/>
<stop offset="1" stop-color="#4042E2"/>
</linearGradient>
<linearGradient id="paint60_linear" x1="312.799" y1="88.2203" x2="363.072" y2="-8.68557" gradientUnits="userSpaceOnUse">
<stop stop-color="#4F52FF"/>
<stop offset="1" stop-color="#4042E2"/>
</linearGradient>
<linearGradient id="paint61_linear" x1="413.683" y1="72.4913" x2="474.517" y2="-44.7684" gradientUnits="userSpaceOnUse">
<stop stop-color="#4F52FF"/>
<stop offset="1" stop-color="#4042E2"/>
</linearGradient>
<linearGradient id="paint62_linear" x1="354.872" y1="74.2669" x2="410.697" y2="-33.3381" gradientUnits="userSpaceOnUse">
<stop stop-color="#4F52FF"/>
<stop offset="1" stop-color="#4042E2"/>
</linearGradient>
<linearGradient id="paint63_linear" x1="303.96" y1="64.6238" x2="357.18" y2="-37.9646" gradientUnits="userSpaceOnUse">
<stop stop-color="#4F52FF"/>
<stop offset="1" stop-color="#4042E2"/>
</linearGradient>
<linearGradient id="paint64_linear" x1="325.112" y1="70.8347" x2="379.071" y2="-33.1785" gradientUnits="userSpaceOnUse">
<stop stop-color="#4F52FF"/>
<stop offset="1" stop-color="#4042E2"/>
</linearGradient>
<linearGradient id="paint65_linear" x1="350.164" y1="74.9254" x2="405.499" y2="-31.7488" gradientUnits="userSpaceOnUse">
<stop stop-color="#4F52FF"/>
<stop offset="1" stop-color="#4042E2"/>
</linearGradient>
<linearGradient id="paint66_linear" x1="376.528" y1="78.9632" x2="433.373" y2="-30.5996" gradientUnits="userSpaceOnUse">
<stop stop-color="#4F52FF"/>
<stop offset="1" stop-color="#4042E2"/>
</linearGradient>
<linearGradient id="paint67_linear" x1="405.757" y1="83.0308" x2="464.316" y2="-29.847" gradientUnits="userSpaceOnUse">
<stop stop-color="#4F52FF"/>
<stop offset="1" stop-color="#4042E2"/>
</linearGradient>
<linearGradient id="paint68_linear" x1="434.239" y1="88.0579" x2="494.307" y2="-27.7343" gradientUnits="userSpaceOnUse">
<stop stop-color="#4F52FF"/>
<stop offset="1" stop-color="#4042E2"/>
</linearGradient>
<linearGradient id="paint69_linear" x1="437.132" y1="239.906" x2="193.891" y2="-19.0286" gradientUnits="userSpaceOnUse">
<stop stop-color="#C4D5FD"/>
<stop offset="1" stop-color="#CEDDFC"/>
</linearGradient>
<linearGradient id="paint70_linear" x1="383.035" y1="241.155" x2="169.892" y2="14.2655" gradientUnits="userSpaceOnUse">
<stop stop-color="#C4D5FD"/>
<stop offset="1" stop-color="#CEDDFC"/>
</linearGradient>
<linearGradient id="paint71_linear" x1="246.846" y1="-33.2348" x2="254.702" y2="-9.10575" gradientUnits="userSpaceOnUse">
<stop stop-color="#DDB9CD"/>
<stop offset="1" stop-color="#DE9CAF"/>
</linearGradient>
<linearGradient id="paint72_linear" x1="202.366" y1="100.427" x2="139.348" y2="-124.221" gradientUnits="userSpaceOnUse">
<stop stop-color="#32368C"/>
<stop offset="1" stop-color="#3E41B1"/>
</linearGradient>
<linearGradient id="paint73_linear" x1="207.937" y1="96.3079" x2="143.186" y2="-134.522" gradientUnits="userSpaceOnUse">
<stop stop-color="#32368C"/>
<stop offset="1" stop-color="#3E41B1"/>
</linearGradient>
<linearGradient id="paint74_linear" x1="362.933" y1="241.614" x2="160.982" y2="26.6312" gradientUnits="userSpaceOnUse">
<stop stop-color="#C4D5FD"/>
<stop offset="1" stop-color="#CEDDFC"/>
</linearGradient>
<linearGradient id="paint75_linear" x1="77.0734" y1="-2.8539" x2="303.822" y2="169.8" gradientUnits="userSpaceOnUse">
<stop stop-color="#32368C"/>
<stop offset="1" stop-color="#3E41B1"/>
</linearGradient>
<linearGradient id="paint76_linear" x1="374.873" y1="241.34" x2="166.282" y2="19.2831" gradientUnits="userSpaceOnUse">
<stop stop-color="#C4D5FD"/>
<stop offset="1" stop-color="#CEDDFC"/>
</linearGradient>
<linearGradient id="paint77_linear" x1="384.771" y1="241.111" x2="170.669" y2="13.1919" gradientUnits="userSpaceOnUse">
<stop stop-color="#C4D5FD"/>
<stop offset="1" stop-color="#CEDDFC"/>
</linearGradient>
<linearGradient id="paint78_linear" x1="445.198" y1="239.714" x2="197.468" y2="-23.998" gradientUnits="userSpaceOnUse">
<stop stop-color="#C4D5FD"/>
<stop offset="1" stop-color="#CEDDFC"/>
</linearGradient>
<linearGradient id="paint79_linear" x1="450.806" y1="239.591" x2="199.95" y2="-27.4428" gradientUnits="userSpaceOnUse">
<stop stop-color="#C4D5FD"/>
<stop offset="1" stop-color="#CEDDFC"/>
</linearGradient>
<linearGradient id="paint80_linear" x1="454.487" y1="239.502" x2="201.589" y2="-29.7121" gradientUnits="userSpaceOnUse">
<stop stop-color="#C4D5FD"/>
<stop offset="1" stop-color="#CEDDFC"/>
</linearGradient>
<linearGradient id="paint81_linear" x1="455.414" y1="239.488" x2="201.996" y2="-30.2772" gradientUnits="userSpaceOnUse">
<stop stop-color="#C4D5FD"/>
<stop offset="1" stop-color="#CEDDFC"/>
</linearGradient>
<linearGradient id="paint82_linear" x1="414.253" y1="240.431" x2="183.742" y2="-4.95163" gradientUnits="userSpaceOnUse">
<stop stop-color="#C4D5FD"/>
<stop offset="1" stop-color="#CEDDFC"/>
</linearGradient>
<linearGradient id="paint83_linear" x1="421.007" y1="240.274" x2="186.739" y2="-9.10869" gradientUnits="userSpaceOnUse">
<stop stop-color="#C4D5FD"/>
<stop offset="1" stop-color="#CEDDFC"/>
</linearGradient>
<linearGradient id="paint84_linear" x1="156.113" y1="154.46" x2="156.443" y2="148.641" gradientUnits="userSpaceOnUse">
<stop stop-color="#09005D"/>
<stop offset="1" stop-color="#1A0F91"/>
</linearGradient>
<linearGradient id="paint85_linear" x1="183.656" y1="143.904" x2="174.424" y2="157.175" gradientUnits="userSpaceOnUse">
<stop stop-color="#FF928E"/>
<stop offset="1" stop-color="#FE7062"/>
</linearGradient>
<linearGradient id="paint86_linear" x1="127.114" y1="175.352" x2="144.368" y2="217.029" gradientUnits="userSpaceOnUse">
<stop stop-color="#FEBBBA"/>
<stop offset="1" stop-color="#FF928E"/>
</linearGradient>
<linearGradient id="paint87_linear" x1="180.495" y1="164.455" x2="160.748" y2="212.157" gradientUnits="userSpaceOnUse">
<stop stop-color="#FEBBBA"/>
<stop offset="1" stop-color="#FF928E"/>
</linearGradient>
<linearGradient id="paint88_linear" x1="158.84" y1="172.753" x2="157.839" y2="213.297" gradientUnits="userSpaceOnUse">
<stop stop-color="#09005D"/>
<stop offset="1" stop-color="#1A0F91"/>
</linearGradient>
<linearGradient id="paint89_linear" x1="181.221" y1="193.771" x2="192.403" y2="193.858" gradientUnits="userSpaceOnUse">
<stop stop-color="#09005D"/>
<stop offset="1" stop-color="#1A0F91"/>
</linearGradient>
<linearGradient id="paint90_linear" x1="194.525" y1="193.795" x2="184.67" y2="193.601" gradientUnits="userSpaceOnUse">
<stop stop-color="#4F52FF"/>
<stop offset="1" stop-color="#4042E2"/>
</linearGradient>
<linearGradient id="paint91_linear" x1="179.991" y1="177.101" x2="168.726" y2="207.613" gradientUnits="userSpaceOnUse">
<stop stop-color="#FEBBBA"/>
<stop offset="1" stop-color="#FF928E"/>
</linearGradient>
<linearGradient id="paint92_linear" x1="123.658" y1="204.831" x2="114.681" y2="204.651" gradientUnits="userSpaceOnUse">
<stop stop-color="#09005D"/>
<stop offset="1" stop-color="#1A0F91"/>
</linearGradient>
<linearGradient id="paint93_linear" x1="107.057" y1="207.338" x2="114.46" y2="207.397" gradientUnits="userSpaceOnUse">
<stop stop-color="#4F52FF"/>
<stop offset="1" stop-color="#4042E2"/>
</linearGradient>
<linearGradient id="paint94_linear" x1="133.638" y1="180.305" x2="124.069" y2="206.221" gradientUnits="userSpaceOnUse">
<stop stop-color="#FEBBBA"/>
<stop offset="1" stop-color="#FF928E"/>
</linearGradient>
<linearGradient id="paint95_linear" x1="179.704" y1="165.779" x2="176.907" y2="175.169" gradientUnits="userSpaceOnUse">
<stop stop-color="#4F52FF"/>
<stop offset="1" stop-color="#4042E2"/>
</linearGradient>
<linearGradient id="paint96_linear" x1="166.022" y1="194.05" x2="118.53" y2="180.481" gradientUnits="userSpaceOnUse">
<stop stop-color="#4F52FF"/>
<stop offset="1" stop-color="#4042E2"/>
</linearGradient>
<linearGradient id="paint97_linear" x1="153.57" y1="173.131" x2="153.322" y2="151.569" gradientUnits="userSpaceOnUse">
<stop stop-color="#FEBBBA"/>
<stop offset="1" stop-color="#FF928E"/>
</linearGradient>
<linearGradient id="paint98_linear" x1="153.068" y1="161.037" x2="156.852" y2="142.616" gradientUnits="userSpaceOnUse">
<stop stop-color="#FEBBBA"/>
<stop offset="1" stop-color="#FF928E"/>
</linearGradient>
<linearGradient id="paint99_linear" x1="159.496" y1="136.327" x2="157.27" y2="145.145" gradientUnits="userSpaceOnUse">
<stop stop-color="#09005D"/>
<stop offset="1" stop-color="#1A0F91"/>
</linearGradient>
<linearGradient id="paint100_linear" x1="142.065" y1="168.366" x2="139.506" y2="140.679" gradientUnits="userSpaceOnUse">
<stop stop-color="#FEBBBA"/>
<stop offset="1" stop-color="#FF928E"/>
</linearGradient>
<linearGradient id="paint101_linear" x1="149.586" y1="174.29" x2="148.977" y2="203.449" gradientUnits="userSpaceOnUse">
<stop stop-color="#4F52FF"/>
<stop offset="1" stop-color="#4042E2"/>
</linearGradient>
</defs>
</svg>
